<?xml version="1.0" encoding="utf-8"?>
<!-- Generator: Adobe Illustrator 23.0.0, SVG Export Plug-In . SVG Version: 6.00 Build 0)  -->
<svg version="1.1" id="Layer_1" xmlns="http://www.w3.org/2000/svg" xmlns:xlink="http://www.w3.org/1999/xlink" x="0px" y="0px"
	 viewBox="0 0 1000 640" style="enable-background:new 0 0 1000 640;" xml:space="preserve">
<style type="text/css">
	.st0{fill:#9F653E;}
	.st1{fill:#502E1C;}
	.st2{fill:#FFFFFF;}
	.st3{fill:#C6221E;}
	.st4{fill:#A61D4B;}
	.st5{fill:#FBCB43;}
	.st6{fill:#E87E04;}
	.st7{fill:#CE6905;}
	.st8{fill:#F5B400;}
</style>
<g id="woman-1">
	<g>
		<path d="M279.1,120.9c7-7.2-7.4-22-16.7-14.8c-8.3-7.5-18.9-11.1-26.3-1.2c-7.5-3.9-15.8-3.3-17,5.9c0,0-0.1,0-0.1-0.1
			c-6.9-0.6-11.5,2-11.7,9.4c-0.1,3.8,2.4,6.2,5.4,7.4c-3.2,3.5-4.5,8.2-2,12.7c1.8,3.2,6,3.2,9.1,2c2.3,8,15.4,11.4,21.4,5.5
			c5.2,3.6,17.7,2.7,19.9-4.7c8.2,5.6,13.3-2.6,12.9-8C281,134.1,284.7,125.7,279.1,120.9z"/>
		<path class="st0" d="M228.9,127.8c0,0,2.6,18.9-6,21.9c-6.3,2.2,15.5,33.9,15.5,33.9l11.6-0.9l14.6-32.6c0,0-10.3-6-6.9-22.8
			C260.4,113.9,228.9,127.8,228.9,127.8z"/>
		<g>
			<g>
				<g>
					<g>
						<path class="st0" d="M291.4,84.1c-1.8-3.4-4.7-3.7-6.5-3.2c1.6-16.5,1.6-41.2-40-41.2c-8.8,0-46-0.6-40.4,41.3
							c-1.9-0.4-5.1-0.1-6.7,3.1c-2.6,4.9,0,17.2,8.2,18c0.9,0.1,1.7,0.2,2.3,0.2c3.2,10.3,10.2,19.8,19.4,26.5
							c14,10.3,27.3,6.1,35.1,0c8.7-6.9,14.8-16.5,17.9-26.5c0.7,0,1.5-0.1,2.6-0.2C291.4,101.3,294,89.1,291.4,84.1z"/>
						<path class="st1" d="M204.3,86.1c0,0-5.8-2-3.3,6.2c2.1,7.1,5.8,4.4,5.8,4.4L204.3,86.1z"/>
						<path class="st1" d="M284.6,86.1l-2.3,10.2c0,0,4.3,0.4,5.6-4.6C288.9,88,287.5,85.4,284.6,86.1z"/>
					</g>
					<path class="st2" d="M216.3,84.9c0,0,2.3,5.7,8.4,5.8c7.2,0.1,8.9-3.9,8.8-4.7c0-0.8-2-2.1-4.3-2.8
						C226.9,82.4,220.3,81.4,216.3,84.9z"/>
					<path class="st2" d="M272.1,84.9c0,0-2.3,5.7-8.4,5.8c-7.2,0.1-8.9-3.9-8.8-4.7c0-0.8,2-2.1,4.3-2.8
						C261.6,82.4,268.1,81.4,272.1,84.9z"/>
					<g>
						<path d="M233.9,85.4c-5.7-6.1-14.5-5.1-19.3-0.7c0.9,0.5,1.6,1.2,2.5,1.8c7.1-5.2,11.2-3.8,16.4-0.5
							C233.9,86.2,234.2,85.7,233.9,85.4z"/>
						<path d="M228.6,86.2c0,2.1-1.7,3.9-3.9,3.9s-3.9-1.7-3.9-3.9c0-2.2,1.7-3.9,3.9-3.9C226.2,82.3,228.6,83.2,228.6,86.2z"/>
						<path class="st2" d="M226.7,85c0,0.8-0.7,1.5-1.5,1.5s-1.5-0.7-1.5-1.5s0.7-1.5,1.5-1.5C226.1,83.5,226.7,84.1,226.7,85z"/>
						<path d="M254.4,85.4c5.7-6.1,14.4-5.1,19.3-0.7c-0.9,0.5-1.6,1.2-2.5,1.8c-7.1-5.2-11.2-3.8-16.4-0.5
							C254.4,86.2,254.1,85.7,254.4,85.4z"/>
						<path d="M259.7,86.2c0,2.1,1.7,3.9,3.9,3.9c2.1,0,3.9-1.7,3.9-3.9c0-2.2-1.7-3.9-3.9-3.9C262.1,82.3,259.7,83.2,259.7,86.2z"
							/>
						<circle class="st2" cx="263" cy="85" r="1.5"/>
						<path d="M224.2,69.2c-4.9-0.5-10.5,0.8-13.5,4.9c-0.6,0.8,0.1,1.9,1.1,1.2c6.2-4.7,10.6-4.2,13.4-3.7
							c3.5,0.6,7.4,2.6,10.3,5.5c0.7,0.7,1.1,0.1,0.4-0.9C233.3,72,229.2,69.7,224.2,69.2z"/>
					</g>
					<g>
						<path d="M264.2,69.2c4.9-0.5,10.5,0.8,13.5,4.9c0.6,0.8-0.1,1.9-1.1,1.2c-6.2-4.7-10.6-4.2-13.4-3.7
							c-3.5,0.6-7.4,2.6-10.3,5.5c-0.7,0.7-1.1,0.1-0.4-0.9C255.1,72,259.2,69.7,264.2,69.2z"/>
					</g>
					<path class="st1" d="M250.3,104.2c-0.3-1.5-2.9-7.6-3.6-9.8c-0.6-1.9-1.3-1.3-1.2-0.1c0.1,2,0.4,4.8,0.7,6.9
						c0.4,3,0.3,4.2-0.4,7.1c-0.4,1.7,0.6,1.6,1.2,1.4C249.6,108.6,250.8,107.1,250.3,104.2z"/>
				</g>
				<path d="M284.6,37.9c-13.8-28-57.6-34.6-76.2-5.4c-14.1,22.1-6.3,48.6-6.3,48.6l3.9,0.5c0,0-1.1-37.3,37.3-37
					c41.2,0.3,40.5,33.4,40.4,36.4c2.2,0,2.9,0.1,4.1,0.3C287.8,81.1,293.3,55.8,284.6,37.9z"/>
			</g>
		</g>
		<path class="st3" d="M256,115.2c-1.3,0.2-2.6,1-4,0.7c-0.9-0.2-1.8-0.5-2.7-0.7c-1.8-0.3-3.2,0.5-4.2,2c-1-1.4-2.3-2.3-4.2-2
			c-0.9,0.2-1.8,0.5-2.7,0.7c-1.4,0.2-2.7-0.6-4-0.7c-0.9-0.1-1.2,1.1-0.5,1.6c1.1,0.9,2.3,1.5,3.8,1.7c1.5,2.6,4.6,3.9,7.7,3.9l0,0
			l0,0l0,0l0,0c3.1,0,6.2-1.3,7.7-3.9c1.4-0.2,2.6-0.8,3.8-1.7C257.1,116.3,256.9,115.1,256,115.2z"/>
		<g>
			<path class="st4" d="M218.6,579.6c9.5-1.1,8.6-7.7,8.6-7.7s3.1,8.3,11.5,8c7.5-0.3,6.3-8.6,6.3-8.6s6,10.3,14.9,8.3
				c7.2-1.6,4-9.2,4-9.2s9.4,9.7,24,8c7.3-0.9,14.8-1.9,20.4-2.8c-3.7-49.4-11.4-159.2-7.8-185.6c4.6-34.4-91.6-26.3-91.6-26.3
				l-14.9,87c0,0,5.7,33.2,4.6,56.1c-0.7,13.1-5.1,39.7-8.7,60.1C197.4,571.7,212.1,580.4,218.6,579.6z"/>
			<path class="st5" d="M213.4,607.6c2,0.4,8-0.6,11.5-3.7c4.9,4,8.9,5.9,14.6,4.9c4.9-0.9,5.2-4,6.6-6.9c2.7,3.6,6.3,7.2,12.3,7.2
				c4.6,0,6.9-1.1,9.4-6.6c20.9,8,42.4-2.6,42.4-2.6s-0.8-9.4-1.9-24.3c-5.7,0.9-13.2,1.9-20.4,2.8c-14.6,1.7-24-8-24-8
				s3.1,7.5-4,9.2c-8.9,2-14.9-8.3-14.9-8.3s1.2,8.3-6.3,8.6c-8.3,0.3-11.5-8-11.5-8s0.9,6.6-8.6,7.7c-6.5,0.8-21.2-7.8-28.7-12.7
				c-2.7,15.2-5,27-5,27S202,605.3,213.4,607.6z"/>
		</g>
		<g>
			<path class="st6" d="M234.9,232.4l0.8,183.1c10.9-12.4,20.6-24.5,24.7-32.3c11.5-21.8,12.6-146.6,12.6-146.6
				S255.5,230.3,234.9,232.4z"/>
			<path class="st6" d="M222,282c0.4-15.5-2.6-19.3-10.7-21.9c-4.4-1.4-12.2-0.6-16.6-0.1c-4.1,18.9-11.4,55.8-11,77.4
				c0.5,30.2,2.6,59.7,4.6,82.2l34.4-34.8C222.2,343.3,221.8,291.1,222,282z"/>
			<path class="st7" d="M197.4,248.1c0,0-1.1,4.6-2.7,12c4.4-0.6,12.2-1.3,16.6,0.1c8.2,2.6,11.2,6.4,10.7,21.9
				c-0.3,9.1,0.2,61.3,0.7,102.9l5.3-5.4l2.8,41.4c1.6-1.8,3.2-3.6,4.8-5.4l-0.8-183.1C222.5,233.6,209,237.7,197.4,248.1z"/>
		</g>
		<path class="st4" d="M277.3,148.1c-1.6-0.2-3.1-0.4-4.6-0.6c-7.6,6.5-22.1,18.8-31.7,26.5c-11.1,8.7-37.2,30-46.8,37.7l-0.2,4.6
			c6.4-5.2,37-30,49.2-39.7C253.9,168.1,270.7,153.8,277.3,148.1z"/>
		<path class="st4" d="M272.8,220.1c27.7-1.4,48.3-13,54.9-17.3c-0.5-0.9-1-1.9-1.7-3c-6.1,3.9-26.5,15.5-53.4,16.9L272.8,220.1z"/>
		<g>
			<path class="st5" d="M190.9,445.5c1.1,9.8,1.9,15.5,1.9,15.5s14.6-14.6,30.4-31.8c0-4.4-0.1-10.4-0.2-17.4L190.9,445.5z"/>
			<path class="st5" d="M222.7,384.8l-34.4,34.8c0.7,8.1,1.5,15.4,2.1,21.4l32.5-34.1C222.9,400.2,222.8,392.7,222.7,384.8z"/>
			<path class="st8" d="M229.4,400.1l-1.4-20.7l-5.3,5.4c0.1,7.9,0.2,15.4,0.2,22.1L229.4,400.1z"/>
			<path class="st8" d="M223,411.9c0.1,7,0.1,13,0.2,17.4c2.6-2.8,5.1-5.6,7.7-8.5l-1.1-16.1L223,411.9z"/>
			<polygon class="st4" points="232.7,401.7 230.2,399.3 229.4,400.1 229.8,404.8 			"/>
			<path class="st4" d="M222.9,407l-32.5,34.1c0.2,1.6,0.3,3.1,0.5,4.5L223,412C223,410.3,223,408.6,222.9,407z"/>
			<path class="st4" d="M223,411.9l6.8-7.1l-0.3-4.6L223,407C223,408.6,223,410.3,223,411.9z"/>
		</g>
		<g>
			<path class="st6" d="M241,174c9.7-7.6,24.1-19.9,31.7-26.5c-4.5-0.5-7.8-0.8-7.8-0.8l-29.6,24.5l-35.8,29.2c0.6,2,1.4,3.6,2.4,5
				C213.9,195.7,232.2,180.9,241,174z"/>
			<path class="st6" d="M280.4,208.3c10.9,0,13.7-8.9,14.3-11.8c0.6-2.9-1.7-13.2-4.6-21.2s4.2-19.2,4.2-19.2s-1.1,21.3,12.4,43.8
				c1.3,2.1,3.2,4.8,4.8,7.4c6.9-3,11.9-5.9,14.4-7.5c-8-14.7-25.4-45.4-31.9-48c-4.1-1.6-10.9-2.9-16.9-3.7
				c-6.6,5.7-23.4,20-34.2,28.5c-8.8,6.9-27,21.7-38.9,31.4c3.3,3.1,7.4,4,10.3,4.6C224.8,214.6,269.5,208.3,280.4,208.3z"/>
			<path class="st6" d="M327.7,202.9c-2.7,1.7-7.6,4.6-14.4,7.5c1.8,3.8,2,7.2-3.1,8.4c-9.7,2.3-65.3,5.7-65.3,5.7l-26.3,3.8
				L265,229c0,0,19.8,0,33.5-3.4s31.8-18,31.8-18S329.3,205.9,327.7,202.9z"/>
			<path class="st4" d="M272.8,220.1c16.5-0.9,30.5-5.3,40.5-9.7c-0.5-1-1.1-2-1.7-3.1c-9.7,4.2-23.2,8.5-39,9.4L272.8,220.1z"/>
			<path class="st7" d="M194.2,211.7c2-1.6,4.7-3.8,7.8-6.3c-0.9-1.4-1.7-3-2.4-5l-5.1,4.1L194.2,211.7z"/>
			<path class="st7" d="M310.2,218.9c5.1-1.2,4.9-4.6,3.1-8.4c-10,4.4-24,8.9-40.5,9.7l-0.2-3.4c15.8-0.8,29.3-5.1,39-9.4
				c-1.6-2.6-3.6-5.3-4.8-7.4c-13.5-22.5-12.4-43.8-12.4-43.8s-7.1,11.2-4.2,19.2s5.2,18.3,4.6,21.2s-3.4,11.8-14.3,11.8
				s-55.6,6.2-65.9,4.3c-2.9-0.5-7-1.5-10.3-4.6c-4.7,3.8-8.4,6.8-10.2,8.3l-0.6,11.7l25.2,0.4l26.3-3.8
				C244.9,224.6,300.5,221.1,310.2,218.9z"/>
		</g>
		<g>
			<g>
				<path class="st6" d="M238,320.7c-0.9,33.7-1.8,119.5-2.1,155.8h3.4c0.4-36.3,1.2-122,2.1-155.7c0.6-24.2,0.2-85,0-100.7
					c-1.1,0.2-2.3,0.4-3.4,0.7C238.2,235.8,238.7,296.4,238,320.7z"/>
				<path class="st6" d="M228.7,223c-0.7,0.2-1.4,0.5-2.1,0.7v1.4C227.1,224.3,227.8,223.6,228.7,223z"/>
				<path class="st6" d="M327.2,476.5c1.2-53.1,4.7-208.1,5.3-220.4c0.7-12.7-1.1-26.3-2.7-35.4c-1.1-6.5-2.2-10.8-2.2-10.8
					s-5.6,4.3-15.9,5.6s-19.8-0.7-33.1-0.4c-3.7,0.1-7.6,0.3-11.4,0.6c-3.4,0.4-6.5,0.9-9.3,1.3v259.6L327.2,476.5L327.2,476.5z"/>
				<path class="st7" d="M258.1,492.4h68.8c0.1-2.7,0.2-8.2,0.4-15.9h-69.1v15.9H258.1z"/>
				<path class="st7" d="M235.9,476.5c-0.1,8.3-0.1,14-0.1,15.9h3.4c0-1.9,0.1-7.6,0.1-15.9H235.9z"/>
				<path class="st5" d="M238.1,220.7c0-0.6,0-1.2,0-1.7c-3.7,0.9-7.1,2.1-9.4,3.9c1.7-0.6,3.6-1.2,5.1-1.4
					C235.1,221.3,236.6,221,238.1,220.7z"/>
				<path class="st5" d="M238,320.7c0.6-24.3,0.2-85,0-100c-1.5,0.3-3,0.6-4.3,0.8c-1.5,0.3-3.4,0.9-5.1,1.4
					c-0.8,0.6-1.5,1.3-2.1,2.1v251.4h9.3C236.3,440.3,237.2,354.4,238,320.7z"/>
				<path class="st5" d="M226.6,492.6h9.2v-0.1h-9.2V492.6z"/>
				<path class="st8" d="M235.8,492.4c0-1.9,0.1-7.6,0.1-15.9h-9.3v15.9H235.8z"/>
				<path class="st5" d="M258.1,216.9v-0.3c-3,0.3-9.9,0.6-16.6,1.8c0,0.5,0,1.1,0,1.7c4.4-0.8,8.6-1.7,10.6-2.1
					C253.8,217.6,255.8,217.3,258.1,216.9z"/>
				<path class="st5" d="M241.5,320.8c-0.9,33.7-1.8,119.4-2.1,155.7h18.7V216.9c-2.3,0.4-4.3,0.7-6,1.1c-2,0.4-6.2,1.3-10.6,2.1
					C241.6,235.9,242.1,296.6,241.5,320.8z"/>
				<path class="st5" d="M239.2,492.6h18.9v-0.1h-18.9C239.2,492.4,239.2,492.5,239.2,492.6z"/>
				<path class="st8" d="M239.3,476.5c-0.1,8.3-0.1,14-0.1,15.9h18.9v-15.9H239.3z"/>
			</g>
			<path class="st4" d="M235.8,493.1h3.4c0,0,0-0.3,0-0.6h-3.4C235.8,492.9,235.8,493.1,235.8,493.1z"/>
			<path class="st4" d="M241.5,218.4c-1.2,0.2-2.3,0.5-3.4,0.7c0.1,11.5,0.7,76.3,0,101.7c-1.1,41.6-2.2,162.7-2.3,171.8h3.4
				c0.1-9.3,1.2-130.2,2.3-171.7C242.1,295.6,241.6,230.8,241.5,218.4z"/>
		</g>
		<g>
			<path class="st0" d="M267.1,228.3c-8.7-3.3-25.3-6-36.5-6.9s-50.7,9-50.7,9l5.8-10.2l-2.1,3.3l-27-10.4
				c-2.3,5.7-6.8,17.9-6.8,25.5c0,8.6,2.6,20.6,13.7,23.2c11.2,2.6,60.1-20.6,60.1-20.6s10.3,7.7,29.2,7.7c7.7,0,26.2-0.7,26.2-9
				C279.1,235.2,269.4,229.2,267.1,228.3z"/>
			<path class="st4" d="M222.9,149.7c0,0-19.8,3-30.9,6.4c-11.2,3.4-20.8,23.1-27.5,38.6c-7.4,17.2-7.9,18.3-7.9,18.3l0,0l27.2,10.6
				l10.7-18.6l40.5-33.6L222.9,149.7z"/>
		</g>
		<g>
			<path class="st5" d="M222.4,248.7c-0.7,0-1.4-0.5-1.6-1.2c-4.6-13.6-1-27.7-0.9-28.3c0.2-0.9,1.2-1.5,2.1-1.2
				c0.9,0.2,1.5,1.2,1.2,2.1c0,0.1-3.5,13.6,0.8,26.3c0.3,0.9-0.2,1.9-1.1,2.2C222.8,248.7,222.6,248.7,222.4,248.7z"/>
		</g>
		<g>
			<path class="st5" d="M215.1,250.8c-0.7,0-1.4-0.4-1.6-1.2c-4.6-13.6-1.1-27.7-0.9-28.3c0.2-0.9,1.2-1.5,2.1-1.2
				c0.9,0.2,1.5,1.2,1.2,2.1c0,0.1-3.5,13.6,0.8,26.3c0.3,0.9-0.2,1.9-1.1,2.2C215.5,250.8,215.3,250.8,215.1,250.8z"/>
		</g>
		<g>
			<path class="st5" d="M207.4,252.6c-0.7,0-1.4-0.4-1.6-1.2c-4.6-13.6-1-27.7-0.9-28.3c0.2-0.9,1.2-1.5,2.1-1.2
				c0.9,0.2,1.5,1.2,1.2,2.1c0,0.1-3.5,13.6,0.8,26.3c0.3,0.9-0.2,1.9-1.1,2.2C207.8,252.5,207.6,252.6,207.4,252.6z"/>
		</g>
		<path class="st5" d="M211.1,103.1c0,2.4-1.9,4.3-4.3,4.3c-2.4,0-4.3-1.9-4.3-4.3s1.9-4.3,4.3-4.3
			C209.1,98.8,211.1,100.8,211.1,103.1z"/>
		<circle class="st5" cx="282.8" cy="103.1" r="4.3"/>
	</g>
</g>
</svg>
