<?xml version="1.0" encoding="utf-8"?>
<!-- Generator: Adobe Illustrator 23.0.0, SVG Export Plug-In . SVG Version: 6.00 Build 0)  -->
<svg version="1.1" id="Layer_1" xmlns="http://www.w3.org/2000/svg" xmlns:xlink="http://www.w3.org/1999/xlink" x="0px" y="0px"
	 viewBox="0 0 1000 640" style="enable-background:new 0 0 1000 640;" xml:space="preserve">
<style type="text/css">
	.st0{fill:#854D2C;}
	.st1{fill:#8C6434;}
	.st2{fill:#502E1C;}
	.st3{fill:#070707;}
	.st4{fill:#FFFFFF;}
	.st5{fill:#A41D1F;}
	.st6{fill:#EDEDED;}
	.st7{fill:#1A110F;}
	.st8{fill:#C6221E;}
	.st9{fill:#D73D33;}
	.st10{fill:#FBCB43;}
	.st11{fill:#F4F4F4;}
	.st12{fill:none;stroke:#D1D3D4;stroke-miterlimit:10;}
</style>
<g id="man2">
	<g>
		<g>
			<g>
				<path class="st0" d="M142.9,177.1c8-1.6,14.3-3.6,18.3-5.2c-3.9-7.2-3.8-18.8-3.8-18.8l-20.1,3l-23.1-2.1c0,0,0.2,8.6-2.3,15.4
					C117.2,172.4,131.1,179.4,142.9,177.1z"/>
				<rect x="55.3" y="399.8" class="st1" width="4.8" height="192"/>
				<rect x="36.1" y="394.3" class="st1" width="32.7" height="5.6"/>
				<path class="st0" d="M166.9,177.2c-2.5-0.8-4.3-2.8-5.7-5.2c-4.1,1.6-10.3,3.6-18.3,5.2c-11.8,2.3-25.7-4.7-31-7.8
					c-1.4,3.6-3.5,6.8-6.9,7.9"/>
				<path class="st0" d="M218.8,278.8c-3.5,16.6-34.1,35.9-35.9,41.1c-1.4,4.2-6.4,20-0.5,20.4c0,4.7,5.1,11.3,6.1,11.6
					c3.8,1.2,19.2,10.1,17.2,1.4c-0.5-2.3-5.4-4.5-9.9-4.5c1.1-2.1,2.4-9.7,0.6-16c16.3-8.8,40.1-18.4,47-34.2
					c4.8-11.1,13.8-20.4,12.2-24.3"/>
				<path class="st0" d="M89.3,268.3c2.7,11.6,4.4,42.9,4.4,42.9h32.4v1.7h50.8c0,0,1.8-32.2,5.3-43.6"/>
				<path class="st0" d="M31.5,279.6c-4.4,18.4,4,56.6,5.9,63.3c1.6,5.6,3.7,12.7,4.2,18.4c1.5,15-2,21.4-2.2,32.7
					c-0.2,10.9,9.4,24,12.8,21.6c7.7-5.5,6.9-16.9,6.1-28.6c1.1,0.8,3.9,3.3,5.5,7.2c1.6,3.8,6.6,6.7,6.1,3.6
					c-0.8-5.3-2.2-11.9-5-19.7c-1.5-4.3-5.1-12.8-5.5-27.7c-0.6-20.8,1.4-46,1.1-58.5"/>
			</g>
			<g>
				<g>
					<g>
						<g>
							<g>
								<path class="st0" d="M169.3,86.6c-8.9-17-27.1-12.1-33.8-9.5c-6.7-2.5-24.9-7.5-33.8,9.5c0,0-0.2,13,0.5,27.2
									c0.7,13.4,2.2,27.9,5.4,33.7c6.4,11.2,17.3,17,27,17.6v0.1c0.3,0,0.6-0.1,0.9-0.1c0.3,0,0.6,0.1,0.9,0.1v-0.1
									c9.7-0.6,20.6-6.5,27-17.6C170.2,135.6,169.3,86.6,169.3,86.6z"/>
							</g>
							<g>
								<path class="st0" d="M104.7,114.4c0,0-12-8.4-9.8,9.2c1.4,11.5,13.3,15.6,15,9.2L104.7,114.4z"/>
							</g>
							<g>
								<path class="st0" d="M167.6,114.4c0,0,12.2-6.9,9.8,9.2c-2.1,14.3-13.3,15.6-15,9.2L167.6,114.4z"/>
							</g>
							<g>
								<path class="st2" d="M102.7,119l0.6,10.7c0,0-7.2-2-4.9-10.4C99.4,115.3,102.7,119,102.7,119z"/>
							</g>
							<g>
								<path class="st2" d="M168.6,119l-0.6,10.7c0,0,7.2-2,4.9-10.4C171.9,115.3,168.6,119,168.6,119z"/>
							</g>
							<g>
								<path class="st3" d="M169.4,66c-8.9-7.7-18.3-8.8-32.7-9.1c-8.6-0.2-24.1-0.3-35.1,9.2c-8.4,7.3-6.2,43-4.5,46.5
									c1.7-0.4,4.2,0.6,4.2,0.6l1.3,8.4l1.6,0.6l0.6,0.2l-0.6-21.4l3.2-5.2c0,0-0.9-7.2,1.7-10.7c1.8-2.4,16.8-0.7,27.8-0.7
									c10.8,0,23.3-1.3,25.2,1.1c2.6,3.5,1.7,10.7,1.7,10.7l3.2,5.2l-0.6,21.4l2.2-0.9l1.3-8.4c0,0,2.5-1,4.2-0.6
									C175.8,109.6,177.8,73.3,169.4,66z"/>
							</g>
						</g>
						<g>
							<g>
								<path class="st4" d="M112.7,116.4c0,0,2.6-2.6,7.4-3.1c3.2-0.4,5.8,0.4,6.6,1.8c0.8,1.5-0.2,4.4-4.4,6.4
									C116.9,124,108.7,120.7,112.7,116.4z"/>
							</g>
							<g>
								<path class="st3" d="M126.9,113.9c-2.4-2.4-6.3-2-9.2-1.4c-2,0.4-5.3,2.1-6.3,4c-0.3,0.5,0.3,1.6,0.8,1.1
									c1.4-1.2,3.1-2,4.7-2.7c3.6-1.5,6.5-1,9.2,0.4C127,115.8,127.7,114.8,126.9,113.9z"/>
							</g>
							<g>
								<path class="st3" d="M122.7,116.5c0.3,2-1,3.8-2.9,4.1c-1.9,0.3-3.6-1.1-3.9-3.1s1-3.8,2.9-4.1
									C120.7,113.1,122.4,114.5,122.7,116.5z"/>
							</g>
							<g>
								<path class="st4" d="M120.7,116c0.1,0.9-0.5,1.7-1.3,1.9c-0.9,0.1-1.7-0.5-1.8-1.4c-0.1-0.9,0.5-1.7,1.3-1.9
									C119.7,114.5,120.6,115.1,120.7,116z"/>
							</g>
							<g>
								<path class="st3" d="M129.7,100.8c-4.2-0.4-7.7,0-12.7,0.8c-2.1,0.3-6.1,1.3-8.1,2.6c-1.1,0.8-0.3,3.5,2.2,2.7
									c6.7-2.3,14-2.2,18.4-2.5C131.5,104.2,131.7,101,129.7,100.8z"/>
							</g>
						</g>
						<g>
							<g>
								<path class="st4" d="M159,116.4c0,0-2.6-2.6-7.4-3.1c-3.2-0.4-5.8,0.4-6.6,1.8c-0.8,1.5,0.2,4.4,4.4,6.4
									C154.8,124,163,120.7,159,116.4z"/>
							</g>
							<g>
								<path class="st3" d="M144.8,113.9c2.4-2.4,6.3-2,9.2-1.4c2,0.4,5.3,2.1,6.3,4c0.3,0.5-0.3,1.6-0.8,1.1
									c-1.4-1.2-3.1-2-4.7-2.7c-3.6-1.5-6.5-1-9.2,0.4C144.7,115.8,143.9,114.8,144.8,113.9z"/>
							</g>
							<g>
								<path class="st3" d="M149,116.5c-0.3,2,1,3.8,2.9,4.1c1.9,0.3,3.6-1.1,3.9-3.1c0.3-2-1-3.8-2.9-4.1
									C151,113.1,149.2,114.5,149,116.5z"/>
							</g>
							<g>
								<path class="st4" d="M151,116c-0.1,0.9,0.5,1.7,1.3,1.9c0.9,0.1,1.7-0.5,1.8-1.4s-0.5-1.7-1.3-1.9
									C151.9,114.5,151.1,115.1,151,116z"/>
							</g>
							<g>
								<path class="st3" d="M142,100.8c4.2-0.4,7.7,0,12.7,0.8c2.1,0.3,6.1,1.3,8.1,2.6c1.1,0.8,0.3,3.5-2.2,2.7
									c-6.7-2.3-14-2.2-18.4-2.5C140.2,104.2,140,101,142,100.8z"/>
							</g>
						</g>
						<g>
							<path class="st2" d="M142.6,130.5c-0.3-3.2-2.9-8.7-3.3-10c-0.9-2.6-2.1-1.7-1.9,0.3c0.2,1.3,0.7,5,0.9,8.5
								c0.3,4-0.4,4.2-1.2,6.6c-0.4,1.5-0.1,2,1.5,1.4C142,136,142.9,133.7,142.6,130.5z"/>
						</g>
						<g>
							<path class="st2" d="M144.9,143.6c-2.8,0.2-5.8,0.4-8.6,0.4c-3.9,0-7.7-0.5-11.5-0.8c-0.6,0-0.8,0.8-0.3,1.1
								c2.9,2.2,8.4,2,11.9,2.1c3,0.1,6.4-0.2,9-1.3C147,144.4,146.5,143.5,144.9,143.6z"/>
						</g>
						<g>
							<path class="st2" d="M141.7,149.4c-1.9,0.4-4.8,0.4-6.3,0.4c-1.6,0-4.7-0.3-6.4-0.6c-0.7-0.2-0.8,0.3,0,0.9
								c1.4,1,4.6,1.5,6.6,1.5c2.3,0,4-0.4,6.1-1.2C142.9,150.1,143.3,149.1,141.7,149.4z"/>
						</g>
					</g>
				</g>
				<g id="XMLID_1_">
					<ellipse id="XMLID_5_" class="st5" cx="138.2" cy="7.5" rx="6.4" ry="6.5"/>
					<path id="XMLID_9_" class="st5" d="M165.2,30c-4.5-13.5-22.4-21.3-29-21.3s-24.5,7.8-29,21.3s-7.3,37.5-7.3,40.7
						s30.9,3.2,36.4,3.2s36.4,0,36.4-3.2C172.5,67.5,169.7,43.5,165.2,30z"/>
					<path id="XMLID_14_" class="st6" d="M171.8,59.9c-1.7,1.7-30.7,4.5-35.6,4.5s-33.9-2.7-35.6-4.5c-1.7-1.7-5.4,14-4.2,18.2
						c1.2,4.2,30.6,5.8,39.9,5.8s38.7-1.6,39.9-5.8C177.2,73.8,173.5,58.2,171.8,59.9z"/>
					<path id="XMLID_3_" class="st7" d="M165.5,31c-6.6,0.7-25.4,2.1-29.3,2.1c-4,0-22.7-1.4-29.3-2.1c-0.2,0.8-0.5,1.5-0.7,2.4
						c6,0.6,22.6,2.3,30,2.3s24.1-1.7,30-2.3C166,32.5,165.7,31.7,165.5,31z"/>
					<path id="XMLID_7_" class="st7" d="M168.1,41.3c-7.2,0.9-27.6,2.7-31.9,2.7s-24.7-1.8-31.9-2.7c-0.3,0.9-0.5,1.9-0.8,2.9
						c6.5,0.8,24.6,2.9,32.7,2.9s26.2-2.1,32.7-2.9C168.6,43.3,168.3,42.3,168.1,41.3z"/>
					<path id="XMLID_2_" class="st4" d="M170.6,54.9h-0.1c-5,0.6-29.5,2.3-34.4,2.3c-4.8,0-29.3-1.7-34.4-2.3h-0.1
						c-0.1,0.8-0.2,1.6-0.4,2.4c5,0.5,25.9,2.4,34.9,2.4s29.8-1.9,34.9-2.4C170.9,56.6,170.8,55.8,170.6,54.9z"/>
					<path id="XMLID_6_" class="st4" d="M167.1,36.9c-8.5,0.8-26.9,2.2-31,2.2s-22.5-1.4-31-2.2c-0.2,0.9-0.4,1.8-0.6,2.7
						c7.8,0.8,24,2.4,31.6,2.4s23.8-1.6,31.6-2.4C167.6,38.6,167.4,37.8,167.1,36.9z"/>
					<path id="XMLID_4_" class="st7" d="M169.8,49.6c-6.3,0.7-29,2.5-33.6,2.5c-4.6,0-27.3-1.8-33.6-2.5c-0.2,0.9-0.3,1.8-0.5,2.7
						c6.1,0.6,25.5,2.6,34.1,2.6s27.9-2,34.1-2.6C170.1,51.4,169.9,50.5,169.8,49.6z"/>
				</g>
			</g>
			<path class="st0" d="M90.8,523.3c0,0,3.6,35.3-1.7,42.6c-7.5,10.3-21.4,15.4-25.5,17.7c-2.6,1.5-4.9,3.4-2.5,6.4
				c-0.7,2.4-0.8,6.7,3.6,7.2c-0.7,2.6,0.8,4.7,4.7,4.7c0,2.2,2.2,5,5.3,4.2c14.5-4,19.5-13,25.5-17.7c6.9-5.5,16.6-7.5,15-18.9
				c-0.6-4.2,0.6-6.9,1.7-21.1c0.5-6.4,0.8-28.6-2.4-30.5C107,513.3,90.8,523.3,90.8,523.3z"/>
			<path class="st0" d="M181.7,524.1c0,0-3.6,35.3,1.7,42.6c7.5,10.3,21.4,15.4,25.5,17.7c2.6,1.5,4.9,3.4,2.5,6.4
				c0.7,2.4,0.8,6.7-3.6,7.2c0.6,2.6-0.8,4.7-4.7,4.7c0,2.2-2.2,5-5.3,4.2c-14.5-4-19.5-13-25.5-17.7c-6.9-5.5-16.6-7.5-15-18.9
				c0.6-4.2-0.6-6.9-1.7-21.1c-0.5-6.4-0.8-28.6,2.4-30.5C165.5,514.1,181.7,524.1,181.7,524.1z"/>
			<g>
				<g>
					<path class="st8" d="M191.4,538.5v0.6c2.5-0.2,4.7-0.4,6.9-0.6H191.4z"/>
				</g>
				<g>
					<path class="st8" d="M210.1,533.6h2.3c-0.4-3.9-0.9-8.5-1.3-13.8h-1V533.6z"/>
				</g>
				<g>
					<path class="st8" d="M186.5,538.5h-13.8v2c4.9-0.3,9.5-0.7,13.8-1V538.5z"/>
				</g>
				<g>
					<rect x="76.2" y="463.7" class="st8" width="13.8" height="13.8"/>
				</g>
				<g>
					<rect x="76.2" y="482.4" class="st8" width="13.8" height="13.8"/>
				</g>
				<g>
					<rect x="76.2" y="501.1" class="st8" width="13.8" height="13.8"/>
				</g>
				<g>
					<path class="st8" d="M210.6,514.9c-0.2-1.8-0.3-3.7-0.5-5.7v5.7H210.6z"/>
				</g>
				<g>
					<path class="st8" d="M167.8,538.5H154v3.1c4.7-0.3,9.3-0.5,13.8-0.8V538.5z"/>
				</g>
				<g>
					<path class="st8" d="M191.4,458.8h13.8v-2.2c-0.4-3.8-0.8-7.7-1.2-11.6h-12.6V458.8z"/>
				</g>
				<g>
					<path class="st8" d="M71.2,445h-2c-0.3,4.6-0.7,9.2-1,13.8h3V445z"/>
				</g>
				<g>
					<rect x="76.2" y="445" class="st8" width="13.8" height="13.8"/>
				</g>
				<g>
					<path class="st8" d="M193.2,366.6l-115.8-0.2c-0.6,3.6-1.3,8.2-2,13.6l120,0.1C194.8,375.5,194,371,193.2,366.6z"/>
				</g>
				<g>
					<path class="st8" d="M188.2,342c-2.3-10.1-8.6-20.2-8.9-34.9c0-2.4-22,2.2-32.7,4.6c-2.1-0.1-4.1-0.2-5.8-0.2
						c-3.7-0.1-6.1-0.2-6.1-0.2l-44.1-1.1c0,0-0.9,3.3-4.4,20.5c-1.5,7.4-4.5,15.8-7.3,28.4h112.9
						C190.7,353.1,189.5,347.4,188.2,342z"/>
				</g>
				<g>
					<path class="st8" d="M196.7,387.6l-122.1-0.2c-1.7,14.6-3.4,33.3-4.9,52.6h133.8C201.5,422.8,199.3,404.9,196.7,387.6z"/>
				</g>
				<g>
					<path class="st8" d="M71.2,482.4h-4.5c-0.3,4.7-0.5,9.4-0.8,13.8h5.3V482.4z"/>
				</g>
				<g>
					<path class="st8" d="M71.2,463.7h-3.3c-0.3,4.7-0.6,9.3-0.9,13.8h4.2C71.2,477.5,71.2,463.7,71.2,463.7z"/>
				</g>
				<g>
					<path class="st8" d="M127.4,538.5h-13.8v5.2c4.5-0.2,9.1-0.4,13.8-0.7V538.5z"/>
				</g>
				<g>
					<path class="st8" d="M149.1,538.5h-16.7v4.3c5.6-0.3,11.2-0.6,16.7-0.9V538.5z"/>
				</g>
				<g>
					<path class="st8" d="M108.7,538.5H94.9v6c4.3-0.2,9-0.4,13.8-0.6C108.7,543.9,108.7,538.5,108.7,538.5z"/>
				</g>
				<g>
					<path class="st8" d="M71.2,501.1h-5.5c-0.2,4.9-0.4,9.5-0.6,13.8h6.1V501.1z"/>
				</g>
				<g>
					<path class="st8" d="M71.2,519.8h-6.3c-0.1,3.4-0.2,6.5-0.2,9.3c0,1.6,0,3.1-0.1,4.5h6.6V519.8z"/>
				</g>
				<g>
					<path class="st8" d="M64.4,538.5c-0.3,4.7-0.6,7.2-0.6,7.2s2.7-0.1,7.4-0.3v-7L64.4,538.5L64.4,538.5z"/>
				</g>
				<g>
					<path class="st8" d="M90,538.5H76.2v6.8c3.9-0.2,8.6-0.3,13.8-0.6V538.5z"/>
				</g>
				<g>
					<rect x="76.2" y="519.8" class="st8" width="13.8" height="13.8"/>
				</g>
				<g>
					<rect x="154" y="445" class="st8" width="13.8" height="13.8"/>
				</g>
				<g>
					<rect x="154" y="463.7" class="st8" width="13.8" height="13.8"/>
				</g>
				<g>
					<rect x="172.7" y="519.8" class="st8" width="13.8" height="13.8"/>
				</g>
				<g>
					<rect x="154" y="482.4" class="st8" width="13.8" height="13.8"/>
				</g>
				<g>
					<rect x="154" y="519.8" class="st8" width="13.8" height="13.8"/>
				</g>
				<g>
					<rect x="172.7" y="501.1" class="st8" width="13.8" height="13.8"/>
				</g>
				<g>
					<rect x="154" y="501.1" class="st8" width="13.8" height="13.8"/>
				</g>
				<g>
					<rect x="172.7" y="463.7" class="st8" width="13.8" height="13.8"/>
				</g>
				<g>
					<rect x="191.4" y="501.1" class="st8" width="13.8" height="13.8"/>
				</g>
				<g>
					<rect x="191.4" y="519.8" class="st8" width="13.8" height="13.8"/>
				</g>
				<g>
					<rect x="191.4" y="482.4" class="st8" width="13.8" height="13.8"/>
				</g>
				<g>
					<rect x="172.7" y="482.4" class="st8" width="13.8" height="13.8"/>
				</g>
				<g>
					<rect x="191.4" y="463.7" class="st8" width="13.8" height="13.8"/>
				</g>
				<g>
					<rect x="132.3" y="445" class="st8" width="16.7" height="13.8"/>
				</g>
				<g>
					<rect x="172.7" y="445" class="st8" width="13.8" height="13.8"/>
				</g>
				<g>
					<rect x="113.6" y="519.8" class="st8" width="13.8" height="13.8"/>
				</g>
				<g>
					<rect x="94.9" y="519.8" class="st8" width="13.8" height="13.8"/>
				</g>
				<g>
					<rect x="113.6" y="501.1" class="st8" width="13.8" height="13.8"/>
				</g>
				<g>
					<rect x="94.9" y="445" class="st8" width="13.8" height="13.8"/>
				</g>
				<g>
					<rect x="132.3" y="463.7" class="st8" width="16.7" height="13.8"/>
				</g>
				<g>
					<rect x="94.9" y="482.4" class="st8" width="13.8" height="13.8"/>
				</g>
				<g>
					<rect x="94.9" y="463.7" class="st8" width="13.8" height="13.8"/>
				</g>
				<g>
					<rect x="94.9" y="501.1" class="st8" width="13.8" height="13.8"/>
				</g>
				<g>
					<rect x="113.6" y="482.4" class="st8" width="13.8" height="13.8"/>
				</g>
				<g>
					<rect x="132.3" y="501.1" class="st8" width="16.7" height="13.8"/>
				</g>
				<g>
					<rect x="132.3" y="482.4" class="st8" width="16.7" height="13.8"/>
				</g>
				<g>
					<rect x="132.3" y="519.8" class="st8" width="16.7" height="13.8"/>
				</g>
				<g>
					<rect x="113.6" y="445" class="st8" width="13.8" height="13.8"/>
				</g>
				<g>
					<rect x="113.6" y="463.7" class="st8" width="13.8" height="13.8"/>
				</g>
				<g>
					<path class="st8" d="M195.5,380.1l-120-0.1c-0.3,2.3-0.6,4.8-0.9,7.4l122.1,0.2C196.3,385.1,195.9,382.6,195.5,380.1z"/>
				</g>
				<g>
					<path class="st4" d="M191.8,359H78.9c-0.5,2.1-0.9,4.2-1.3,6.5c-0.1,0.3-0.1,0.6-0.2,0.9l115.8,0.2
						C192.8,364,192.3,361.5,191.8,359z"/>
				</g>
				<g>
					<path class="st9" d="M205.2,458.8h-13.8V445H204c-0.2-1.6-0.4-3.3-0.5-4.9H69.7c-0.1,1.6-0.3,3.3-0.4,4.9h2v13.8h-3
						c-0.1,1.6-0.2,3.3-0.3,4.9h3.3v13.8H67c-0.1,1.7-0.2,3.3-0.3,4.9h4.5v13.8H66c-0.1,1.7-0.2,3.3-0.3,4.9h5.5v13.8h-6.1
						c-0.1,1.7-0.1,3.3-0.2,4.9h6.3v13.8h-6.6c-0.1,1.8-0.1,3.5-0.2,4.9h6.8v7c1.5-0.1,3.1-0.1,4.9-0.2v-6.8H90v6.2
						c1.6-0.1,3.2-0.1,4.9-0.2v-6h13.8v5.4c1.6-0.1,3.3-0.1,4.9-0.2v-5.2h13.8v4.5c1.6-0.1,3.3-0.2,4.9-0.2v-4.3H149v3.4
						c1.7-0.1,3.3-0.2,4.9-0.3v-3.1h13.8v2.3c1.7-0.1,3.3-0.2,4.9-0.3v-2h13.8v1c1.7-0.1,3.3-0.3,4.9-0.4v-0.6h6.9
						c8.1-0.8,13.4-1.6,14.4-2.4c-0.1-0.8-0.2-1.7-0.3-2.5H210v-13.8h1c-0.1-1.6-0.3-3.2-0.4-4.9h-0.5v-5.7
						c-1.3-14.9-2.9-33.1-4.9-52.7L205.2,458.8L205.2,458.8z M90,533.6H76.2v-13.8H90V533.6z M90,514.9H76.2v-13.8H90V514.9z
						 M90,496.2H76.2v-13.8H90V496.2z M90,477.5H76.2v-13.8H90V477.5z M90,458.8H76.2V445H90V458.8z M108.7,533.6H94.9v-13.8h13.8
						C108.7,519.8,108.7,533.6,108.7,533.6z M108.7,514.9H94.9v-13.8h13.8C108.7,501.1,108.7,514.9,108.7,514.9z M108.7,496.2H94.9
						v-13.8h13.8C108.7,482.4,108.7,496.2,108.7,496.2z M108.7,477.5H94.9v-13.8h13.8C108.7,463.7,108.7,477.5,108.7,477.5z
						 M108.7,458.8H94.9V445h13.8C108.7,445,108.7,458.8,108.7,458.8z M127.4,533.6h-13.8v-13.8h13.8V533.6z M127.4,514.9h-13.8
						v-13.8h13.8V514.9z M127.4,496.2h-13.8v-13.8h13.8V496.2z M127.4,477.5h-13.8v-13.8h13.8V477.5z M127.4,458.8h-13.8V445h13.8
						V458.8z M149.1,533.6h-16.7v-13.8h16.7V533.6z M149.1,514.9h-16.7v-13.8h16.7V514.9z M149.1,496.2h-16.7v-13.8h16.7V496.2z
						 M149.1,477.5h-16.7v-13.8h16.7V477.5z M149.1,458.8h-16.7V445h16.7V458.8z M167.8,533.6H154v-13.8h13.8V533.6z M167.8,514.9
						H154v-13.8h13.8V514.9z M167.8,496.2H154v-13.8h13.8V496.2z M167.8,477.5H154v-13.8h13.8V477.5z M167.8,458.8H154V445h13.8
						V458.8z M186.5,533.6h-13.8v-13.8h13.8V533.6z M186.5,514.9h-13.8v-13.8h13.8V514.9z M186.5,496.2h-13.8v-13.8h13.8V496.2z
						 M186.5,477.5h-13.8v-13.8h13.8V477.5z M186.5,458.8h-13.8V445h13.8V458.8z M205.2,533.6h-13.8v-13.8h13.8V533.6z M205.2,514.9
						h-13.8v-13.8h13.8V514.9z M205.2,496.2h-13.8v-13.8h13.8V496.2z M205.2,477.5h-13.8v-13.8h13.8V477.5z"/>
				</g>
			</g>
			<g>
				<polygon class="st9" points="180.5,316.7 179.6,282.4 91.3,282.4 89.6,316.7 				"/>
			</g>
			<g>
				<g>
					<path class="st10" d="M39.8,372.6c-0.8,0-1.5-0.5-1.6-1.3c-0.2-0.9,0.4-1.8,1.3-2l23.3-5c0.9-0.2,1.8,0.4,2,1.3
						c0.2,0.9-0.4,1.8-1.3,2l-23.3,5C40,372.6,39.9,372.6,39.8,372.6z"/>
				</g>
			</g>
		</g>
		<path class="st11" d="M214.3,323.7c16.3-8.8,22.2-9.1,29.1-24.9c4.8-11.1,13.8-20.4,12.2-24.3c-9.6-23.6-33.8-43.5-38.8-61.3
			c-10.5-37.6-30.6-29.8-49.9-35.9c-2.1-0.7-3.7-2.2-5-4.1c-0.4-0.6-1.2-0.9-1.9-0.6c-4,1.5-9.8,3.3-17,4.7
			c-10.8,2.1-23.3-3.6-29.4-6.9c-0.8-0.5-1.9-0.1-2.3,0.8c-1.4,2.9-3.3,5.3-6.2,6.2c-19.3,6.1-39.4-1.8-49.9,35.9
			c-5,17.8-17.7,41.7-23.6,66.5c-4.4,18.4,4,56.6,5.9,63.3c1.6,5.6,22.4,22.5,22,7.6c-0.6-20.6,1.4-45.6,1.1-58.2
			c0-0.2,0-0.4,0.1-0.6c6.4-17.8,16-35.3,20.7-47.9c0.6-1.6,2.9-1.4,3.2,0.3c1.8,9.5,3.1,16.3,4.9,24.1c2.6,11.2,0.6,43.3,0.5,45.5
			c0,0.1,0,0.1,0,0.2c-0.5,2.1-8,33.2-10.5,43.7c-5.7,24-7.3,55.1-7.3,55.1l5.7-30.2c0.3-1.7,2.7-1.8,3.2-0.2l8.8,30.2
			c0.2,0.7,0.9,1.2,1.6,1.2h88c0.8,0,1.4-0.5,1.6-1.3l7.4-30.8c0.4-1.7,2.8-1.7,3.2,0l2.3,8.6c0.5,2,3.6,1.4,3.3-0.7
			c-2.2-15.1-5.2-33.2-7.3-42c-1.7-7.2-8.6-28.3-9.3-30.6c0-0.1-0.1-0.3-0.1-0.4c-0.1-3-1.7-36.3,1.6-47.2
			c2.7-8.9,5.1-13.4,6.1-22.7c0.2-1.7,2.6-2,3.2-0.4c6.2,15.8,17.5,25.1,26.4,31.8c0.6,0.4,0.8,1.2,0.6,1.9
			c-5.4,14.3-19.7,24.4-23.5,28.2"/>
		<g>
			<g>
				<path class="st8" d="M162,196.4c0,1.8-1.4,3.2-3.2,3.2s-3.2-1.4-3.2-3.2s1.4-3.2,3.2-3.2C160.6,193.1,162,194.6,162,196.4z"/>
			</g>
			<g>
				<path class="st8" d="M170,186.4c0,1.8-1.4,3.2-3.2,3.2s-3.2-1.4-3.2-3.2s1.4-3.2,3.2-3.2S170,184.6,170,186.4z"/>
			</g>
			<g>
				<path class="st8" d="M115.6,196.9c0,1.8-1.4,3.2-3.2,3.2c-1.8,0-3.2-1.4-3.2-3.2s1.4-3.2,3.2-3.2S115.6,195.1,115.6,196.9z"/>
			</g>
			<g>
				<path class="st8" d="M105.8,180.9c0,1.8-1.4,3.2-3.2,3.2c-1.8,0-3.2-1.4-3.2-3.2s1.4-3.2,3.2-3.2S105.8,179.1,105.8,180.9z"/>
			</g>
			<g>
				<path class="st8" d="M137.9,206c0,1.1-0.9,2-2,2s-2-0.9-2-2s0.9-2,2-2S137.9,204.9,137.9,206z"/>
			</g>
			<g>
				<path class="st8" d="M119.7,200.4c0,1.1-0.9,2-2,2s-2-0.9-2-2s0.9-2,2-2C118.8,198.4,119.7,199.3,119.7,200.4z"/>
			</g>
			<g>
				<path class="st8" d="M110.7,191.2c0,1.1-0.9,2-2,2s-2-0.9-2-2s0.9-2,2-2S110.7,190.1,110.7,191.2z"/>
			</g>
			<g>
				<path class="st4" d="M102.1,176.8"/>
			</g>
			<g>
				<path class="st8" d="M124.3,203.3c0,1.1-0.9,2-2,2s-2-0.9-2-2s0.9-2,2-2C123.5,201.3,124.3,202.2,124.3,203.3z"/>
			</g>
			<g>
				<ellipse class="st8" cx="153.1" cy="200.1" rx="2" ry="2"/>
			</g>
			<g>
				<path class="st8" d="M165.3,191.5c0,1.1-0.9,2-2,2s-2-0.9-2-2s0.9-2,2-2C164.4,189.5,165.3,190.4,165.3,191.5z"/>
			</g>
			<g>
				<path class="st8" d="M171.3,179.6c0,1.1-0.9,2-2,2s-2-0.9-2-2s0.9-2,2-2C170.4,177.6,171.3,178.5,171.3,179.6z"/>
			</g>
			<g>
				<path class="st8" d="M143.4,205.1c0,1.1-0.9,2-2,2s-2-0.9-2-2s0.9-2,2-2S143.4,204,143.4,205.1z"/>
			</g>
			<g>
				<path class="st8" d="M108.2,186.4c0,1.1-0.9,2-2,2s-2-0.9-2-2s0.9-2,2-2S108.2,185.3,108.2,186.4z"/>
			</g>
			<g>
				<path class="st8" d="M131.8,206c0,1.8-1.4,3.2-3.2,3.2s-3.2-1.4-3.2-3.2s1.4-3.2,3.2-3.2C130.3,202.8,131.8,204.2,131.8,206z"/>
			</g>
			<g>
				<path class="st8" d="M150.5,203.5c0,1.8-1.4,3.2-3.2,3.2s-3.2-1.4-3.2-3.2s1.4-3.2,3.2-3.2C149,200.3,150.5,201.7,150.5,203.5z"
					/>
			</g>
		</g>
		<path class="st12" d="M138.6,177.6c0,130.5-4.5,232.3-7.8,235.4"/>
	</g>
</g>
</svg>
