<?xml version="1.0" encoding="utf-8"?>
<!-- Generator: Adobe Illustrator 23.0.0, SVG Export Plug-In . SVG Version: 6.00 Build 0)  -->
<svg version="1.1" id="Layer_1" xmlns="http://www.w3.org/2000/svg" xmlns:xlink="http://www.w3.org/1999/xlink" x="0px" y="0px"
	 viewBox="0 0 737.1 640" style="enable-background:new 0 0 737.1 640;" xml:space="preserve">
<style type="text/css">
	.st0{fill:#636464;}
	.st1{font-family:'Poppins-Light';}
	.st2{font-size:20.6729px;}
	.st3{fill:none;stroke:#5E5E5E;stroke-miterlimit:10;}
	.st4{fill:none;stroke:#515251;stroke-miterlimit:10;}
	.st5{fill:none;stroke:#515251;stroke-miterlimit:10;stroke-dasharray:3.9866,3.9866;}
	.st6{fill:none;stroke:#000000;stroke-miterlimit:10;}
	.st7{fill:#A7A9AC;}
	.st8{fill:#FFDE17;}
	.st9{font-family:'Poppins-Regular';}
	.st10{fill:#6D6E71;}
	.st11{font-size:29.9534px;}
	.st12{font-size:26.5488px;}
	.st13{font-size:8.4274px;}
	.st14{font-family:'Poppins-Bold';}
	.st15{font-size:26.8559px;}
	.st16{font-family:'Poppins-Medium';}
	.st17{font-size:83.0945px;}
	.st18{clip-path:url(#SVGID_2_);}
	.st19{fill:none;stroke:#FFFFFF;stroke-width:1.5;stroke-miterlimit:10;}
	.st20{clip-path:url(#SVGID_4_);}
</style>
<g id="graph">
	<g>
		<g>
			<g>
				<text transform="matrix(1.0326 0 0 1 207.3496 542.1133)" class="st0 st1 st2">0%</text>
				<text transform="matrix(1.0326 0 0 1 280.3804 542.1133)" class="st0 st1 st2">10%</text>
				<text transform="matrix(1.0326 0 0 1 353.1021 542.1133)" class="st0 st1 st2">20%</text>
				<text transform="matrix(1.0326 0 0 1 428.8115 542.1133)" class="st0 st1 st2">30%</text>
				<text transform="matrix(1.0326 0 0 1 504.4775 542.1133)" class="st0 st1 st2">40%</text>
				<text transform="matrix(1.0326 0 0 1 580.3574 542.1133)" class="st0 st1 st2">50%</text>
				<text transform="matrix(1.0326 0 0 1 656.1528 542.1133)" class="st0 st1 st2">60%</text>
			</g>
			<line class="st3" x1="213.8" y1="520.5" x2="669.2" y2="520.5"/>
			<g>
				<g>
					<line class="st3" x1="213.8" y1="520.5" x2="213.8" y2="510.7"/>
					<g>
						<g>
							<line class="st4" x1="289.7" y1="520.5" x2="289.7" y2="518.5"/>
							<line class="st5" x1="289.7" y1="514.5" x2="289.7" y2="133.8"/>
							<line class="st4" x1="289.7" y1="131.8" x2="289.7" y2="129.8"/>
						</g>
					</g>
					<g>
						<g>
							<line class="st4" x1="365.6" y1="520.5" x2="365.6" y2="518.5"/>
							<line class="st5" x1="365.6" y1="514.5" x2="365.6" y2="133.8"/>
							<line class="st4" x1="365.6" y1="131.8" x2="365.6" y2="129.8"/>
						</g>
					</g>
					<g>
						<g>
							<line class="st4" x1="441.5" y1="520.5" x2="441.5" y2="518.5"/>
							<line class="st5" x1="441.5" y1="514.5" x2="441.5" y2="133.8"/>
							<line class="st4" x1="441.5" y1="131.8" x2="441.5" y2="129.8"/>
						</g>
					</g>
					<g>
						<g>
							<line class="st4" x1="517.4" y1="520.5" x2="517.4" y2="518.5"/>
							<line class="st5" x1="517.4" y1="514.5" x2="517.4" y2="133.8"/>
							<line class="st4" x1="517.4" y1="131.8" x2="517.4" y2="129.8"/>
						</g>
					</g>
					<g>
						<g>
							<line class="st4" x1="593.3" y1="520.5" x2="593.3" y2="518.5"/>
							<line class="st5" x1="593.3" y1="514.5" x2="593.3" y2="133.8"/>
							<line class="st4" x1="593.3" y1="131.8" x2="593.3" y2="129.8"/>
						</g>
					</g>
					<g>
						<g>
							<line class="st4" x1="669.2" y1="520.5" x2="669.2" y2="518.5"/>
							<line class="st5" x1="669.2" y1="514.5" x2="669.2" y2="133.8"/>
							<line class="st4" x1="669.2" y1="131.8" x2="669.2" y2="129.8"/>
						</g>
					</g>
				</g>
			</g>
		</g>
		<g>
			<line class="st4" x1="213.8" y1="520.5" x2="213.8" y2="129.2"/>
			<g>
				<g>
					<line class="st6" x1="213.8" y1="471.6" x2="225.2" y2="471.6"/>
					<line class="st6" x1="213.8" y1="373.7" x2="225.2" y2="373.7"/>
					<line class="st6" x1="213.8" y1="275.9" x2="225.2" y2="275.9"/>
					<line class="st6" x1="213.8" y1="178.1" x2="225.2" y2="178.1"/>
				</g>
			</g>
		</g>
		<g>
			<g>
				<g>
					<rect x="213.8" y="149.5" class="st7" width="447.1" height="54.5"/>
					<rect x="213.8" y="242.2" class="st8" width="445.5" height="54.5"/>
					<rect x="213.8" y="335.4" class="st7" width="242.9" height="54.5"/>
					<rect x="213.8" y="429.5" class="st8" width="233.8" height="54.5"/>
				</g>
			</g>
		</g>
		<g>
			<text transform="matrix(1.0326 0 0 1 8.3784 466.6875)" class="st8 st9 st2">CPC PVT Estimate</text>
			<text transform="matrix(1.0326 0 0 1 0.8433 374.1201)" class="st7 st9 st2">CPC Official Result</text>
			<text transform="matrix(1.0326 0 0 1 13.4585 279.4453)" class="st8 st9 st2">PDP PVT Estimate</text>
			<text transform="matrix(1.0326 0 0 1 5.9233 181.6113)" class="st7 st9 st2">PDP Official Result</text>
		</g>
	</g>
</g>
<g id="labels">
	<text transform="matrix(1.0326 0 0 1 237.0996 185.6133)" class="st10 st1 st11">58.9%</text>
	<g>
		<text transform="matrix(1.0326 0 0 1 237.0996 277.2568)" class="st10 st1 st11">58.7%</text>
	</g>
	<g>
		<text transform="matrix(1.0326 0 0 1 237.0996 374.8672)" class="st10 st1 st11">32.0%</text>
	</g>
	<g>
		<text transform="matrix(1.0326 0 0 1 237.0996 468.0908)" class="st10 st1 st11">30.8%</text>
	</g>
	<text transform="matrix(1.0326 0 0 1 207.3496 587.6006)" class="st0 st1 st12">Percent of National Votes</text>
	<text transform="matrix(1.0326 0 0 1 466.6587 404.9668)" class="st0 st1 st13">Margin of Error:</text>
	<text transform="matrix(1.0326 0 0 1 466.6587 415.0669)" class="st0 st1 st13">+/- 1.2%</text>
	<text transform="matrix(1.0326 0 0 1 672.4634 214.5977)" class="st0 st1 st13">Margin of Error:</text>
	<text transform="matrix(1.0326 0 0 1 672.4634 224.6978)" class="st0 st1 st13">+/- 1.2%</text>
	<text transform="matrix(1.0326 0 0 1 220.6118 53.4951)" class="st7 st14 st15">Presidential Election</text>
	<text transform="matrix(1.0326 0 0 1 220.6118 85.6953)" class="st8 st16 st15">Official INEC Result and PVT Estimate</text>
	<text transform="matrix(1.0326 0 0 1 44.5239 88.2529)" class="st8 st14 st17">2011</text>
</g>
<g id="margins">
	<g>
		<g>
			<defs>
				<rect id="SVGID_1_" x="649.2" y="140.7" width="16.4" height="167.1"/>
			</defs>
			<clipPath id="SVGID_2_">
				<use xlink:href="#SVGID_1_"  style="overflow:visible;"/>
			</clipPath>
			<g class="st18">
				<line class="st19" x1="613.5" y1="153" x2="708.6" y2="73"/>
				<line class="st19" x1="613.5" y1="157.6" x2="708.6" y2="77.6"/>
				<line class="st19" x1="613.5" y1="166.9" x2="708.6" y2="86.9"/>
				<line class="st19" x1="613.5" y1="148.3" x2="708.6" y2="68.4"/>
				<line class="st19" x1="613.5" y1="185.4" x2="708.6" y2="105.4"/>
				<line class="st19" x1="613.5" y1="162.2" x2="708.6" y2="82.3"/>
				<line class="st19" x1="613.5" y1="180.8" x2="708.6" y2="100.8"/>
				<line class="st19" x1="613.5" y1="199.3" x2="708.6" y2="119.4"/>
				<line class="st19" x1="613.5" y1="241.1" x2="708.6" y2="161.1"/>
				<line class="st19" x1="613.5" y1="171.5" x2="708.6" y2="91.5"/>
				<line class="st19" x1="613.5" y1="190.1" x2="708.6" y2="110.1"/>
				<line class="st19" x1="613.5" y1="231.8" x2="708.6" y2="151.8"/>
				<line class="st19" x1="613.5" y1="176.1" x2="708.6" y2="96.2"/>
				<line class="st19" x1="613.5" y1="278.2" x2="708.6" y2="198.2"/>
				<line class="st19" x1="613.5" y1="222.5" x2="708.6" y2="142.5"/>
				<line class="st19" x1="613.5" y1="259.6" x2="708.6" y2="179.6"/>
				<line class="st19" x1="613.5" y1="296.7" x2="708.6" y2="216.7"/>
				<line class="st19" x1="613.5" y1="329.2" x2="708.6" y2="249.2"/>
				<line class="st19" x1="613.5" y1="208.6" x2="708.6" y2="128.6"/>
				<line class="st19" x1="613.5" y1="250.3" x2="708.6" y2="170.4"/>
				<line class="st19" x1="613.5" y1="287.4" x2="708.6" y2="207.5"/>
				<line class="st19" x1="613.5" y1="217.9" x2="708.6" y2="137.9"/>
				<line class="st19" x1="613.5" y1="324.5" x2="708.6" y2="244.6"/>
				<line class="st19" x1="613.5" y1="268.9" x2="708.6" y2="188.9"/>
				<line class="st19" x1="613.5" y1="319.9" x2="708.6" y2="239.9"/>
				<line class="st19" x1="613.5" y1="338.4" x2="708.6" y2="258.5"/>
				<line class="st19" x1="613.5" y1="352.3" x2="708.6" y2="272.4"/>
				<line class="st19" x1="613.5" y1="306" x2="708.6" y2="226"/>
				<line class="st19" x1="613.5" y1="333.8" x2="708.6" y2="253.8"/>
				<line class="st19" x1="613.5" y1="347.7" x2="708.6" y2="267.7"/>
				<line class="st19" x1="613.5" y1="315.2" x2="708.6" y2="235.3"/>
				<line class="st19" x1="613.5" y1="361.6" x2="708.6" y2="281.6"/>
				<line class="st19" x1="613.5" y1="343.1" x2="708.6" y2="263.1"/>
				<line class="st19" x1="613.5" y1="357" x2="708.6" y2="277"/>
				<line class="st19" x1="613.5" y1="366.3" x2="708.6" y2="286.3"/>
				<line class="st19" x1="613.5" y1="370.9" x2="708.6" y2="290.9"/>
				<line class="st19" x1="613.5" y1="227.1" x2="708.6" y2="147.2"/>
				<line class="st19" x1="613.5" y1="213.2" x2="708.6" y2="133.3"/>
				<line class="st19" x1="613.5" y1="245.7" x2="708.6" y2="165.7"/>
				<line class="st19" x1="613.5" y1="273.5" x2="708.6" y2="193.5"/>
				<line class="st19" x1="613.5" y1="194.7" x2="708.6" y2="114.7"/>
				<line class="st19" x1="613.5" y1="236.4" x2="708.6" y2="156.5"/>
				<line class="st19" x1="613.5" y1="264.2" x2="708.6" y2="184.3"/>
				<line class="st19" x1="613.5" y1="204" x2="708.6" y2="124"/>
				<line class="st19" x1="613.5" y1="292.1" x2="708.6" y2="212.1"/>
				<line class="st19" x1="613.5" y1="255" x2="708.6" y2="175"/>
				<line class="st19" x1="613.5" y1="282.8" x2="708.6" y2="202.8"/>
				<line class="st19" x1="613.5" y1="301.3" x2="708.6" y2="221.4"/>
				<line class="st19" x1="613.5" y1="310.6" x2="708.6" y2="230.6"/>
			</g>
		</g>
	</g>
	<g>
		<g>
			<defs>
				<rect id="SVGID_3_" x="445.7" y="324.8" width="16.4" height="167.1"/>
			</defs>
			<clipPath id="SVGID_4_">
				<use xlink:href="#SVGID_3_"  style="overflow:visible;"/>
			</clipPath>
			<g class="st20">
				<line class="st19" x1="409.9" y1="337.1" x2="505.1" y2="257.1"/>
				<line class="st19" x1="409.9" y1="341.7" x2="505.1" y2="261.8"/>
				<line class="st19" x1="409.9" y1="351" x2="505.1" y2="271"/>
				<line class="st19" x1="409.9" y1="332.5" x2="505.1" y2="252.5"/>
				<line class="st19" x1="409.9" y1="369.6" x2="505.1" y2="289.6"/>
				<line class="st19" x1="409.9" y1="346.4" x2="505.1" y2="266.4"/>
				<line class="st19" x1="409.9" y1="364.9" x2="505.1" y2="285"/>
				<line class="st19" x1="409.9" y1="383.5" x2="505.1" y2="303.5"/>
				<line class="st19" x1="409.9" y1="425.2" x2="505.1" y2="345.2"/>
				<line class="st19" x1="409.9" y1="355.7" x2="505.1" y2="275.7"/>
				<line class="st19" x1="409.9" y1="374.2" x2="505.1" y2="294.2"/>
				<line class="st19" x1="409.9" y1="415.9" x2="505.1" y2="336"/>
				<line class="st19" x1="409.9" y1="360.3" x2="505.1" y2="280.3"/>
				<line class="st19" x1="409.9" y1="462.3" x2="505.1" y2="382.3"/>
				<line class="st19" x1="409.9" y1="406.7" x2="505.1" y2="326.7"/>
				<line class="st19" x1="409.9" y1="443.8" x2="505.1" y2="363.8"/>
				<line class="st19" x1="409.9" y1="480.8" x2="505.1" y2="400.9"/>
				<line class="st19" x1="409.9" y1="513.3" x2="505.1" y2="433.3"/>
				<line class="st19" x1="409.9" y1="392.7" x2="505.1" y2="312.8"/>
				<line class="st19" x1="409.9" y1="434.5" x2="505.1" y2="354.5"/>
				<line class="st19" x1="409.9" y1="471.6" x2="505.1" y2="391.6"/>
				<line class="st19" x1="409.9" y1="402" x2="505.1" y2="322.1"/>
				<line class="st19" x1="409.9" y1="508.7" x2="505.1" y2="428.7"/>
				<line class="st19" x1="409.9" y1="453" x2="505.1" y2="373.1"/>
				<line class="st19" x1="409.9" y1="504" x2="505.1" y2="424.1"/>
				<line class="st19" x1="409.9" y1="522.6" x2="505.1" y2="442.6"/>
				<line class="st19" x1="409.9" y1="536.5" x2="505.1" y2="456.5"/>
				<line class="st19" x1="409.9" y1="490.1" x2="505.1" y2="410.1"/>
				<line class="st19" x1="409.9" y1="517.9" x2="505.1" y2="438"/>
				<line class="st19" x1="409.9" y1="531.9" x2="505.1" y2="451.9"/>
				<line class="st19" x1="409.9" y1="499.4" x2="505.1" y2="419.4"/>
				<line class="st19" x1="409.9" y1="545.8" x2="505.1" y2="465.8"/>
				<line class="st19" x1="409.9" y1="527.2" x2="505.1" y2="447.2"/>
				<line class="st19" x1="409.9" y1="541.1" x2="505.1" y2="461.2"/>
				<line class="st19" x1="409.9" y1="550.4" x2="505.1" y2="470.4"/>
				<line class="st19" x1="409.9" y1="555" x2="505.1" y2="475.1"/>
				<line class="st19" x1="409.9" y1="411.3" x2="505.1" y2="331.3"/>
				<line class="st19" x1="409.9" y1="397.4" x2="505.1" y2="317.4"/>
				<line class="st19" x1="409.9" y1="429.8" x2="505.1" y2="349.9"/>
				<line class="st19" x1="409.9" y1="457.7" x2="505.1" y2="377.7"/>
				<line class="st19" x1="409.9" y1="378.8" x2="505.1" y2="298.9"/>
				<line class="st19" x1="409.9" y1="420.6" x2="505.1" y2="340.6"/>
				<line class="st19" x1="409.9" y1="448.4" x2="505.1" y2="368.4"/>
				<line class="st19" x1="409.9" y1="388.1" x2="505.1" y2="308.1"/>
				<line class="st19" x1="409.9" y1="476.2" x2="505.1" y2="396.2"/>
				<line class="st19" x1="409.9" y1="439.1" x2="505.1" y2="359.1"/>
				<line class="st19" x1="409.9" y1="466.9" x2="505.1" y2="387"/>
				<line class="st19" x1="409.9" y1="485.5" x2="505.1" y2="405.5"/>
				<line class="st19" x1="409.9" y1="494.8" x2="505.1" y2="414.8"/>
			</g>
		</g>
	</g>
</g>
</svg>
