<?xml version="1.0" encoding="utf-8"?>
<!-- Generator: Adobe Illustrator 23.0.0, SVG Export Plug-In . SVG Version: 6.00 Build 0)  -->
<svg version="1.1" xmlns="http://www.w3.org/2000/svg" xmlns:xlink="http://www.w3.org/1999/xlink" x="0px" y="0px"
	 viewBox="0 0 737.1 640" style="enable-background:new 0 0 737.1 640;" xml:space="preserve">
<style type="text/css">
	.st0{fill:#EDECED;}
	.st1{fill:#A6A8AB;}
	.st2{font-family:'Poppins-Bold';}
	.st3{font-size:26.8559px;}
	.st4{fill:#0C677F;}
	.st5{font-family:'Poppins-Medium';}
	.st6{font-size:83.0945px;}
	.st7{fill:#636464;}
	.st8{font-family:'Poppins-Light';}
	.st9{font-size:21.4265px;}
	.st10{fill:none;stroke:#5E5E5E;stroke-miterlimit:10;}
	.st11{fill:none;stroke:#515252;stroke-miterlimit:10;stroke-dasharray:4;}
	.st12{fill:none;stroke:#515252;stroke-miterlimit:10;}
	.st13{fill:none;stroke:#515252;stroke-miterlimit:10;stroke-dasharray:3.9805,3.9805;}
	.st14{fill:none;stroke:#000000;stroke-miterlimit:10;}
	.st15{fill:#BBBDBF;}
	.st16{font-family:'Poppins-Regular';}
	.st17{fill:#6D6E70;}
	.st18{font-size:33.3699px;}
	.st19{fill:#FFFFFF;}
	.st20{font-size:29.5769px;}
	.st21{font-size:9.3886px;}
	.st22{clip-path:url(#SVGID_2_);}
	.st23{fill:none;stroke:#7F7F7F;stroke-width:1.5;stroke-miterlimit:10;}
	.st24{clip-path:url(#SVGID_4_);}
</style>
<g id="graph">
</g>
<g id="labels">
	<rect x="-3.8" y="-12.2" class="st0" width="744.6" height="664.4"/>
	<text transform="matrix(1.0326 0 0 1 213.0329 60.1475)"><tspan x="0" y="0" class="st1 st2 st3">Presidential Election</tspan><tspan x="0" y="32.2" class="st4 st5 st3">Official INEC Result and PVT Estimate</tspan></text>
	<text transform="matrix(1.0326 0 0 1 16.945 94.9053)" class="st4 st2 st6">2015</text>
	<g>
		<g>
			<g>
				<text transform="matrix(1 0 0 1 211.65 557.6538)" class="st7 st8 st9">0%</text>
				<text transform="matrix(1 0 0 1 284.9512 557.6538)" class="st7 st8 st9">10%</text>
				<text transform="matrix(1 0 0 1 357.942 557.6538)" class="st7 st8 st9">20%</text>
				<text transform="matrix(1 0 0 1 433.9327 557.6538)" class="st7 st8 st9">30%</text>
				<text transform="matrix(1 0 0 1 509.8795 557.6538)" class="st7 st8 st9">40%</text>
				<text transform="matrix(1 0 0 1 586.0406 557.6538)" class="st7 st8 st9">50%</text>
				<text transform="matrix(1 0 0 1 662.1172 557.6538)" class="st7 st8 st9">60%</text>
			</g>
			<line class="st10" x1="224.8" y1="535.2" x2="681.9" y2="535.2"/>
			<g>
				<g>
					<line class="st11" x1="224.8" y1="140.4" x2="224.8" y2="130.3"/>
					<g>
						<g>
							<line class="st12" x1="301" y1="535.2" x2="301" y2="533.2"/>
							<line class="st13" x1="301" y1="529.3" x2="301" y2="133.2"/>
							<line class="st12" x1="301" y1="131.2" x2="301" y2="129.2"/>
						</g>
					</g>
					<g>
						<g>
							<line class="st12" x1="377.2" y1="535.2" x2="377.2" y2="533.2"/>
							<line class="st13" x1="377.2" y1="529.3" x2="377.2" y2="133.2"/>
							<line class="st12" x1="377.2" y1="131.2" x2="377.2" y2="129.2"/>
						</g>
					</g>
					<g>
						<g>
							<line class="st12" x1="453.4" y1="535.2" x2="453.4" y2="533.2"/>
							<line class="st13" x1="453.4" y1="529.3" x2="453.4" y2="133.2"/>
							<line class="st12" x1="453.4" y1="131.2" x2="453.4" y2="129.2"/>
						</g>
					</g>
					<g>
						<g>
							<line class="st12" x1="529.5" y1="535.2" x2="529.5" y2="533.2"/>
							<line class="st13" x1="529.5" y1="529.3" x2="529.5" y2="133.2"/>
							<line class="st12" x1="529.5" y1="131.2" x2="529.5" y2="129.2"/>
						</g>
					</g>
					<g>
						<g>
							<line class="st12" x1="605.7" y1="535.2" x2="605.7" y2="533.2"/>
							<line class="st13" x1="605.7" y1="529.3" x2="605.7" y2="133.2"/>
							<line class="st12" x1="605.7" y1="131.2" x2="605.7" y2="129.2"/>
						</g>
					</g>
					<g>
						<g>
							<line class="st12" x1="681.9" y1="535.2" x2="681.9" y2="533.2"/>
							<line class="st13" x1="681.9" y1="529.3" x2="681.9" y2="133.2"/>
							<line class="st12" x1="681.9" y1="131.2" x2="681.9" y2="129.2"/>
						</g>
					</g>
				</g>
				<g>
				</g>
			</g>
		</g>
		<g>
			<line class="st12" x1="224.8" y1="535.2" x2="224.8" y2="129.6"/>
			<g>
				<g>
					<line class="st14" x1="224.8" y1="484.5" x2="236.2" y2="484.5"/>
					<line class="st14" x1="224.8" y1="383.1" x2="236.2" y2="383.1"/>
					<line class="st14" x1="224.8" y1="281.7" x2="236.2" y2="281.7"/>
					<line class="st14" x1="224.8" y1="180.3" x2="236.2" y2="180.3"/>
				</g>
				<g>
				</g>
			</g>
		</g>
		<g>
			<g>
				<g>
					<rect x="224.8" y="150.7" class="st15" width="342.8" height="56.5"/>
					<rect x="224.8" y="246.8" class="st4" width="299.4" height="56.5"/>
					<rect x="224.8" y="343.4" class="st15" width="410.6" height="56.5"/>
					<rect x="224.8" y="440.9" class="st4" width="452.5" height="56.5"/>
				</g>
			</g>
		</g>
		<g>
			<g>
			</g>
		</g>
		<g>
			<text transform="matrix(1 0 0 1 20.7574 478.2134)" class="st4 st16 st9">APC PVT Estimate</text>
			<g>
				<text transform="matrix(1 0 0 1 13.1944 381.813)" class="st1 st16 st9">APC Official Result</text>
			</g>
			<text transform="matrix(1 0 0 1 23.6924 285.4117)" class="st4 st16 st9">PDP PVT Estimate</text>
			<text transform="matrix(1 0 0 1 16.1295 184.0108)" class="st1 st16 st9">PDP Official Result</text>
		</g>
	</g>
	<text transform="matrix(1 0 0 1 248.1622 191.6451)" class="st17 st8 st18">45.0%</text>
	<g>
		<text transform="matrix(1 0 0 1 248.1627 287.2613)" class="st19 st8 st18">39.3%</text>
	</g>
	<text transform="matrix(1 0 0 1 248.1627 384.4839)" class="st17 st8 st18">53.9%</text>
	<g>
		<text transform="matrix(1 0 0 1 248.1622 482.3404)" class="st19 st8 st18">59.4%</text>
	</g>
	<text transform="matrix(1 0 0 1 218.2276 604.1127)" class="st7 st8 st20">Percent of National Votes</text>
	<text transform="matrix(1 0 0 1 561.6363 234.7622)"><tspan x="0" y="0" class="st7 st8 st21">Margin of Error:</tspan><tspan x="0" y="11.3" class="st7 st8 st21">+/- 2.2%</tspan></text>
	<text transform="matrix(1 0 0 1 586.2016 415.6127)"><tspan x="0" y="0" class="st7 st8 st21">Margin of Error:</tspan><tspan x="0" y="11.3" class="st7 st8 st21">+/- 2.2%</tspan></text>
	<g>
		<defs>
			<rect id="SVGID_1_" x="511.6" y="141.6" width="25.3" height="186.2"/>
		</defs>
		<clipPath id="SVGID_2_">
			<use xlink:href="#SVGID_1_"  style="overflow:visible;"/>
		</clipPath>
		<g class="st22">
			<line class="st23" x1="456.5" y1="155.3" x2="603.2" y2="66.2"/>
			<line class="st23" x1="456.5" y1="160.4" x2="603.2" y2="71.3"/>
			<line class="st23" x1="456.5" y1="170.8" x2="603.2" y2="81.7"/>
			<line class="st23" x1="456.5" y1="150.1" x2="603.2" y2="61"/>
			<line class="st23" x1="456.5" y1="191.4" x2="603.2" y2="102.3"/>
			<line class="st23" x1="456.5" y1="165.6" x2="603.2" y2="76.5"/>
			<line class="st23" x1="456.5" y1="186.3" x2="603.2" y2="97.2"/>
			<line class="st23" x1="456.5" y1="206.9" x2="603.2" y2="117.8"/>
			<line class="st23" x1="456.5" y1="253.4" x2="603.2" y2="164.3"/>
			<line class="st23" x1="456.5" y1="175.9" x2="603.2" y2="86.8"/>
			<line class="st23" x1="456.5" y1="196.6" x2="603.2" y2="107.5"/>
			<line class="st23" x1="456.5" y1="243.1" x2="603.2" y2="154"/>
			<line class="st23" x1="456.5" y1="181.1" x2="603.2" y2="92"/>
			<line class="st23" x1="456.5" y1="294.7" x2="603.2" y2="205.6"/>
			<line class="st23" x1="456.5" y1="232.8" x2="603.2" y2="143.7"/>
			<line class="st23" x1="456.5" y1="274.1" x2="603.2" y2="185"/>
			<line class="st23" x1="456.5" y1="315.4" x2="603.2" y2="226.3"/>
			<line class="st23" x1="456.5" y1="351.6" x2="603.2" y2="262.5"/>
			<line class="st23" x1="456.5" y1="217.3" x2="603.2" y2="128.2"/>
			<line class="st23" x1="456.5" y1="263.7" x2="603.2" y2="174.7"/>
			<line class="st23" x1="456.5" y1="305.1" x2="603.2" y2="216"/>
			<line class="st23" x1="456.5" y1="227.6" x2="603.2" y2="138.5"/>
			<line class="st23" x1="456.5" y1="346.4" x2="603.2" y2="257.3"/>
			<line class="st23" x1="456.5" y1="284.4" x2="603.2" y2="195.3"/>
			<line class="st23" x1="456.5" y1="341.2" x2="603.2" y2="252.1"/>
			<line class="st23" x1="456.5" y1="361.9" x2="603.2" y2="272.8"/>
			<line class="st23" x1="456.5" y1="377.4" x2="603.2" y2="288.3"/>
			<line class="st23" x1="456.5" y1="325.7" x2="603.2" y2="236.6"/>
			<line class="st23" x1="456.5" y1="356.7" x2="603.2" y2="267.6"/>
			<line class="st23" x1="456.5" y1="372.2" x2="603.2" y2="283.1"/>
			<line class="st23" x1="456.5" y1="336.1" x2="603.2" y2="247"/>
			<line class="st23" x1="456.5" y1="387.7" x2="603.2" y2="298.6"/>
			<line class="st23" x1="456.5" y1="367.1" x2="603.2" y2="278"/>
			<line class="st23" x1="456.5" y1="382.6" x2="603.2" y2="293.5"/>
			<line class="st23" x1="456.5" y1="392.9" x2="603.2" y2="303.8"/>
			<line class="st23" x1="456.5" y1="398.1" x2="603.2" y2="309"/>
			<line class="st23" x1="456.5" y1="237.9" x2="603.2" y2="148.8"/>
			<line class="st23" x1="456.5" y1="222.4" x2="603.2" y2="133.3"/>
			<line class="st23" x1="456.5" y1="258.6" x2="603.2" y2="169.5"/>
			<line class="st23" x1="456.5" y1="289.6" x2="603.2" y2="200.5"/>
			<line class="st23" x1="456.5" y1="201.8" x2="603.2" y2="112.7"/>
			<line class="st23" x1="456.5" y1="248.2" x2="603.2" y2="159.2"/>
			<line class="st23" x1="456.5" y1="279.2" x2="603.2" y2="190.2"/>
			<line class="st23" x1="456.5" y1="212.1" x2="603.2" y2="123"/>
			<line class="st23" x1="456.5" y1="310.2" x2="603.2" y2="221.1"/>
			<line class="st23" x1="456.5" y1="268.9" x2="603.2" y2="179.8"/>
			<line class="st23" x1="456.5" y1="299.9" x2="603.2" y2="210.8"/>
			<line class="st23" x1="456.5" y1="320.6" x2="603.2" y2="231.5"/>
			<line class="st23" x1="456.5" y1="330.9" x2="603.2" y2="241.8"/>
		</g>
	</g>
	<g>
		<defs>
			<rect id="SVGID_3_" x="663.2" y="325.5" width="25.3" height="186.2"/>
		</defs>
		<clipPath id="SVGID_4_">
			<use xlink:href="#SVGID_3_"  style="overflow:visible;"/>
		</clipPath>
		<g class="st24">
			<line class="st23" x1="608.1" y1="339.2" x2="754.7" y2="250.1"/>
			<line class="st23" x1="608.1" y1="344.3" x2="754.7" y2="255.3"/>
			<line class="st23" x1="608.1" y1="354.7" x2="754.7" y2="265.6"/>
			<line class="st23" x1="608.1" y1="334" x2="754.7" y2="244.9"/>
			<line class="st23" x1="608.1" y1="375.3" x2="754.7" y2="286.3"/>
			<line class="st23" x1="608.1" y1="349.5" x2="754.7" y2="260.4"/>
			<line class="st23" x1="608.1" y1="370.2" x2="754.7" y2="281.1"/>
			<line class="st23" x1="608.1" y1="390.8" x2="754.7" y2="301.7"/>
			<line class="st23" x1="608.1" y1="437.3" x2="754.7" y2="348.2"/>
			<line class="st23" x1="608.1" y1="359.8" x2="754.7" y2="270.8"/>
			<line class="st23" x1="608.1" y1="380.5" x2="754.7" y2="291.4"/>
			<line class="st23" x1="608.1" y1="427" x2="754.7" y2="337.9"/>
			<line class="st23" x1="608.1" y1="365" x2="754.7" y2="275.9"/>
			<line class="st23" x1="608.1" y1="478.7" x2="754.7" y2="389.6"/>
			<line class="st23" x1="608.1" y1="416.7" x2="754.7" y2="327.6"/>
			<line class="st23" x1="608.1" y1="458" x2="754.7" y2="368.9"/>
			<line class="st23" x1="608.1" y1="499.3" x2="754.7" y2="410.2"/>
			<line class="st23" x1="608.1" y1="535.5" x2="754.7" y2="446.4"/>
			<line class="st23" x1="608.1" y1="401.2" x2="754.7" y2="312.1"/>
			<line class="st23" x1="608.1" y1="447.7" x2="754.7" y2="358.6"/>
			<line class="st23" x1="608.1" y1="489" x2="754.7" y2="399.9"/>
			<line class="st23" x1="608.1" y1="411.5" x2="754.7" y2="322.4"/>
			<line class="st23" x1="608.1" y1="530.3" x2="754.7" y2="441.2"/>
			<line class="st23" x1="608.1" y1="468.3" x2="754.7" y2="379.2"/>
			<line class="st23" x1="608.1" y1="525.1" x2="754.7" y2="436.1"/>
			<line class="st23" x1="608.1" y1="545.8" x2="754.7" y2="456.7"/>
			<line class="st23" x1="608.1" y1="561.3" x2="754.7" y2="472.2"/>
			<line class="st23" x1="608.1" y1="509.6" x2="754.7" y2="420.6"/>
			<line class="st23" x1="608.1" y1="540.6" x2="754.7" y2="451.6"/>
			<line class="st23" x1="608.1" y1="556.1" x2="754.7" y2="467"/>
			<line class="st23" x1="608.1" y1="520" x2="754.7" y2="430.9"/>
			<line class="st23" x1="608.1" y1="571.6" x2="754.7" y2="482.5"/>
			<line class="st23" x1="608.1" y1="551" x2="754.7" y2="461.9"/>
			<line class="st23" x1="608.1" y1="566.5" x2="754.7" y2="477.4"/>
			<line class="st23" x1="608.1" y1="576.8" x2="754.7" y2="487.7"/>
			<line class="st23" x1="608.1" y1="582" x2="754.7" y2="492.9"/>
			<line class="st23" x1="608.1" y1="421.8" x2="754.7" y2="332.7"/>
			<line class="st23" x1="608.1" y1="406.3" x2="754.7" y2="317.2"/>
			<line class="st23" x1="608.1" y1="442.5" x2="754.7" y2="353.4"/>
			<line class="st23" x1="608.1" y1="473.5" x2="754.7" y2="384.4"/>
			<line class="st23" x1="608.1" y1="385.7" x2="754.7" y2="296.6"/>
			<line class="st23" x1="608.1" y1="432.2" x2="754.7" y2="343.1"/>
			<line class="st23" x1="608.1" y1="463.2" x2="754.7" y2="374.1"/>
			<line class="st23" x1="608.1" y1="396" x2="754.7" y2="306.9"/>
			<line class="st23" x1="608.1" y1="494.2" x2="754.7" y2="405.1"/>
			<line class="st23" x1="608.1" y1="452.8" x2="754.7" y2="363.7"/>
			<line class="st23" x1="608.1" y1="483.8" x2="754.7" y2="394.7"/>
			<line class="st23" x1="608.1" y1="504.5" x2="754.7" y2="415.4"/>
			<line class="st23" x1="608.1" y1="514.8" x2="754.7" y2="425.7"/>
		</g>
	</g>
</g>
<g id="margins">
</g>
</svg>
