<?xml version="1.0" encoding="utf-8"?>
<!-- Generator: Adobe Illustrator 23.0.1, SVG Export Plug-In . SVG Version: 6.00 Build 0)  -->
<svg version="1.1" id="Layer_1" xmlns="http://www.w3.org/2000/svg" xmlns:xlink="http://www.w3.org/1999/xlink" x="0px" y="0px"
	 viewBox="0 0 1000 640" style="enable-background:new 0 0 1000 640;" xml:space="preserve">
<style type="text/css">
	.st0{fill:#854D2C;}
	.st1{fill:#EBE6E2;}
	.st2{fill:#36150F;}
	.st3{fill:#C2BEBA;}
	.st4{fill:#E3D5D5;}
	.st5{fill:#00162F;}
	.st6{fill:#752E21;}
	.st7{fill:#002652;}
	.st8{fill:#85422A;}
	.st9{fill:#FFBF63;}
	.st10{fill:#8BC53F;}
	.st11{fill:#009345;}
	.st12{fill:#7B9C3E;}
	.st13{fill:#371212;}
	.st14{fill:none;stroke:#371212;stroke-width:0.25;stroke-linecap:round;stroke-linejoin:round;}
	.st15{fill:#C2C1C0;}
	.st16{fill:#502B1B;}
	.st17{fill:#FFFFFF;}
	.st18{fill:#E8E7E6;}
</style>
<g id="man">
	<g>
		<g>
			<path class="st0" d="M570.2,217.2c0,0-6.5-1.6-8.6-5.7c-2.1-4-3.4-5.8-12-10.6c-8.5-4.7-11.3-11-11.3-11s-7.2,7.3,5.7,15.2
				c7.9,4.9-20.1,4.7-28.4,3.6c0,0-5.3,3.4,2.2,8c4.7,2.9,3.4,4.2,5.4,6.7c-3.7-0.9-7.3-0.9-3.4,3.6c6,6.9,34.6,16.8,42.9,9.8
				c3.8-1,6.8-3.2,8.4-6.9C576.5,218.2,570.2,217.2,570.2,217.2z"/>
			<path class="st1" d="M683.5,174.2c0,0-6.9,61.7-34.2,86.6c-6.1,5.5-89.2-18-89.2-18l7.8-32.3l65,12.7c0,0,8.8-66.5,34.3-95.4
				L683.5,174.2z"/>
		</g>
		<g>
			<g>
				<g>
					<g>
						<path class="st2" d="M714.6,630.4c-1.9,1.5-74.1,14.7-63.1,5.7c1.2-1,2.5-2,4-3.1c11.6-8.7,29.3-19.3,29.3-19.3l2.6-15.1
							l2.3-12.8l0.3-1.4h18.5c0,0,1.5,7.8,3,17.7c0.6,3.6,1.1,7.1,1.6,10.7c0.5,3.8,1.1,7.3,1.3,10.3
							C714.9,627.3,715.1,630,714.6,630.4z"/>
						<path class="st3" d="M714.6,630.4c-1.9,1.5-74.1,14.7-63.1,5.7c1.2-1,2.5-2,4-3.1c8.6,0.4,26.4-0.8,59.1-10.2
							C714.9,627.1,715.1,630,714.6,630.4z"/>
					</g>
					<path class="st4" d="M713.1,612.4c-10.3,2.9-28.5,1.4-28.5,1.4l2.6-15.1l2.3-13.6c7.8-0.9,17-2,18.9-2.2c0,0,1.5,8.6,3,18.4
						C712.1,605,712.7,608.7,713.1,612.4z"/>
				</g>
				<g>
					<g>
						<path class="st2" d="M746.1,630.4c1.9,1.5,74.1,14.7,63.1,5.7c-1.2-1-2.5-2-4-3.1c-11.6-8.7-29.3-19.3-29.3-19.3l-2.6-15.1
							l-2.3-12.8l-0.3-1.4h-18.5c0,0-1.5,7.8-3,17.7c-0.6,3.6-1.2,7.1-1.6,10.7c-0.5,3.8-1.1,7.3-1.3,10.3
							C745.7,627.3,745.6,630,746.1,630.4z"/>
						<path class="st3" d="M746.1,630.4c1.9,1.5,74.1,14.7,63.1,5.7c-1.2-1-2.5-2-4-3.1c-8.6,0.4-26.4-0.8-59.1-10.2
							C745.7,627.1,745.6,630,746.1,630.4z"/>
					</g>
					<path class="st4" d="M747.5,612.4c10.3,2.9,28.4,1.4,28.4,1.4l-2.6-15.1l-2.3-13.6c-7.8-0.9-17-2-18.9-2.2c0,0-1.5,8.6-3,18.4
						C748.6,605,748,608.7,747.5,612.4z"/>
				</g>
				<path class="st5" d="M779.3,601.9h-35.2l-12.6-240.3c-1.2,0-2.4-1-3.5-1.1l-10,241.4h-35.2c-0.3-55.9,1.5-158.2,2.8-230.6
					c0.4-22.2,0.7-41,1-55.5c0.3-16.4,0.3-26.2,0.1-26.7l25.7,0.3l40.1,0.3l10.2,0.1l0,0l9.4,0.1c0.7,3.7,1.1,8.4,1.6,13.7
					c0.4,3.9,0.7,8.1,1.1,12.7c1.2,15.4,2,34.6,2.7,55.8C780.3,459.7,779.4,580.9,779.3,601.9z"/>
				<path class="st6" d="M694.1,597.3c-0.6-3.4-3.4-1.8-4.8-0.1c-1.3,1.5-2.1,3.2-2.8,5.1c-0.9,2.6-0.8,5.3-1,8
					c-0.6-4.1-1.5-8.4-3.1-11.9c-1.4-2.8-3.6-4.2-5.4-0.9c-2.9,5.3,0.7,15.8,6.9,17.3c-2.3,0.3-4.6,0.1-6.7,1.1
					c-0.6,0.3-0.5,1.1-0.2,1.5c1.1,1.2,2.4,2,3.7,3c-3.7,0.1-7-1.2-9.5,2.9c-0.1,0.2-0.1,0.5-0.1,0.7c-1.3,0.5-2.6,0.8-3.8,1.4
					c-0.5,0.3-0.3,1.1,0.3,1.1c2.3-0.1,4.5-0.7,6.3-2.1c0.5-0.4,0.3-1.1-0.1-1.3c2.5-2.1,6.1-0.5,9.4-1c0.7-0.1,0.8-1.1,0.4-1.5
					c-1.2-1.3-2.7-2.2-4-3.2c2.4-0.3,6.1,0.3,6.9-2c0.1-0.2-0.1-0.4-0.2-0.5c1.3,0.1,3.4-1.5,4-2.3C693.4,608,695,602.6,694.1,597.3
					z M677.5,600.6c0.1-1.8,1.3-5.3,3.1-2.8c0.8,1.1,1.2,2.5,1.5,3.8c1.1,4,2,8.1,2.6,12.2C679.2,612.6,677.3,605.4,677.5,600.6z
					 M692,605.9c-0.2,0.7-3.5,7.5-5.6,7.2c0.7-2.4,0.7-4.9,0.9-7.5c0.3-3.1,1.6-6,3.8-8.2c1.9-2,1.9,1.7,1.9,2.8
					C693,602.1,692.6,604,692,605.9z"/>
				<path class="st6" d="M771,611.9c0.7,0.9,2.8,2.4,4,2.3c-0.2,0.1-0.3,0.3-0.2,0.5c0.8,2.4,4.4,1.8,6.9,2c-1.3,1.1-2.9,1.9-4,3.2
					c-0.4,0.5-0.3,1.4,0.4,1.5c3.2,0.6,6.9-1.1,9.4,1c-0.5,0.3-0.7,0.9-0.1,1.3c1.8,1.5,4,2.1,6.3,2.1c0.5,0,0.8-0.8,0.3-1.1
					c-1.3-0.6-2.6-0.9-3.8-1.4c0.1-0.2,0.1-0.5-0.1-0.7c-2.5-4-5.8-2.8-9.5-2.9c1.3-1,2.6-1.8,3.7-3c0.3-0.4,0.4-1.2-0.2-1.5
					c-2.1-1-4.4-0.8-6.7-1.1c6.2-1.6,9.8-12.1,6.9-17.3c-1.8-3.3-4-2-5.4,0.9c-1.7,3.4-2.5,7.8-3.1,11.9c-0.3-2.7-0.1-5.5-1-8
					c-0.7-1.8-1.5-3.6-2.8-5.1c-1.5-1.7-4.2-3.2-4.8,0.1C766.1,602.3,767.7,607.7,771,611.9z M776.4,613.5c0.5-4.1,1.5-8.2,2.6-12.2
					c0.3-1.3,0.7-2.7,1.5-3.8c1.8-2.6,3,1.1,3.1,2.8C783.8,605.2,781.9,612.4,776.4,613.5z M768.2,599.8c0-1.1,0-4.8,1.9-2.8
					c2.1,2.2,3.5,5.2,3.7,8.2c0.2,2.6,0.3,5.1,0.9,7.5c-2.1,0.4-5.4-6.5-5.6-7.2C768.5,603.7,768.1,601.8,768.2,599.8z"/>
			</g>
			<g>
				<path class="st7" d="M686.4,317.4c-0.3,14.3-0.6,33.3-1,54.9c19.1-0.9,25.3-27.8,26.8-54.9H686.4z"/>
				<path class="st7" d="M747.2,317.4c2.2,21.2,9.3,45,30.2,54.7c-0.7-20.7-1.5-39.5-2.7-54.7H747.2z"/>
			</g>
		</g>
		<g>
			<path class="st8" d="M699.7,316.3v-26.9l-13-0.1c0.1,0.5,0.1,10.6-0.2,27H699.7z"/>
			<path class="st8" d="M756.1,289.8v26.5h18.6c-0.3-4.6-0.7-8.8-1.1-12.7c-0.5-5.3-1.1-10-1.7-13.7l-9.6-0.1l0,0L756.1,289.8z"/>
			<polygon class="st8" points="746.3,289.7 710.5,289.5 710.5,316.3 746.3,316.3 			"/>
		</g>
		<g>
			<path class="st1" d="M773.6,302.5c4.5-36.2,12.4-176,12.4-176c-58.5-10-120,1.5-120,1.5c-0.7,18.3,17.4,142.1,20.6,174.9
				L773.6,302.5z"/>
			<rect x="717.2" y="300.3" class="st9" width="21" height="14"/>
			<g transform="matrix( 1, 0, 0, 1, 0,0) ">
				<g>
					<g id="Layer0_5_MEMBER_3_MEMBER_0_FILL_1_">
						<path class="st10" d="M663.9,229.3l0.7,29.9c6.4-0.1,23.3-0.4,50.6-0.9l-0.1-30C681.5,229,664.4,229.3,663.9,229.3
							 M666.5,271.4c-0.7-0.1-1.3-0.1-1.8-0.1c-0.3,15.4-1.1,28.2-2.4,38.5c16.3,3.7,33.8,5.3,52.6,4.7c0.7-10.1,0.9-24.8,0.5-44.2
							c-4,0-8.4,0.1-13.3,0.2C680.2,271.1,668.3,271.4,666.5,271.4 M678.7,171.6c-0.2-4.7-0.4-12.1-0.7-22.2
							c-0.9-0.2-1.6-0.4-2.5-0.6c-0.2-0.1-2.4-0.9-6.4-2.4c-3.5,12.4-6.7,27.4-9.5,44.9c1.6,5.9,2.8,14.5,3.6,26
							c4.2-0.1,9.2-0.2,15.3-0.3C678.8,195.4,678.9,180.3,678.7,171.6 M689.1,151.1c0.3,9.3,0.5,16,0.6,20.3
							c0.2,8.7,0.1,23.8-0.2,45.3c13.4-0.4,22-0.5,25.7-0.4c0.1-19.5,0.3-36.4,0.7-50.6c-5.9-4.3-10.5-8.8-13.8-13.7
							C697.4,151.8,693,151.5,689.1,151.1 M787.3,258.7l0.7-29.9c-0.5,0-17.5-0.3-51.2-1.1l-0.1,30
							C764,258.3,780.9,258.7,787.3,258.7 M749.9,270c-4.9-0.1-9.4-0.2-13.3-0.2c-0.3,19.4-0.4,34.2-0.2,44.4
							c19.3,0.5,37-1.1,53.3-4.9c-1.3-10.3-2.1-23.1-2.4-38.5c-0.5,0-1.2,0.1-1.8,0.1C783.6,270.9,771.8,270.6,749.9,270
							 M750.5,150.5c-3.3,5.2-8,10.1-14.4,14.7c0.4,14.2,0.7,31.1,0.7,50.6c3.8-0.1,12.3,0,25.7,0.4c-0.3-21.5-0.4-36.6-0.2-45.3
							c0.1-4.5,0.3-11.8,0.5-22C758.7,149.5,754.6,150,750.5,150.5 M782.7,145.1c-2.9,0.7-5.8,1.3-8.7,1.8
							c-0.3,11.1-0.5,19.2-0.7,24.2c-0.2,8.7-0.1,23.8,0.2,45.3c6.1,0.1,11.1,0.3,15.3,0.3c0.9-11.5,2-20.1,3.6-26
							C789.4,172.8,786.2,157.6,782.7,145.1z"/>
						<path class="st11" d="M664.7,259.2c0,4.2,0,8.2,0,12.1c0.5,0,1.2,0.1,1.8,0.1c1.8,0,13.7-0.3,35.5-0.9
							c4.9-0.1,9.4-0.2,13.3-0.2c-0.1-3.8-0.1-7.8-0.1-12C687.9,258.8,671.1,259.2,664.7,259.2 M689.5,216.7l-10.9,0.2
							c-6.1,0.1-11.1,0.3-15.3,0.3c0.3,3.7,0.5,7.8,0.7,12.1c0.5,0,17.5-0.3,51.2-1.1c0-4.2,0-8.1,0-12
							C711.4,216.2,702.9,216.3,689.5,216.7 M689.7,171.4c-0.1-4.2-0.3-11-0.6-20.3c-4.2-0.5-7.8-1.1-11.1-1.8
							c0.3,10.1,0.5,17.5,0.7,22.2c0.2,8.7,0.1,23.8-0.2,45.3l10.9-0.2C689.9,195.2,689.9,180,689.7,171.4 M736.6,269.8
							c4,0,8.4,0.1,13.3,0.2c21.9,0.6,33.7,0.9,35.5,0.9c0.7-0.1,1.3-0.1,1.8-0.1c0-3.9,0-7.9,0-12.1c-6.4-0.1-23.3-0.4-50.6-0.9
							C736.7,262,736.6,266,736.6,269.8 M773.4,216.4l-10.9-0.2c-13.4-0.4-22-0.5-25.7-0.4c0,3.9,0,7.8,0,12
							c33.7,0.7,50.7,1.1,51.2,1.1c0.2-4.4,0.5-8.4,0.7-12.1C784.6,216.6,779.5,216.5,773.4,216.4 M770.9,147.5
							c-2.7,0.5-5.4,0.9-8.2,1.3c-0.2,10.2-0.3,17.5-0.5,22c-0.2,8.7-0.1,23.8,0.2,45.3l10.9,0.2c-0.3-21.5-0.4-36.6-0.2-45.3
							c0.2-5,0.4-13.1,0.7-24.2C773,147.1,772,147.3,770.9,147.5z"/>
						<path class="st11" d="M677.5,127.2c-0.9,0.5-1.6,1-2.5,1.6c-2,5.1-4,11-5.9,17.6c4.1,1.5,6.2,2.3,6.4,2.4
							c0.8,0.2,1.6,0.4,2.5,0.6C677.9,143,677.7,135.6,677.5,127.2 M691.8,122.3c-1.1,0.2-2.2,0.4-3.2,0.6
							c0.2,11.1,0.4,20.5,0.5,28.2c4,0.4,8.3,0.7,13.1,0.9c-0.5-0.7-1-1.5-1.5-2.3C697.4,144.1,694.4,134.9,691.8,122.3
							 M782.7,145.1c-1.8-6.3-3.7-11.9-5.7-16.9c-0.9-0.5-1.6-1.1-2.5-1.6c-0.2,7.6-0.4,14.3-0.5,20.2
							C776.9,146.3,779.8,145.7,782.7,145.1 M763.4,122.4c-1.1-0.2-2.1-0.4-3.2-0.6c-2.6,12.6-5.6,21.8-8.9,27.4
							c-0.3,0.5-0.5,0.9-0.9,1.3c4.2-0.5,8.3-1,12.3-1.6C763,141.5,763.2,132.7,763.4,122.4z"/>
						<path class="st12" d="M688.5,122.9c-4,0.9-7.5,2.2-10.7,4c-0.1,0.1-0.3,0.1-0.4,0.2c0.2,8.4,0.4,15.8,0.5,22.2
							c3.2,0.7,6.9,1.3,11.1,1.8C688.9,143.4,688.8,134.1,688.5,122.9 M762.7,148.8c2.8-0.4,5.5-0.9,8.2-1.3c1-0.2,2-0.4,3-0.6
							c0.1-5.9,0.3-12.6,0.5-20.2c-0.1-0.1-0.3-0.1-0.4-0.2c-3.2-1.8-6.7-3.2-10.7-4C763.2,132.7,763,141.5,762.7,148.8z"/>
					</g>
				</g>
				<path class="st13" d="M763.4,122.5l-3.2-0.6l0.1-0.1l0,0c-1.1,4.9-2.2,9.9-3.8,14.8c-0.7,2.4-1.6,4.8-2.5,7.2s-2.1,4.6-3.4,6.8
					c0,0.1-0.1,0.1-0.1,0c-0.1,0-0.1-0.1,0-0.1l0,0c1.3-2.2,2.5-4.4,3.4-6.8c1-2.4,1.8-4.7,2.6-7.2c1.5-4.9,2.6-9.8,3.7-14.8l0,0
					c0-0.1,0.1-0.1,0.1-0.1l3.2,0.6c0.1,0,0.1,0.1,0.1,0.1C763.5,122.5,763.4,122.5,763.4,122.5L763.4,122.5z"/>
				<path class="st13" d="M762.7,148.8l0.6-26.4c0,0,0-0.1,0.1-0.1l0,0c2.4,0.5,4.8,1.3,7.1,2.2c1.1,0.5,2.2,1.1,3.4,1.6
					c1.1,0.5,2.1,1.3,3.2,1.9l0,0l0,0c2,5,3.7,10.1,5.2,15.2s2.8,10.4,4.1,15.6c2.4,10.5,4.4,21,6.1,31.7l0,0l0,0
					c-1.3,4.8-2,9.7-2.6,14.6s-1,9.9-1.3,14.8c-0.1,2.5-0.3,4.9-0.4,7.5c-0.1,2.5-0.1,4.9-0.2,7.5l-0.3,14.8l-0.2,7.5
					c-0.1,2.5,0,4.9,0,7.5s0,4.9,0,7.5c0.1,2.5,0.1,4.9,0.2,7.5c0.3,9.9,0.9,19.8,2.2,29.7l0,0c0,0,0,0.1-0.1,0.1
					c-8.7,2-17.6,3.3-26.5,4.1c-8.9,0.8-17.9,1-26.8,0.8l0,0c0,0-0.1,0-0.1-0.1c-0.2-12.4-0.1-24.9,0.1-37.3
					c0.2-12.4,0.2-24.9,0.3-37.3c0.1-12.4,0.1-24.9-0.1-37.3c-0.1-12.4-0.3-24.9-0.6-37.3l0,0V165c2.8-2,5.5-4.2,7.9-6.7
					s4.7-5.1,6.5-8h0.1v0.1l0,0c-1.8,2.9-4.1,5.5-6.5,8s-5.1,4.6-7.9,6.7V165l0,0c0.4,12.4,0.5,24.9,0.7,37.3
					c0.1,12.4,0.1,24.9,0,37.3c-0.1,12.4-0.1,24.9-0.3,37.3s-0.3,24.9-0.1,37.3l-0.1-0.1l0,0c9,0.2,17.9,0,26.8-0.8
					c8.9-0.8,17.7-2.1,26.5-4.1l-0.1,0.1l0,0c-1.3-9.8-1.8-19.8-2.2-29.7c-0.1-2.5-0.1-4.9-0.2-7.5c-0.1-2.5,0-4.9,0-7.5
					c0-2.5,0-4.9,0.1-7.5l0.2-7.5l0.3-14.8c0.1-2.5,0.1-4.9,0.2-7.5c0.1-2.5,0.3-4.9,0.4-7.5c0.3-4.9,0.7-9.9,1.3-14.8
					c0.6-4.9,1.3-9.8,2.6-14.6l0,0l0,0c-1.7-10.6-3.7-21.2-6.1-31.7c-1.2-5.2-2.6-10.4-4.1-15.6c-1.5-5.1-3.2-10.3-5.2-15.2l0,0l0,0
					c-1.1-0.7-2-1.4-3.2-1.9c-1.1-0.6-2.2-1.1-3.3-1.6c-2.2-1-4.6-1.7-7.1-2.2l0.1-0.1L762.7,148.8
					C762.9,148.9,762.9,148.9,762.7,148.8C762.8,148.9,762.7,148.9,762.7,148.8L762.7,148.8z"/>
				<path class="st13" d="M774.5,126.7l-0.5,20.2c0,0.1-0.1,0.1-0.1,0.1c-0.1,0-0.1-0.1-0.1-0.1l0.5-20.2
					C774.4,126.6,774.5,126.6,774.5,126.7C774.5,126.6,774.5,126.6,774.5,126.7z"/>
				<path class="st13" d="M762.9,148.8l-0.5,16.8c-0.1,5.6-0.3,11.2-0.3,16.8c0,11.2,0.2,22.4,0.3,33.6l0,0l-0.1-0.1l10.9,0.2l0,0
					l-0.1,0.1c-0.2-11.6-0.3-23.2-0.3-34.8c0-2.9,0-5.8,0.1-8.7s0.2-5.8,0.3-8.7l0.5-17.3c0-0.1,0.1-0.1,0.1-0.1
					c0.1,0,0.1,0.1,0.1,0.1l0,0l-0.5,17.3c-0.1,2.9-0.2,5.8-0.3,8.7s-0.1,5.8-0.1,8.7c0,11.6,0.1,23.2,0.3,34.8
					c0,0.1-0.1,0.1-0.1,0.1l0,0l0,0l-10.9-0.2c-0.1,0-0.1-0.1-0.1-0.1l0,0c-0.2-11.2-0.3-22.4-0.3-33.6c0-5.6,0.1-11.2,0.3-16.8
					l0.4-16.8C762.7,148.8,762.8,148.8,762.9,148.8L762.9,148.8L762.9,148.8z"/>
				<path class="st14" d="M688.5,122.9c-4,0.9-7.5,2.2-10.7,4c-0.1,0.1-0.3,0.1-0.4,0.2c0.2,8.4,0.4,15.8,0.6,22.2"/>
				<path class="st13" d="M689.1,151.1l-0.6-28.2c0,0,0-0.1,0.1-0.1l0,0l3.2-0.6c0,0,0.1,0,0.1,0.1l0,0c0.9,4.2,1.8,8.3,3,12.4
					s2.5,8.2,4.3,12c1.8,3.9,4.3,7.4,7.2,10.5s6.1,5.9,9.6,8.4l0,0c0,0,0,0,0,0.1c-0.3,12.4-0.5,24.8-0.7,37.2
					c-0.1,12.4-0.1,24.8-0.1,37.2l0.1,18.6c0.1,6.2,0.1,12.4,0.2,18.6c0.1,12.4,0.2,24.8-0.6,37.2l0,0c0,0,0,0.1-0.1,0.1
					c-17.6,0.6-35.4-0.8-52.6-4.7l0,0c0,0-0.1,0-0.1-0.1c1.3-9.8,1.8-19.7,2.2-29.7c0.1-2.5,0.1-4.9,0.2-7.5c0.1-2.5,0-4.9,0-7.5
					s0.1-4.9,0-7.5l-0.2-7.5l-0.3-14.8c-0.1-2.5-0.1-4.9-0.2-7.5c-0.1-2.5-0.3-4.9-0.4-7.5c-0.3-4.9-0.7-9.9-1.3-14.8
					c-0.6-4.9-1.3-9.8-2.6-14.6l0,0l0,0c1.7-10.6,3.7-21.2,6.1-31.7c1.3-5.2,2.6-10.4,4.1-15.6s3.2-10.3,5.2-15.2l0,0l0,0
					c0.8-0.5,1.6-1.1,2.5-1.6h0.1v0.1c-0.9,0.5-1.6,1-2.5,1.6l0,0l0,0c-2,5-3.7,10.1-5.2,15.2c-1.5,5.1-2.8,10.4-4.1,15.6
					c-2.4,10.5-4.4,21-6.1,31.7l0,0l0,0c1.3,4.8,2,9.7,2.6,14.6c0.6,4.9,1,9.9,1.3,14.8c0.1,2.5,0.3,4.9,0.4,7.5
					c0.1,2.5,0.1,4.9,0.2,7.5l0.3,14.8l0.2,7.5c0.1,2.5,0,4.9,0.1,7.5c0,2.5,0,4.9,0,7.5c-0.1,2.5-0.1,4.9-0.2,7.5
					c-0.3,9.9-0.9,19.9-2.2,29.7l-0.1-0.1l0,0c8.6,2,17.3,3.3,26.1,4s17.6,0.9,26.4,0.6l-0.1,0.1l0,0c0.8-12.4,0.7-24.8,0.7-37.2
					c-0.1-6.2-0.1-12.4-0.2-18.6l-0.1-18.6c-0.1-12.4-0.1-24.8,0.1-37.2c0.1-12.4,0.3-24.8,0.7-37.2v0.1l0,0
					c-3.4-2.5-6.7-5.3-9.6-8.4c-2.9-3.2-5.4-6.7-7.2-10.6c-1.8-3.9-3.2-7.9-4.4-12s-2.1-8.2-3-12.4l0,0l0.1,0.1l-3.2,0.6l0,0
					l0.1-0.1L689.1,151.1C689.2,151.1,689.1,151.1,689.1,151.1L689.1,151.1L689.1,151.1z"/>
				<path class="st13" d="M689.2,151.1l0.5,16.4c0.2,5.5,0.2,10.9,0.2,16.4c0,10.9-0.1,21.9-0.3,32.8l0,0l-0.1-0.1
					c4.3-0.1,8.6-0.3,12.9-0.3c2.1-0.1,4.3-0.1,6.4-0.1c2.1,0,4.3,0,6.4,0.1c0.1,0,0.1,0.1,0.1,0.1l-0.1,0.1c-2.1-0.1-4.3-0.1-6.4,0
					l-6.4,0.1c-4.3,0.1-8.6,0.2-12.9,0.3c-0.1,0-0.1,0-0.1-0.1l0,0l0,0c0.2-10.9,0.3-21.9,0.3-32.8c0-5.5,0-10.9-0.2-16.4l-0.5-16.4
					C689.1,151.1,689.1,151.1,689.2,151.1C689.2,151,689.2,151,689.2,151.1L689.2,151.1z"/>
				<path class="st13" d="M678.1,149.3l0.5,16.9c0.2,5.6,0.3,11.3,0.3,16.9c0,11.3-0.1,22.6-0.3,33.8l0,0l-0.1-0.1l10.9-0.2
					c0.1,0,0.1,0.1,0.1,0.1c0,0.1-0.1,0.1-0.1,0.1l-10.9,0.2c-0.1,0-0.1-0.1-0.1-0.1l0,0l0,0c0.2-11.3,0.3-22.6,0.3-33.8
					c0-5.6-0.1-11.3-0.3-16.9l-0.5-16.9C678,149.2,678.1,149.2,678.1,149.3C678.1,149.2,678.1,149.3,678.1,149.3L678.1,149.3z"/>
				<path class="st13" d="M664.7,271.2l1.8,0.1l0,0l24.4-0.6l12.2-0.3l12.2-0.2c0.1,0,0.1,0.1,0.1,0.1l-0.1,0.1l0,0l-12.2,0.2
					l-12.2,0.3l-24.4,0.7l0,0l0,0l-1.8-0.1l0,0C664.6,271.4,664.6,271.3,664.7,271.2C664.6,271.3,664.6,271.2,664.7,271.2
					L664.7,271.2z"/>
				<path class="st14" d="M663.2,217.2c4.2-0.1,9.2-0.2,15.3-0.3"/>
				<path class="st14" d="M788.7,216.7c-4.2-0.1-9.2-0.2-15.3-0.3"/>
				<path class="st13" d="M787.3,270.9l-1.8,0.1l0,0l0,0l-24.4-0.7l-12.2-0.3l-12.2-0.2c-0.1,0-0.1-0.1-0.1-0.1
					c0-0.1,0.1-0.1,0.1-0.1l0,0l12.2,0.2l12.2,0.3l24.4,0.6l0,0l1.8-0.1C787.3,270.8,787.3,270.8,787.3,270.9
					C787.4,270.9,787.3,270.9,787.3,270.9L787.3,270.9L787.3,270.9z"/>
				<path class="st13" d="M787.3,258.8l-50.6-0.9c-0.1,0-0.1-0.1-0.1-0.1l0.1-0.1l0,0l50.6,0.9C787.3,258.7,787.3,258.7,787.3,258.8
					C787.4,258.8,787.3,258.8,787.3,258.8z"/>
				<path class="st13" d="M788,228.9c-8.5-0.2-17.1-0.4-25.6-0.5l-25.6-0.5c-0.1,0-0.1-0.1-0.1-0.1c0-0.1,0.1-0.1,0.1-0.1l0,0
					l25.6,0.5c8.5,0.2,17.1,0.3,25.6,0.5l0,0C788.1,228.8,788.1,228.8,788,228.9C788.1,228.8,788.1,228.9,788,228.9L788,228.9z"/>
				<path class="st13" d="M762.5,216.2c-4.3-0.1-8.6-0.3-12.9-0.3c-2.1-0.1-4.3-0.1-6.4-0.1c-2.1,0-4.3,0-6.4,0.1
					c-0.1,0-0.1-0.1-0.1-0.1l0.1-0.1l0,0c2.1-0.1,4.3-0.1,6.4,0l6.4,0.1C753.9,215.9,758.2,216,762.5,216.2L762.5,216.2L762.5,216.2
					L762.5,216.2z"/>
				<path class="st13" d="M664.7,259.2l25.3-0.5l25.3-0.5c0.1,0,0.1,0.1,0.1,0.1c0,0.1-0.1,0.1-0.1,0.1l0,0l-25.3,0.5l-25.3,0.5
					C664.6,259.3,664.6,259.2,664.7,259.2C664.6,259.2,664.6,259.2,664.7,259.2L664.7,259.2z"/>
				<path class="st13" d="M663.9,229.2l25.6-0.5l25.6-0.6c0.1,0,0.1,0.1,0.1,0.1c0,0.1-0.1,0.1-0.1,0.1l0,0l-25.6,0.5l-25.6,0.6
					C663.9,229.4,663.9,229.3,663.9,229.2C663.9,229.3,663.9,229.2,663.9,229.2L663.9,229.2L663.9,229.2z"/>
			</g>
		</g>
		<path class="st15" d="M709.8,149.3c0,0,16.2,26.4,16.2,25.3s12.8-27.5,12.8-27.5L724,141L709.8,149.3z"/>
		<g>
			<path class="st0" d="M743.3,121.5c-4.1-4.9-3.2-17-3.2-17l-15.6,1.4l-15.6-1.4c0,0,0.9,12.1-3.2,17c3.6,2.6,9.5,5.6,17.6,5.6
				C732.7,127.1,739.3,124,743.3,121.5z"/>
			<g>
				<g>
					<path class="st0" d="M755.5,63c0.7-13.5,0.5-25.7,0.5-25.7c-8.4-16.2-25.7-11.5-32.1-9c-6.3-2.4-23.6-7.1-32.1,9
						c0,0-0.2,11.9,0.4,25.1c-3.2-1.3-8.5-1.8-7,10c0.9,6.7,5.3,10.6,9,11.4c0.8,4.7,1.8,8.8,3.2,11.1c5.8,10.2,15.6,15.7,24.5,16.6
						c0.4,0.1,3.1,0.1,3.2,0.1c9.1-0.8,19.1-6.3,25.1-16.7c1.3-2.2,2.3-6,3-10.5c3.8,0.4,8.9-3.2,10.2-12.1
						C765.4,60,758.4,61.7,755.5,63z"/>
					<g>
						<path class="st16" d="M692.8,67.8l0.5,10.2c0,0-6.9-1.9-4.7-9.8C689.7,64.4,692.8,67.8,692.8,67.8z"/>
					</g>
					<g>
						<path class="st16" d="M755.3,67.8L754.8,78c0,0,6.9-1.9,4.7-9.8C758.4,64.4,755.3,67.8,755.3,67.8z"/>
					</g>
				</g>
				<g>
					<g>
						<path class="st17" d="M701.2,66.2c0.2-1.4,0.5-3.3,2.8-4.8s5.6-2,7.7-1c2.1,1,3.5,1.5,3.7,2.8c0.2,1.3-0.1,4.4-4.6,5.7
							C708,69.9,700.7,69.4,701.2,66.2z"/>
					</g>
					<g>
						<path d="M715.6,61.8c-1.3-2.8-6.1-3.2-8.8-2.7c-3.7,0.8-5.7,3.3-6.4,6.9c-0.2,0.9,1.3,1.3,1.5,0.3c1.2-5.9,8.4-7.5,12.9-3.8
							C715.2,63,715.8,62.4,715.6,61.8z"/>
					</g>
					<g>
						<path d="M714.6,44.5c-2.6-1-5.5-0.4-7.5,0.2c-3.6,1.1-8,4-9,7.8c-0.2,0.8,0.8,1.1,1.3,0.7c2.8-2.4,4.6-4.6,8.2-5.8
							c2.7-0.9,4.9-1.1,7.1-0.8C715.6,46.5,716,45,714.6,44.5z"/>
					</g>
					<g>
						<path d="M712.3,64.7c0,1.7-1.4,3.2-3.2,3.2c-1.7,0-3.2-1.4-3.2-3.2c0-1.7,1.4-3.2,3.2-3.2C710.9,61.6,712.3,63,712.3,64.7z"/>
					</g>
					<g>
						<path class="st17" d="M710.6,63.9c0,0.8-0.7,1.5-1.4,1.5c-0.8,0-1.4-0.7-1.4-1.5c0-0.8,0.7-1.4,1.4-1.4S710.6,63.2,710.6,63.9
							z"/>
					</g>
				</g>
				<g>
					<g>
						<path class="st17" d="M747.1,66.2c-0.2-1.4-0.5-3.3-2.8-4.8s-5.6-2-7.7-1c-2.1,1-3.5,1.5-3.7,2.8c-0.2,1.3,0.1,4.4,4.6,5.7
							C740.2,69.9,747.5,69.4,747.1,66.2z"/>
					</g>
					<g>
						<path d="M732.7,61.8c1.3-2.8,6.1-3.2,8.8-2.7c3.7,0.8,5.7,3.3,6.4,6.9c0.2,0.9-1.3,1.3-1.5,0.3c-1.2-5.9-8.4-7.5-12.9-3.8
							C733.1,63,732.4,62.4,732.7,61.8z"/>
					</g>
					<g>
						<path d="M733.7,44.5c2.6-1,5.5-0.4,7.5,0.2c3.6,1.1,8,4,9,7.8c0.2,0.8-0.8,1.1-1.3,0.7c-2.8-2.4-4.6-4.6-8.2-5.8
							c-2.7-0.9-4.9-1.1-7.1-0.8C732.7,46.5,732.3,45,733.7,44.5z"/>
					</g>
					<g>
						<ellipse cx="739.1" cy="64.7" rx="3.2" ry="3.2"/>
					</g>
					<g>
						<path class="st17" d="M737.7,63.9c0,0.8,0.7,1.5,1.4,1.5c0.8,0,1.4-0.7,1.4-1.5c0-0.8-0.7-1.4-1.4-1.4S737.7,63.2,737.7,63.9z
							"/>
					</g>
				</g>
				<path class="st16" d="M729.7,70.7c-0.7-2.5-4.5-4.2-1.8,7.6c0.5,2.3,0.1,3.1-1.7,5.1c-0.6,0.6-0.5,1.3,0.1,2
					c0.3,0.4,0.7,0.5,1.1,0.5C734.6,84.6,731.1,75.2,729.7,70.7z"/>
				<g>
					<path class="st16" d="M724,94.5c-4.7-0.1-9.9-0.5-12.3-0.7c1.9,4.9,5.4,8.9,13.3,8.9c5.9,0,9.4-4.7,11.1-8.6
						C734,94.4,730.6,94.6,724,94.5z"/>
					<path class="st17" d="M710.8,91.6c0.2,0.7,0.5,1.5,0.7,2.2c2.5,0.2,7.7,0.6,12.3,0.7c6.7,0.1,10-0.1,12-0.4
						c0.4-0.9,0.7-1.7,0.8-2.5L710.8,91.6L710.8,91.6z"/>
				</g>
			</g>
			<g>
				<path class="st18" d="M708.5,112.8l-9.6,12.7c0,0,7.3,26.1,13.9,31.8l11.6-16.2C724.6,141.1,708.5,122.2,708.5,112.8z"/>
				<path class="st18" d="M740,112.8l9.6,12.7c0,0-7.3,26.1-13.9,31.8L724,141.1C724,141.1,740,122.2,740,112.8z"/>
			</g>
		</g>
		<g>
			<path class="st0" d="M749.2,248.2c0,0-6.5,1.2-10.1-1.3c-3.6-2.4-5.5-3.4-15.1-3.9s-14.6-4.4-14.6-4.4s-3.5,8.6,11.4,10
				c9.1,0.9-16,11.5-23.9,13.9c0,0-3.4,4.7,5.3,5.6c8.6,0.9,1.8,4.3,18.5,4.9s34.9-3.2,34.8-14.9
				C755.2,246.5,749.2,248.2,749.2,248.2z"/>
			<g>
				<g>
					<path class="st1" d="M776.3,164.1c1.1,13.1,21.2,63.3,21.2,63.3c-7.8,1.6-52,14.7-52,14.7l2.4,31.5c2.5-0.1,74.5-9.2,78.9-27.9
						c13.3-55.1-41.7-118.1-41.7-118.1C773.6,130,776.3,164.1,776.3,164.1z"/>
				</g>
			</g>
		</g>
	</g>
	<path d="M687.7,61.7c0,0,1.4-0.4,2.6,0.3c1.6,0.9,2.4,2.2,2.4,2.2l1.8-3c0,0-3.2-17.2,0.9-21.5c7.2-7.5,10.6-3.8,26.8-3.8
		c16.3,0,25.5-4,30.7,1.8c4,4.4,0.5,23.3,0.5,23.3l1.7,3.7c0,0,1.3-1.7,2.8-2.6c0.5-0.3,2.7,0.2,2.7,0.2s3.6-33.9-3.4-40.8
		c-11.4-11.5-20.3-12.3-33-12.3s-23.5-1.5-36.7,16.3C684.4,29.5,687.7,61.7,687.7,61.7z"/>
</g>
</svg>
