<?xml version="1.0" encoding="utf-8"?>
<!-- Generator: Adobe Illustrator 23.0.1, SVG Export Plug-In . SVG Version: 6.00 Build 0)  -->
<svg version="1.1" id="Layer_1" xmlns="http://www.w3.org/2000/svg" xmlns:xlink="http://www.w3.org/1999/xlink" x="0px" y="0px"
	 viewBox="0 0 1000 640" style="enable-background:new 0 0 1000 640;" xml:space="preserve">
<style type="text/css">
	.st0{fill:#734626;}
	.st1{fill:#4E2813;}
	.st2{fill:#6D6E6E;}
	.st3{fill:#808080;}
	.st4{fill:#707171;}
	.st5{fill:#C06428;}
	.st6{fill:#A24924;}
	.st7{fill:#FFD69A;}
	.st8{fill:#E7B470;}
	.st9{fill:#8BC53F;}
	.st10{fill:#009345;}
	.st11{fill:#7B9C3E;}
	.st12{fill:#371212;}
	.st13{fill:none;stroke:#371212;stroke-width:0.25;stroke-linecap:round;stroke-linejoin:round;}
	.st14{fill:#B75927;}
	.st15{fill:#1A100B;}
	.st16{fill:#30241D;}
	.st17{fill:#F0614A;}
	.st18{fill:#B92D26;}
	.st19{fill:#D64129;}
	.st20{fill:#F48C88;}
	.st21{fill:#5E351C;}
	.st22{fill:#FFFFFF;}
	.st23{fill:#300D05;}
</style>
<g id="woman">
	<g>
		<g>
			<g>
				<g>
					<path class="st0" d="M279.1,130.2c0,0,5.9-0.6,14,7.7c8,8.3,27.6,58.8,30.5,60.3c2.8,1.6,23-18,26.6-22.4s9.1-17,12-17.5
						c2.8-0.5,9.6,1.7,13.3-0.7c2.5-1.6,5.4-3.2,7-4.2c0.5-0.3,1.2,0.2,1,0.8c-0.3,1.1-0.9,2.8-2.7,4.2c-2.8,2-2.2,1.8-4.5,2.7
						c0,0,4.4-0.3,8.1-1.1c3.8-0.9,6.8-2.1,7.5-1.9c0.7,0.2,0.9,3-8.2,5.1c0,0,11-0.9,13.9-1.7c0,0,2.1,1.4-0.6,2.3
						c0,0,2.8-0.7,3.3,1.1c0.5,1.6-13.1,4.5-13.1,4.5s1.7,1.2,6.3,0.7c2.4-0.3,4.3-0.6,5.5-0.9c0.9-0.2,1.5,1,0.7,1.6
						c-0.7,0.5-1.7,0.9-3.3,1.4c-5.1,1.3-15.5,1.3-18.4,0.7s-10.8-0.2-12,0s-26.7,41.6-37.6,44.9c-10.3,3.2-38.5-33.9-39.2-37.5
						c-2.7-12.3-6.9-29.4-9.5-35.3C277,139.2,279.1,130.2,279.1,130.2z"/>
					<path class="st1" d="M364.3,173.7c-8.2,10.8-32.8,42.7-38.5,41.4c-10.3-2.4-36.8-46.7-36.8-46.7l-2.5,0.3c1,4,1.8,8,2.6,11.5
						c0.8,3.7,29,40.8,39.2,37.5C337.4,215.1,357.1,184.4,364.3,173.7z"/>
					<path class="st0" d="M376.4,161.2c2.2-0.9,1.8-0.7,4.5-2.7c1.8-1.4,2.4-3.1,2.7-4.2c0.2-0.6-0.5-1.1-1-0.8
						c-1.6,0.9-4.5,2.5-7,4.2c-3,1.9-7.8,0.5-11.3,0.5c0.9,0.1,1.6,1.8,2.8,2C370.3,160.8,376.4,161.2,376.4,161.2z"/>
				</g>
				<g>
					<g>
						<path class="st2" d="M258.9,568.5c0.6,0.5,0.3,6.2,0.3,8.2c0.1,2.9,0.1,6.2-0.7,9c-0.9,3-3.8,3-6.4,2.5
							c-3-0.5-7.4-0.2-9.8-2.7c-0.9-1-1.6-3-1.5-4.4c0.1-1.9,1.8-3,3.2-4.1c3.4-2.2,6.7-4.5,10-6.8
							C256.3,568.8,258.1,567.8,258.9,568.5z"/>
						<path class="st0" d="M245.7,581.8c6.7,1.3,13.3-4.6,13.3-11.2c0-15.4-0.2-31.3,1.9-46.7c2.2-15.8,8-30.7,11.8-46.2
							c0.1-0.5,0.3-1,0.3-1.5c2.5-10.7,4.9-22.2,3.4-33.2c-3-22.4-6.5-34.8-6.5-34.8h-21.6c0,0,2.2,84.5,0.5,109.4
							C247.1,542.6,240.9,580.9,245.7,581.8z"/>
					</g>
					<g>
						<path class="st3" d="M232.4,576.8v10.9c0,0.5,0.4,0.9,0.9,0.9h2c0.2,0,0.4-0.1,0.5-0.2c0.2-0.1,0.3-0.4,0.3-0.7V585
							L232.4,576.8z"/>
						<path class="st3" d="M232.4,564.2v13.1c0,2.8,1.1,5.4,2.8,7.4c2,2.3,5,3.8,8.4,3.8h19.1c0,0-0.1-5.7-9.3-12.1L232.4,564.2z"/>
						<path class="st0" d="M240.2,408.3c0,0,2,84.2,5.1,109s11.5,62.7,6.6,63.8c-6.2,1.5-15.5-4.1-19-14c-1-2.8-0.3-5.4-0.8-7.9
							c-1.4-6.3-3-11.3-1.6-14.3c1.8-4.1,3.8-17.1,0.8-29.1c-3.1-12-20.7-49.1-18.7-71.6s5.1-35.8,5.1-35.8L240.2,408.3L240.2,408.3
							z"/>
					</g>
					<path class="st3" d="M247.3,113.9c0,0,24.6,10.5,33.2,15.3c0.9,0.5,1.7,1,2.2,1.4c1.6,1.2,1.5,14.9,4.4,20.3
						c3.2,6,9.8,25.5-3.2,40.2s-2.3,51.2,0.8,59.2c3.1,8,8.9,23.5,8.6,44.5c-0.4,21-16.7,83.1-18.1,93s-0.6,20.4-0.6,20.4h-61.3
						c0,0-6.2-32.6-13.8-62.1s-8.4-59.8,2.3-86.2c10.7-26.4,17.7-36.9,11.9-55.7c-5.8-18.9-14.8-32.3-13.2-50.3
						c1.1-12.7,2.1-19.3,2.6-22c0.1-0.3,0.2-0.7,0.3-0.9c0.3-0.6,0.9-1.1,1.6-1.3L247.3,113.9z"/>
					<polygon class="st4" points="227.7,143.9 214.1,161.5 214.1,157.5 226.5,139.4 					"/>
					<polygon class="st4" points="269.1,144.6 281.2,160.5 281.2,157.5 270.6,139.4 					"/>
					<path class="st4" d="M222.8,276.2c5.7-5.3,64-12.7,64-12.7c-1.9-0.1-3.8-0.2-5.7-0.3c-12.8-0.7-25.5-1.5-38.3-2.2
						c-5-0.3-9.3-1.4-9.9-7.2c-0.2-1.9,0.7-10.2,4.3-10.6c-1.8-0.5-3.8-1-5.7-1.9c-10-5.3-13.6-14.2-11.7-25.3l4.9,3.2l-3.5-7.5
						c0.4-1,0.3-0.7,1-1.5c0.1-0.1,9.9,12.5,10.8,13.8c-3-5.7-5.2-9.6-6-15.8c-0.1-0.7-0.1-1.4,0.3-2c0.3-0.5,0.9-0.8,1.4-1
						c9.6-4.5,18.6-6.3,29.2-5.5c1.4,0.1,20.6,2.8,20.4,3.9c0.9-4.9,2.6-9.3,5.5-12.6c11.3-12.7,9-28.9,2.2-42.9
						c4.7,17.9-0.3,29.6-7.1,35c-8.1,6.4-32.1,10-52.7,1.3c-13.5-5.7-21.3-21.2-26.1-29.2c-1,17.3,7.7,30.6,13.3,48.9
						c5.8,18.9-1.2,29.3-11.9,55.7s-9.9,56.7-2.3,86.2c7.6,29.5,13.8,62.1,13.8,62.1h61.3c0,0-0.2-2.8-0.2-6.7
						c-10.6,0.3-33,0.6-39-1.7c-7.8-3-14.4-38.3-17.7-59.6c-2.2-14-2.4-28.3-1.7-42.5C217,290.1,219.2,279.5,222.8,276.2z"/>
					<path class="st5" d="M209.9,240.2c0,0,42.6,7.1,72,1.9c0,0,6.3,8,7.1,21.2c0,0-44.5,7.2-87.3-3.3
						C201.7,259.9,203.3,246.2,209.9,240.2z"/>
					<g>
						<path class="st6" d="M259.9,257.6h-5.4c-0.8,0-1.5-0.7-1.5-1.5c0-0.8,0.7-1.5,1.5-1.5h5.4c0.8,0,1.5,0.7,1.5,1.5
							C261.3,256.9,260.7,257.6,259.9,257.6z"/>
					</g>
					<path class="st6" d="M258.6,255.4c0-5.7-4-10.4-9.4-11.5c-1.3-0.1-2.5-0.1-3.8-0.1c-5.8,0.7-10.3,5.7-10.3,11.6
						c0,4.2,2.2,7.9,5.6,10c4.1,0.2,8,0.3,11.8,0.3C256.1,263.6,258.6,259.8,258.6,255.4z M238.1,255.4c0-4.8,4-8.8,8.8-8.8
						s8.8,4,8.8,8.8c0,4.8-4,8.8-8.8,8.8C242,264.2,238.1,260.2,238.1,255.4z"/>
					<g>
						<path class="st7" d="M247.6,266.3c-6.5,0-11.7-5.3-11.7-11.7s5.3-11.7,11.7-11.7c6.5,0,11.7,5.3,11.7,11.7
							C259.3,261,254.1,266.3,247.6,266.3z M247.6,245.8c-4.8,0-8.8,4-8.8,8.8c0,4.8,4,8.8,8.8,8.8s8.8-4,8.8-8.8
							S252.5,245.8,247.6,245.8z"/>
					</g>
					<path class="st8" d="M256.4,254.6c0,1.1-0.2,2-0.5,3h3.1c0.3-0.9,0.4-1.9,0.4-3l0,0H256.4L256.4,254.6z"/>
					<g>
						<path class="st7" d="M260.3,256.8h-5.4c-0.8,0-1.5-0.7-1.5-1.5s0.7-1.5,1.5-1.5h5.4c0.8,0,1.5,0.7,1.5,1.5
							C261.8,256.2,261.1,256.8,260.3,256.8z"/>
					</g>
					<polygon class="st5" points="226.8,142.5 252.2,179.1 269.7,143.3 269.7,130.9 225.8,132.7 					"/>
					<g transform="matrix( 1, 0, 0, 1, 0,0) ">
						<g>
							<g id="Layer0_5_MEMBER_3_MEMBER_0_FILL_2_">
								<path class="st9" d="M203.6,196l0.5,20.9c4.1-0.1,15-0.3,32.5-0.7l-0.1-21C214.8,195.7,203.9,196,203.6,196 M205.2,225.4
									c-0.5-0.1-0.9-0.1-1.2-0.1c-0.2,10.8-0.7,19.7-1.5,26.9c10.4,2.6,21.7,3.7,33.8,3.2c0.5-7.1,0.5-17.3,0.3-30.9
									c-2.5,0-5.4,0.1-8.6,0.1C214,225.2,206.4,225.4,205.2,225.4 M213.1,155.7c-0.1-3.3-0.3-8.5-0.5-15.6
									c-0.5-0.1-1.1-0.3-1.6-0.5c-0.1,0-1.5-0.6-4.1-1.6c-2.2,8.6-4.3,19.1-6.1,31.4c1,4.1,1.8,10.2,2.3,18.1
									c2.6-0.1,5.9-0.1,9.8-0.2C213.2,172.3,213.2,161.7,213.1,155.7 M219.7,141.3c0.2,6.5,0.3,11.2,0.4,14.2
									c0.1,6.1,0.1,16.6-0.1,31.7c8.6-0.3,14.1-0.4,16.5-0.3c0.1-13.7,0.2-25.4,0.5-35.4c-3.8-3-6.7-6.2-8.8-9.6
									C225,141.8,222.2,141.6,219.7,141.3 M282.8,216.5l0.5-20.9c-0.3,0-11.3-0.3-32.9-0.7l-0.1,21
									C267.8,216.2,278.6,216.4,282.8,216.5 M258.8,224.4c-3.2-0.1-6.1-0.1-8.6-0.1c-0.2,13.5-0.3,23.9-0.1,31
									c12.3,0.3,23.7-0.8,34.2-3.4c-0.9-7.2-1.3-16.2-1.5-26.9c-0.3,0-0.7,0-1.2,0.1C280.4,225,272.8,224.8,258.8,224.4
									 M259.1,140.9c-2.1,3.6-5.2,7.1-9.2,10.3c0.3,9.9,0.4,21.7,0.5,35.4c2.4-0.1,7.9,0,16.5,0.3c-0.2-15-0.3-25.6-0.1-31.7
									c0.1-3.2,0.2-8.2,0.3-15.4C264.4,140.2,261.8,140.6,259.1,140.9 M279.8,137.1c-1.8,0.5-3.8,0.9-5.6,1.3
									c-0.2,7.8-0.3,13.4-0.5,16.9c-0.1,6.1-0.1,16.6,0.1,31.7c3.9,0.1,7.2,0.2,9.8,0.2c0.5-8,1.3-14,2.3-18.1
									C284.2,156.5,282.1,145.9,279.8,137.1z"/>
								<path class="st10" d="M204,216.9c0,3,0,5.7,0,8.4c0.3,0,0.7,0,1.2,0.1c1.1,0,8.8-0.2,22.8-0.7c3.2-0.1,6.1-0.1,8.6-0.1
									c-0.1-2.6-0.1-5.5-0.1-8.4C219,216.6,208.2,216.8,204,216.9 M220,187.1l-7.1,0.1c-3.9,0.1-7.2,0.2-9.8,0.2
									c0.2,2.6,0.3,5.4,0.5,8.4c0.3,0,11.3-0.3,32.9-0.7c0-2.9,0-5.7,0-8.4C234,186.8,228.6,186.9,220,187.1 M220.1,155.5
									c-0.1-3-0.2-7.7-0.4-14.2c-2.6-0.3-5-0.7-7.1-1.3c0.2,7.1,0.3,12.2,0.5,15.6c0.1,6.1,0.1,16.6-0.1,31.7l7.1-0.1
									C220.2,172.1,220.3,161.5,220.1,155.5 M250.2,224.2c2.5,0,5.4,0.1,8.6,0.1c14,0.5,21.6,0.7,22.8,0.7
									c0.5-0.1,0.9-0.1,1.2-0.1c0-2.7,0-5.5,0-8.4c-4.1-0.1-15-0.3-32.5-0.7C250.3,218.8,250.3,221.5,250.2,224.2 M273.9,186.9
									l-7.1-0.1c-8.6-0.3-14.1-0.4-16.5-0.3c0,2.7,0,5.5,0,8.4c21.6,0.5,32.6,0.7,32.9,0.7c0.1-3,0.3-5.9,0.5-8.4
									C281.1,187.1,277.8,187.1,273.9,186.9 M272.3,138.8c-1.7,0.3-3.5,0.7-5.3,0.9c-0.1,7.1-0.2,12.3-0.3,15.4
									c-0.1,6.1-0.1,16.6,0.1,31.7l7.1,0.1c-0.2-15-0.3-25.6-0.1-31.7c0.1-3.5,0.3-9.2,0.5-16.9
									C273.5,138.5,272.9,138.6,272.3,138.8z"/>
								<path class="st10" d="M212.3,124.7c-0.5,0.3-1.1,0.7-1.6,1.1c-1.3,3.6-2.6,7.7-3.8,12.3c2.6,1.1,4,1.6,4.1,1.6
									c0.5,0.1,1.1,0.3,1.6,0.5C212.5,135.7,212.4,130.5,212.3,124.7 M221.4,121.2c-0.7,0.1-1.4,0.3-2,0.5
									c0.1,7.7,0.3,14.3,0.3,19.7c2.5,0.3,5.3,0.5,8.4,0.7c-0.3-0.5-0.7-1.1-0.9-1.6C225,136.5,223.2,130.1,221.4,121.2
									 M279.8,137.1c-1.2-4.4-2.4-8.3-3.6-11.8c-0.5-0.4-1.1-0.7-1.6-1.1c-0.1,5.3-0.3,10-0.3,14.1
									C276,138,277.9,137.6,279.8,137.1 M267.4,121.3c-0.7-0.1-1.3-0.3-2-0.5c-1.7,8.8-3.6,15.2-5.7,19.1
									c-0.1,0.3-0.3,0.6-0.5,0.9c2.7-0.3,5.3-0.7,7.9-1.2C267.1,134.6,267.3,128.5,267.4,121.3z"/>
								<path class="st11" d="M219.4,121.7c-2.5,0.7-4.8,1.6-6.9,2.8c-0.1,0.1-0.2,0.1-0.3,0.1c0.1,5.9,0.3,11,0.3,15.4
									c2,0.5,4.4,0.9,7.1,1.3C219.7,135.9,219.5,129.4,219.4,121.7 M267,139.8c1.8-0.3,3.5-0.6,5.3-0.9c0.7-0.1,1.3-0.3,1.9-0.5
									c0.1-4.1,0.2-8.8,0.3-14.1c-0.1-0.1-0.2-0.1-0.3-0.1c-2-1.3-4.3-2.2-6.9-2.8C267.3,128.5,267.1,134.6,267,139.8z"/>
							</g>
						</g>
						<path class="st12" d="M267.4,121.4l-2-0.5l0.1-0.1c-0.7,3.4-1.5,6.9-2.4,10.3c-0.5,1.7-1,3.4-1.6,5s-1.3,3.2-2.2,4.8
							c0,0.1-0.1,0.1-0.1,0c-0.1,0-0.1-0.1,0-0.1l0,0c0.9-1.5,1.6-3.1,2.2-4.7s1.2-3.3,1.6-5c0.9-3.4,1.6-6.8,2.3-10.3
							c0-0.1,0.1-0.1,0.1-0.1l0,0l2,0.5c0.1,0,0.1,0.1,0.1,0.1C267.5,121.4,267.5,121.4,267.4,121.4L267.4,121.4z"/>
						<path class="st12" d="M267,139.8c0.1-6.1,0.3-12.3,0.4-18.5c0,0,0-0.1,0.1-0.1l0,0c1.6,0.4,3.1,0.9,4.6,1.6
							c0.7,0.3,1.5,0.7,2.1,1.1c0.3,0.2,0.7,0.4,1,0.7l1,0.7l0,0l0,0c1.3,3.5,2.4,7.1,3.4,10.7s1.8,7.3,2.6,10.9
							c1.6,7.3,2.8,14.7,3.9,22.1l0,0l0,0c-0.8,3.4-1.3,6.8-1.6,10.2c-0.3,3.4-0.7,6.9-0.8,10.4l-0.3,5.2c-0.1,1.7-0.1,3.4-0.1,5.2
							l-0.3,10.4l-0.1,5.2c-0.1,1.7,0,3.4,0,5.2c0,3.4,0,6.9,0.1,10.4c0.2,6.9,0.6,13.9,1.4,20.7l0,0c0,0,0,0.1-0.1,0.1
							c-5.6,1.4-11.3,2.3-17,2.8s-11.5,0.7-17.2,0.5l0,0c0,0-0.1,0-0.1-0.1c-0.1-8.6-0.1-17.3,0.1-26c0.1-8.6,0.1-17.3,0.1-26
							s0-17.3,0-26c-0.1-8.6-0.2-17.3-0.4-26l0,0c0,0,0,0,0-0.1c1.8-1.5,3.6-3,5.1-4.7c1.6-1.7,3-3.6,4.2-5.5h0.1v0.1l0,0
							c-1.2,2-2.6,3.8-4.2,5.5c-1.6,1.7-3.3,3.2-5.1,4.7v-0.1l0,0c0.3,8.6,0.3,17.3,0.5,26c0.1,8.6,0.1,17.3,0,26
							c-0.1,8.6-0.1,17.3-0.2,26c-0.1,8.6-0.2,17.3-0.1,26L250,255l0,0c5.7,0.1,11.5,0,17.2-0.5s11.4-1.5,17-2.8l-0.1,0.1l0,0
							c-0.8-6.9-1.2-13.8-1.4-20.7c-0.1-3.4-0.2-6.9-0.1-10.4c0-1.7,0-3.4,0-5.2l0.1-5.2l0.2-10.4c0.1-1.7,0.1-3.4,0.1-5.2l0.3-5.2
							c0.2-3.4,0.5-6.9,0.8-10.4c0.4-3.4,0.9-6.9,1.6-10.2l0,0l0,0c-1.1-7.4-2.4-14.8-4-22c-0.8-3.6-1.6-7.3-2.6-10.9
							c-1-3.6-2-7.2-3.4-10.7l0,0l0,0l-1-0.7c-0.3-0.2-0.7-0.5-1-0.7c-0.7-0.4-1.4-0.8-2.1-1.1c-1.5-0.7-3-1.2-4.6-1.6l0.1-0.1
							c-0.1,6.1-0.3,12.3-0.4,18.5C267.1,139.8,267.1,139.8,267,139.8L267,139.8L267,139.8z"/>
						<path class="st12" d="M274.6,124.3c-0.1,4.7-0.3,9.4-0.3,14.1c0,0.1-0.1,0.1-0.1,0.1l-0.1-0.1l0,0c0.1-4.7,0.2-9.4,0.3-14.1
							C274.5,124.2,274.5,124.2,274.6,124.3C274.6,124.2,274.6,124.2,274.6,124.3L274.6,124.3z"/>
						<path class="st12" d="M267.1,139.8c-0.1,3.9-0.3,7.8-0.3,11.7c-0.1,3.9-0.1,7.8-0.1,11.7c0,7.8,0.1,15.7,0.3,23.5l0,0
							l-0.1-0.1l7.1,0.1l0,0l-0.1,0.1c-0.1-8.1-0.2-16.2-0.2-24.3c0-2,0-4,0.1-6.1l0.1-6.1l0.3-12.1c0-0.1,0.1-0.1,0.1-0.1
							c0.1,0,0.1,0.1,0.1,0.1l0,0l-0.4,12.1l-0.1,6.1c0,2-0.1,4-0.1,6.1c0,8.1,0.1,16.2,0.3,24.3c0,0.1-0.1,0.1-0.1,0.1l0,0l0,0
							l-7.1-0.1c-0.1,0-0.1-0.1-0.1-0.1l0,0c-0.1-7.8-0.2-15.7-0.2-23.5c0-3.9,0.1-7.8,0.2-11.7S267,143.7,267.1,139.8
							C267,139.7,267.1,139.7,267.1,139.8C267.1,139.7,267.1,139.7,267.1,139.8L267.1,139.8z"/>
						<path class="st13" d="M219.4,121.7c-2.5,0.7-4.8,1.6-6.9,2.8c-0.1,0.1-0.2,0.1-0.3,0.1c0.1,5.9,0.3,11,0.4,15.4"/>
						<path class="st12" d="M219.7,141.3l-0.4-19.7l0,0c0,0,0-0.1,0.1-0.1l0,0l0,0l2-0.5l0,0c0,0,0.1,0,0.1,0.1l0,0l0,0
							c0.5,2.8,1.1,5.7,1.9,8.5c0.7,2.8,1.6,5.6,2.7,8.3c1.1,2.7,2.7,5.1,4.6,7.4c1.8,2.2,4,4.2,6.3,6l0,0c0,0,0,0,0,0.1
							c-0.2,8.6-0.3,17.3-0.4,26c-0.1,8.6-0.1,17.3,0,26c0,8.6,0,17.3,0.1,26c0.1,8.6,0.1,17.3-0.4,26l0,0c0,0,0,0.1-0.1,0.1
							c-11.3,0.4-22.8-0.5-33.8-3.2l0,0c0,0-0.1,0-0.1-0.1c0.8-6.9,1.2-13.8,1.4-20.7c0.1-3.4,0.2-6.9,0.1-10.4c0-1.7,0-3.4,0-5.2
							l-0.1-5.2l-0.3-10.4c-0.1-1.7-0.1-3.4-0.1-5.2l-0.3-5.2c-0.2-3.4-0.5-6.9-0.8-10.4c-0.4-3.4-0.9-6.9-1.6-10.2l0,0l0,0
							c1.1-7.4,2.4-14.8,3.9-22.1c0.8-3.6,1.6-7.3,2.6-10.9c1-3.6,2-7.2,3.4-10.7l0,0l0,0l1.6-1.1h0.1v0.1l0,0l-1.6,1.1l0,0l0,0
							c-1.3,3.5-2.4,7.1-3.4,10.7s-1.8,7.3-2.6,10.9c-1.6,7.3-2.8,14.6-4,22l0,0l0,0c0.8,3.4,1.3,6.8,1.6,10.2s0.7,6.9,0.8,10.4
							l0.3,5.2c0.1,1.7,0.1,3.4,0.1,5.2l0.2,10.4l0.1,5.2c0.1,1.7,0,3.4,0,5.2c0,3.4,0,6.9-0.1,10.4c-0.2,6.9-0.6,13.9-1.4,20.7
							l-0.1-0.1l0,0c5.5,1.4,11.1,2.3,16.8,2.8s11.3,0.7,17,0.5l-0.1,0.1l0,0c0.5-8.6,0.5-17.3,0.4-26c-0.1-8.6-0.1-17.3-0.2-26
							c-0.1-8.6-0.1-17.3,0-26c0.1-8.6,0.2-17.3,0.5-26v0.1l0,0c-2.3-1.8-4.4-3.8-6.3-6.1c-1.8-2.2-3.4-4.7-4.6-7.5
							c-1.1-2.7-2-5.5-2.7-8.3s-1.3-5.7-1.9-8.5l0,0l0.1,0.1l-2,0.5l0,0l0.1-0.1L219.7,141.3C219.8,141.3,219.8,141.3,219.7,141.3
							L219.7,141.3L219.7,141.3z"/>
						<path class="st12" d="M219.8,141.3l0.3,11.5c0.1,3.8,0.1,7.7,0.1,11.5c0,7.7-0.1,15.3-0.2,22.9l-0.1-0.1l8.2-0.3
							c1.4-0.1,2.8-0.1,4.1-0.1c1.4,0,2.8,0,4.2,0c0.1,0,0.1,0.1,0.1,0.1c0,0.1-0.1,0.1-0.1,0.1c-2.8-0.1-5.5,0-8.2,0.1l-8.2,0.3
							c-0.1,0-0.1,0-0.1-0.1l0,0c0.1-7.7,0.2-15.3,0.2-22.9c0-3.8,0-7.7-0.1-11.5l-0.3-11.5c0-0.1,0-0.1,0.1-0.1
							C219.8,141.3,219.8,141.3,219.8,141.3L219.8,141.3z"/>
						<path class="st12" d="M212.7,140.1l0.3,11.8c0.1,4,0.2,7.8,0.2,11.8c0,7.8-0.1,15.8-0.2,23.6l0,0l-0.1-0.1l7.1-0.1
							c0.1,0,0.1,0.1,0.1,0.1l-0.1,0.1l-7.1,0.1c-0.1,0-0.1-0.1-0.1-0.1l0,0l0,0c0.1-7.8,0.2-15.8,0.3-23.6c0-4-0.1-7.8-0.2-11.8
							L212.7,140.1C212.7,140,212.7,140,212.7,140.1C212.7,140,212.7,140,212.7,140.1L212.7,140.1z"/>
						<path class="st12" d="M204,225.2l1.2,0.1l0,0l15.7-0.4l7.8-0.3l7.8-0.1c0.1,0,0.1,0.1,0.1,0.1c0,0.1-0.1,0.1-0.1,0.1l0,0
							l-7.8,0.1l-7.8,0.2l-15.7,0.5l0,0l0,0l-1.2-0.1l0,0C204,225.4,204,225.3,204,225.2C204,225.3,204,225.2,204,225.2L204,225.2z"
							/>
						<path class="st13" d="M203.1,187.5c2.6-0.1,5.9-0.1,9.8-0.2"/>
						<path class="st13" d="M283.7,187.1c-2.6-0.1-5.9-0.1-9.8-0.2"/>
						<path class="st12" d="M282.8,225l-1.2,0.1l0,0l0,0l-15.7-0.5l-7.8-0.2l-7.8-0.1c-0.1,0-0.1-0.1-0.1-0.1c0-0.1,0.1-0.1,0.1-0.1
							l0,0l7.8,0.1l7.8,0.3l15.7,0.3l0,0l1.2-0.1c0.1,0,0.1,0,0.1,0.1C282.8,225,282.8,225,282.8,225L282.8,225L282.8,225z"/>
						<path class="st12" d="M282.8,216.5l-32.5-0.7c-0.1,0-0.1-0.1-0.1-0.1l0.1-0.1l0,0l32.5,0.7
							C282.8,216.4,282.8,216.5,282.8,216.5L282.8,216.5z"/>
						<path class="st12" d="M283.2,195.7c-5.5-0.1-10.9-0.3-16.4-0.4l-16.4-0.3c-0.1,0-0.1-0.1-0.1-0.1l0.1-0.1l0,0l16.4,0.4
							c5.5,0.1,10.9,0.3,16.4,0.3l0,0C283.3,195.6,283.3,195.6,283.2,195.7C283.3,195.6,283.3,195.7,283.2,195.7L283.2,195.7z"/>
						<path class="st12" d="M266.8,186.9l-8.2-0.3c-1.4-0.1-2.8-0.1-4.1-0.1c-1.4,0-2.8,0-4.1,0.1c-0.1,0-0.1,0-0.1-0.1
							s0-0.1,0.1-0.1l0,0c2.8-0.1,5.5,0,8.2,0.1l8.2,0.2c0.1,0,0.1,0.1,0.1,0.1C266.9,186.9,266.9,186.9,266.8,186.9L266.8,186.9z"
							/>
						<path class="st12" d="M204,216.7l16.2-0.3l16.2-0.3c0.1,0,0.1,0.1,0.1,0.1l-0.1,0.1l0,0l-16.2,0.3l-16.2,0.3
							C204,216.9,204,216.8,204,216.7C204,216.8,204,216.7,204,216.7L204,216.7z"/>
						<path class="st12" d="M203.6,195.9l16.4-0.3l16.4-0.4c0.1,0,0.1,0.1,0.1,0.1c0,0.1-0.1,0.1-0.1,0.1l0,0l-16.4,0.3l-16.4,0.4
							C203.5,196,203.5,196,203.6,195.9C203.5,195.9,203.5,195.9,203.6,195.9L203.6,195.9L203.6,195.9z"/>
					</g>
					<polygon class="st14" points="226.8,142.5 227.7,143.9 231.1,139.9 250.9,158.8 264.4,139 269.1,144.6 269.7,143.3 
						269.7,130.9 225.8,132.7 					"/>
					<polygon class="st5" points="245.4,111.7 276.6,119.5 281.2,157.5 264,136.1 250.2,155.3 231,137.5 214.1,157.5 216.6,120.6 
											"/>
					<polygon class="st0" points="253,94.9 256,117.5 263.7,124.2 249.5,150.6 227.4,122.7 234.2,115.9 237.5,94.9 					"/>
					<path class="st1" d="M240.2,408.3h-22.5c0,0-0.5,2.4-1.3,6.9h24C240.3,410.8,240.2,408.3,240.2,408.3z"/>
					<path class="st1" d="M269.9,408.3h-21.6c0,0,0.1,2.5,0.2,6.9h23.1C270.6,410.6,269.9,408.3,269.9,408.3z"/>
				</g>
				<path class="st0" d="M220.6,249.3c-3.3-1.3-6.1-1.3-6.1-1.3s3.6-1.3,6-1s4.6,1.5,4.9,0.3c0.4-1.3-2.5-2.4-5.5-3.1
					c-2.3-0.6-5.9-1.1-7.9,0.7c-2.5,2.2-4.7,4.6-6.7,7.2c-1.1,1.4-2,2.5-3,3.9c-0.3,0.5-0.9,0.7-1.3,0.6c-0.5,0-1-0.3-1.3-0.8
					c-0.6-1.1-1.1-1.9-1.5-2.4c-1.8-2.6-3.5-5.3-5.1-8c-6.2-10.8-11.1-22.6-12.7-35c-0.1-1.3-0.3-2.5-0.3-3.7
					c0.1-1.8,1.5-3.9,2.2-5.5c1.6-3.5,3.4-6.9,5.2-10.4c4.3-8.1,8.8-16.1,13.3-24.1c-0.7-4-0.9-8.2-0.5-12.6
					c1.1-12.7,2.1-19.3,2.6-22c0.1-0.3,0.2-0.7,0.3-0.9c0.1-0.1,0.1-0.2,0.2-0.3c-2.1,1-4,2.4-5.7,3.8c-0.1,0.1-0.2,0.1-0.3,0.2
					c-5.1,4.1-9.6,9.1-13.3,14.6c-5,7.4-8.8,15.6-12.2,23.8c-3.2,7.8-6.7,15.4-9,23.5c-1.5,5.4-3.4,12.3-1.5,17.8
					c3.2,9.4,8.8,18.1,14,26.4c4.4,6.9,9.2,13.5,14.4,19.7c2.7,3.2,6.3,7.6,10.9,7.8c1.8,0.1,3.4-1.1,4.9-1.9c2-1.1,4-1.5,6.3-1.8
					s4.6-0.5,7-0.5c1.4-0.1,3-0.2,4.4,0.1c0,0,0.5-2.7-1.8-3s-10.9-2.1-10.9-2.1s1.1-1,4-0.6c3,0.4,11.4,2,12.4,1.7s1.5-2.1-1-3
					c-2.4-0.9-9.4-3.4-9.4-3.4l12.7,3.6c0,0,2.1,0.1,1.8-1.7C230.9,253.7,224,250.6,220.6,249.3z"/>
				<path class="st1" d="M200.9,256.4c-0.5,0-1-0.3-1.3-0.8c-0.6-1.1-1.1-1.9-1.5-2.4c-1.8-2.6-3.5-5.3-5.1-8
					c-6.2-10.8-11.1-22.6-12.7-35c-0.1-1.3-0.3-2.5-0.3-3.7c0.1-1.8,1.5-3.9,2.2-5.5c1.6-3.5,3.4-6.9,5.2-10.4
					c4.3-8.1,8.8-16.1,13.3-24.1c-0.6-3.5-0.9-7.1-0.7-10.8c-0.7,0.6-1.1,1.5-1.6,2.2c-1.1,1.8-2.2,3.8-3.4,5.6
					c-3.2,5.5-6.5,11-9.5,16.6c-2.7,4.9-5.3,10-7.6,15.1c-1.5,3.4-3.4,7.3-3.7,11.1c-0.2,2.5,0.9,5.6,1.5,8
					c1.7,6.9,4.3,13.5,7.5,19.9c2.6,5.3,5.7,10.3,9.3,15c0.9,1.1,5.6,8.5,8.3,7.3C201,256.4,200.9,256.4,200.9,256.4z"/>
			</g>
			<polygon class="st1" points="234.9,111.6 256.1,117.6 256,117.5 253,94.9 237.5,94.9 			"/>
			<g>
				<path class="st0" d="M279.4,74.9c-1.1,3-4,5.5-7.2,5.9c-4.5,0.5-4.4-5.9-4.3-8.8c0.1-2.2,0.5-4.4,0.9-6.5c0.6-2.8,1.1-7.3,5-6.9
					c2,0.2,3.7,1.6,4.6,3.3c1,1.7,1.3,3.8,1.5,5.7C280.2,70.1,280.3,72.6,279.4,74.9z"/>
				<path class="st0" d="M210.9,74.9c1.1,3,4,5.5,7.2,5.9c4.5,0.5,4.4-5.9,4.3-8.8c-0.1-2.2-0.5-4.4-0.9-6.5c-0.6-2.8-1.1-7.3-5-6.9
					c-2,0.2-3.7,1.6-4.6,3.3c-1,1.7-1.3,3.8-1.5,5.7C210.2,70.1,210,72.6,210.9,74.9z"/>
				<g>
					<ellipse class="st15" cx="244" cy="15.7" rx="23.3" ry="14.6"/>
					<path class="st16" d="M267.3,15.6c-3.8-5.4-13.1-9.2-23.9-9.2c-9.8,0-18.2,3.1-22.6,7.6c-0.1,0.6-0.2,1.2-0.2,1.7
						c0,8.1,10.5,14.6,23.3,14.6C256.9,30.3,267.3,23.8,267.3,15.6C267.3,15.7,267.3,15.6,267.3,15.6z"/>
					<path class="st0" d="M259.4,101.5l-8.9,6.6c-1.4,1.1-3,1.6-4.7,1.6c-1.8,0.1-3.8-0.5-5.3-1.6l-9-6.7
						c-8.6-6.4-13.8-16.5-13.8-27.2V50.5c0-15.3,12.4-27.7,27.7-27.7l0,0c10.5,0,19.7,5.9,24.3,14.5c2.1,3.9,3.4,8.4,3.4,13.2v23.8
						C273,85,267.9,95.1,259.4,101.5z"/>
					<path class="st16" d="M261.5,17.5c0,0-11-12.1-32.3-6.3s-24.7,27-25,39s5.4,17.3,7.4,22.2s-4.5,31.8,12.1,36.7
						c0,0-4.9-4-5.7-13c-0.8-8.9,1.6-24.3,1.6-24.3L261.5,17.5z"/>
					<path class="st15" d="M261.5,17.5c0,0-2.4-2.7-7.3-4.9c-2.4-1.1-7.8,1.7-9.8,3.3c-8.8,6.9-15.3,16.4-21.8,25.3
						c-1.3,1.8-15.6,20.9-16.4,20.3c2.6,1.9,5.7,3.2,8.8,4c-0.7,9.6-1.3,19.5,1.1,28.8c0.9,3.4,2.3,6.9,4.2,9.9
						c-0.9-2-1.8-4.6-2.1-7.9c-0.8-8.9,1.6-24.3,1.6-24.3L261.5,17.5z"/>
					<g>
						<path class="st17" d="M235.2,91.6c0,0,1.6,0.9,3.6,2.6c1.8,1.5,2.8,3.4,6.8,3.6c4.4,0.3,6.1-2,7.8-3.5c1.6-1.4,2.9-2,2.9-2
							L235.2,91.6z"/>
						<path class="st18" d="M235.2,91.6c0,0,5.7,2.5,11.3,2.4c5.7-0.1,9.8-1.8,9.8-1.8L235.2,91.6z"/>
						<path class="st19" d="M235.2,91.6c0,0,8-2.1,9.1-1.8c1.5,0.5,1.5,0.7,2,0.8c0.8,0.1,1.3-0.8,2.7-0.6c1.4,0.3,7.4,2.2,7.4,2.2
							s-5.9,1.6-10.9,1.3C240.6,93.2,235.2,91.6,235.2,91.6z"/>
						<path class="st20" d="M248.8,95.9c0,0.5-1.3,0.9-2.8,0.8s-2.7-0.5-2.7-0.9s1.3-0.9,2.8-0.8C247.6,95,248.8,95.4,248.8,95.9z"
							/>
						<path class="st17" d="M249.9,91c0,0.3-0.5,0.5-1,0.5s-1-0.3-1-0.5s0.5-0.5,1-0.5C249.5,90.5,249.9,90.7,249.9,91z"/>
					</g>
					<g>
						<path class="st21" d="M245.8,85.6c-0.1,0-0.3,0-0.3-0.1c-0.4-0.1-0.7-0.5-1.1-0.7c-0.5-0.4-1.1-0.6-1.6-0.7
							c-0.4-0.1-0.7,0-1.1-0.3c-0.5-0.3-0.7-1.1-0.7-1.8c0-0.5,0.1-1.1,0.4-1.5c0.1-0.2,0.3-0.5,0.5-0.5c0.2-0.1,0.3,0.1,0.3,0.3
							c-0.1,0.2-0.1,0.4-0.3,0.5c-0.1,0.3-0.2,0.5-0.3,0.8c-0.1,0.4,0,0.8,0.2,1.1c0.2,0.3,0.5,0.3,0.8,0.4c0.5,0,1.1-0.1,1.6,0.1
							s1,0.7,1.5,0.8c0.5,0.1,0.9-0.3,1.4-0.6c0.5-0.3,0.9-0.1,1.4,0c0.3,0.1,0.7,0,1-0.2s0.5-0.6,0.5-1c0.1-0.5-0.1-0.7-0.3-1.1
							c-0.1-0.3,0-0.7,0.3-0.5c0.5,0.3,0.7,1.1,0.6,1.8c-0.1,0.8-0.6,1.5-1.2,1.8c-0.3,0.1-0.6,0-0.9,0c-0.4,0-0.8,0.2-1.1,0.5
							C246.8,85,246.4,85.5,245.8,85.6z"/>
					</g>
					<g>
						<path class="st22" d="M229.2,69.3c0,0,2.3,0.8,4.8,0.3c2-0.3,3-0.8,3-0.8l2.2-0.5c0,0-5.1-5.4-8.5-4.9c-3.3,0.5-5.5,3-5.5,3
							s1.1,0.7,1.5,1.2C227.2,68.1,228.2,69.1,229.2,69.3z"/>
						<g>
							<circle cx="232.1" cy="66.4" r="2.9"/>
							<circle class="st23" cx="232.1" cy="66.4" r="1.7"/>
							<path class="st22" d="M232.2,66.1c0,0.3-0.3,0.7-0.7,0.7c-0.3,0-0.7-0.3-0.7-0.7c0-0.3,0.3-0.7,0.7-0.7
								C231.9,65.5,232.2,65.8,232.2,66.1z"/>
							<path class="st23" d="M233.8,67.5c0,0.2-0.1,0.4-0.4,0.4c-0.3,0-0.4-0.1-0.4-0.4c0-0.2,0.1-0.4,0.4-0.4
								C233.6,67.2,233.8,67.3,233.8,67.5z"/>
						</g>
						<path class="st18" d="M240,69.8"/>
						<path d="M239.8,68.7c0,0-4-5.3-8.1-5.7c-0.5-0.7-0.6-1.5-0.3-2.3c-0.6,0.6-0.8,1.5-0.6,2.3c-0.4,0-0.7,0.1-1.1,0.1
							c-0.6-0.5-0.9-1.4-0.9-2.2c-0.5,0.7-0.5,1.7-0.1,2.4c-0.4,0.1-0.9,0.3-1.2,0.5c-0.2-0.1-0.3-0.3-0.5-0.5
							c-0.3-0.4-0.4-0.9-0.3-1.4c-0.2,0.5-0.3,1.1-0.1,1.5c0.1,0.3,0.1,0.5,0.3,0.7c-0.3,0.2-0.7,0.5-1,0.7
							c-0.8-0.3-1.4-1.1-1.6-1.9c-0.1,0.6,0,1.2,0.3,1.7c0.1,0.3,0.3,0.5,0.6,0.7c-0.7,0.5-1.3,1-1.8,1.3c0,0,2.5,0.4,3.2,1
							s0.9,1.3,2.6,1.6c0,0-1-0.5-1.6-1.4c-0.7-1-1.1-1.3-1.1-1.3s2-2.9,4.7-2.5c3.7,0.5,7.1,4.2,7.1,4.2l-1.3,0.7L239.8,68.7z"/>
					</g>
					<g>
						<path class="st22" d="M264.4,69.3c0,0-2.3,0.8-4.8,0.3c-2-0.3-3-0.8-3-0.8l-2.2-0.5c0,0,5.1-5.4,8.5-4.9c3.3,0.5,5.5,3,5.5,3
							s-1.1,0.7-1.5,1.2C266.4,68.1,265.5,69.1,264.4,69.3z"/>
						<g>
							<circle cx="261.5" cy="66.4" r="2.9"/>
							<circle class="st23" cx="261.5" cy="66.4" r="1.7"/>
							<path class="st22" d="M261.5,66.1c0,0.3,0.3,0.7,0.7,0.7c0.3,0,0.7-0.3,0.7-0.7c0-0.3-0.3-0.7-0.7-0.7
								C261.7,65.5,261.5,65.8,261.5,66.1z"/>
							<path class="st23" d="M259.9,67.5c0,0.2,0.1,0.4,0.4,0.4s0.4-0.1,0.4-0.4c0-0.2-0.1-0.4-0.4-0.4S259.9,67.3,259.9,67.5z"/>
						</g>
						<path class="st18" d="M253.6,69.8"/>
						<path d="M253.9,68.7c0,0,4-5.3,8.1-5.7c0.5-0.7,0.6-1.5,0.3-2.3c0.6,0.6,0.8,1.5,0.6,2.3c0.4,0,0.7,0.1,1.1,0.1
							c0.6-0.5,0.9-1.4,0.9-2.2c0.5,0.7,0.5,1.7,0.1,2.4c0.4,0.1,0.9,0.3,1.2,0.5c0.2-0.1,0.3-0.3,0.5-0.5c0.3-0.4,0.4-0.9,0.3-1.4
							c0.2,0.5,0.3,1.1,0.1,1.5c-0.1,0.3-0.1,0.5-0.3,0.7c0.3,0.2,0.7,0.5,1,0.7c0.8-0.3,1.4-1.1,1.6-1.9c0.1,0.6,0,1.2-0.3,1.7
							c-0.1,0.3-0.3,0.5-0.6,0.7c0.7,0.5,1.3,1,1.8,1.3c0,0-2.5,0.4-3.2,1s-0.9,1.3-2.6,1.6c0,0,1-0.5,1.6-1.4
							c0.7-1,1.1-1.3,1.1-1.3s-2-2.9-4.7-2.5c-3.7,0.5-7.1,4.2-7.1,4.2l1.3,0.7L253.9,68.7z"/>
					</g>
					<path class="st15" d="M253.7,60.4c0.3,0.5,0.9,0.6,1.5,0.3c2.2-1.2,8-4.1,10.7-4.2c3.4-0.1,8.4,2.3,8.4,2.3s-6.6-4-10-3.9
						c-2.6,0.1-7.9,2.7-10.2,3.8c-0.4,0.2-0.6,0.6-0.6,0.9C253.5,60,253.6,60.2,253.7,60.4L253.7,60.4z"/>
					<path class="st15" d="M240.6,60.4c-0.3,0.5-0.9,0.6-1.5,0.3c-2.2-1.2-8-4.1-10.7-4.2c-3.4-0.1-8.4,2.3-8.4,2.3s6.6-4,10-3.9
						c2.6,0.1,7.9,2.7,10.2,3.8c0.4,0.2,0.6,0.6,0.6,0.9C240.8,60,240.8,60.2,240.6,60.4L240.6,60.4z"/>
					<path class="st16" d="M259.8,36.8c0,0-17.5,34.2-58.6,25.7c0,0,10.3-1.3,24.1-17.7c13.9-16.4,22.2-29.2,32.2-28.2
						c9.7,1,18.1,10.4,21.4,19.1c4.8,12.7,3.2,28,3.1,41.4c0,9.2-1.1,20.4-7.8,27.5c-2.6,2.8-6.1,4.6-9.9,5.2c0,0,7.7-4.6,9.8-16.8
						c2.2-12.2,0.5-28.6,0.5-28.6l-2.2,15.7C272.6,80.1,274.7,63.3,259.8,36.8z"/>
					<g>
						<path class="st15" d="M281.9,48.1c-1.3-3.8-2.8-7.6-4.7-11.1c-3.5-6.3-8.4-12.1-14.7-15.5c-6.7,19.3-22.6,35.2-41.7,42.1
							C248,60.2,260,36.9,260,36.9c13.3,23.2,12.9,39,12.7,43.3l2.2-15.6c0,0,1.7,16.4-0.5,28.6s-9.8,16.8-9.8,16.8
							c3.8-0.6,7.3-2.4,9.9-5.2c6.6-7.1,7.7-18.3,7.8-27.5C282.1,67.8,282.9,57.7,281.9,48.1z"/>
					</g>
				</g>
			</g>
		</g>
	</g>
	<path class="st4" d="M186.2,179.1l5.8,3.3l0.8,0.5l10.4-13.1l-2.3-12.3l-0.6-1.8c0,0-8.8,3.6-11.5,9.2S186.2,179.1,186.2,179.1z"/>
	<path class="st3" d="M204.3,129.9c0,0-8.5,4.6-12.8,9.5s-11.2,11.1-19.1,29.7c-1.5,3.6-1.5,3.6-1.5,3.6l15.2,6.5l14-23.4
		L204.3,129.9z"/>
	<path class="st3" d="M292.5,136.3c7.5,6.7,19.1,34.4,19.1,34.4l-13.7,11.6l-6.1-9.4c0,0-1.3-6.9-3.9-13.5s-3.5-14.5-3.5-14.5
		l-3.2-15.2C281.2,129.7,289.2,133.4,292.5,136.3z"/>
	<polygon class="st4" points="297.7,182.3 292.3,187.1 289.2,182.8 286.5,177.4 289.4,169 290.8,171.2 	"/>
</g>
</svg>
