<?xml version="1.0" encoding="utf-8"?>
<!-- Generator: Adobe Illustrator 23.0.1, SVG Export Plug-In . SVG Version: 6.00 Build 0)  -->
<svg version="1.1" id="Layer_1" xmlns="http://www.w3.org/2000/svg" xmlns:xlink="http://www.w3.org/1999/xlink" x="0px" y="0px"
	 viewBox="0 0 1000 640" style="enable-background:new 0 0 1000 640;" xml:space="preserve">
<style type="text/css">
	.st0{fill:#302F2F;}
	.st1{fill:#0C0C0C;}
	.st2{fill:#EFEAEA;}
	.st3{fill:#08631E;}
</style>
<g id="table">
	<g>
		<path class="st0" d="M754.4,334.7H154.2c-1.1,0-2-0.9-2-2v-10.6c0-1.1,0.9-2,2-2h600.2c1.1,0,2,0.9,2,2v10.6
			C756.4,333.9,755.4,334.7,754.4,334.7z"/>
		<polygon class="st0" points="137.6,332.6 154.2,320.2 164.6,320.2 163,342.3 142.8,339.3 		"/>
		<polygon class="st0" points="136.3,333 153,320.6 151.1,334.7 139.2,337.2 		"/>
		<polygon class="st0" points="738.9,346.7 755.6,334.3 755.6,328.7 729.7,328 730.5,344.2 		"/>
		<path class="st1" d="M151,612.6h-4.4c-1.1,0-2-0.9-2-2V346.3c0-1.1,0.9-2,2-2h4.4c1.1,0,2,0.9,2,2v264.3
			C153,611.7,152.1,612.6,151,612.6z"/>
		<path class="st0" d="M174,592.4h-4.4c-1.1,0-2-0.9-2-2V326.2c0-1.1,0.9-2,2-2h4.4c1.1,0,2,0.9,2,2v264.3
			C176,591.6,175.1,592.4,174,592.4z"/>
		<path class="st1" d="M722.1,612.6h-4.4c-1.1,0-2-0.9-2-2V346.3c0-1.1,0.9-2,2-2h4.4c1.1,0,2,0.9,2,2v264.3
			C724,611.7,723.2,612.6,722.1,612.6z"/>
		<path class="st0" d="M745,592.4h-4.4c-1.1,0-2-0.9-2-2V326.2c0-1.1,0.9-2,2-2h4.4c1.1,0,2,0.9,2,2v264.3
			C747,591.6,746.1,592.4,745,592.4z"/>
		<path class="st1" d="M737.8,347.1H137.6c-1.1,0-2-0.9-2-2v-10.6c0-1.1,0.9-2,2-2h600.2c1.1,0,2,0.9,2,2v10.6
			C739.7,346.1,738.8,347.1,737.8,347.1z"/>
	</g>
	<g>
		<rect x="230.4" y="336.6" class="st2" width="414.4" height="172.8"/>
		<g>
			<circle class="st0" cx="237.6" cy="343.7" r="2.8"/>
			<circle class="st0" cx="317.6" cy="343.7" r="2.8"/>
			<circle class="st0" cx="397.6" cy="343.7" r="2.8"/>
			<circle class="st0" cx="477.7" cy="343.7" r="2.8"/>
			<circle class="st0" cx="557.7" cy="343.7" r="2.8"/>
			<circle class="st0" cx="637.7" cy="343.7" r="2.8"/>
		</g>
		<g>
			<path class="st1" d="M302.4,414.4v7.4h-6.1v-22h9.2c2.6,0,4.7,0.7,6.1,2s2.1,3.1,2.1,5.3c0,1.4-0.3,2.6-0.9,3.8
				c-0.6,1.1-1.5,2-2.8,2.6c-1.3,0.7-2.7,0.9-4.5,0.9L302.4,414.4L302.4,414.4z M307.4,407.1c0-1.6-0.9-2.4-2.7-2.4h-2.3v4.9h2.3
				C306.5,409.6,307.4,408.7,307.4,407.1z"/>
			<path class="st1" d="M332.3,400.8c1.7,1,3,2.3,4,4s1.5,3.6,1.5,5.8s-0.5,4.1-1.5,5.8c-1,1.7-2.4,3-4.1,4s-3.6,1.5-5.7,1.5
				c-2,0-4-0.5-5.7-1.5s-3.1-2.3-4.1-4s-1.5-3.6-1.5-5.8s0.5-4.1,1.5-5.8c1-1.7,2.4-3,4.1-4s3.6-1.5,5.7-1.5
				C328.6,399.4,330.6,399.9,332.3,400.8z M322.9,406.6c-0.9,1-1.3,2.4-1.3,4.1s0.5,3,1.3,4.1c0.9,1,2.1,1.5,3.7,1.5
				c1.5,0,2.8-0.5,3.6-1.5c0.9-1,1.3-2.4,1.3-4.1s-0.5-3.1-1.3-4.1c-0.9-1-2.1-1.5-3.6-1.5C325,405,323.8,405.6,322.9,406.6z"/>
			<path class="st1" d="M346.6,417.1h6.9v4.6h-13v-22h6.1V417.1z"/>
			<path class="st1" d="M361.9,417.1h6.9v4.6h-13v-22h6.1V417.1L361.9,417.1z"/>
			<path class="st1" d="M377.2,399.8v22h-6.1v-22H377.2z"/>
			<path class="st1" d="M400.9,421.7h-6.1l-8.1-12.3v12.3h-6.1v-22h6.1l8.1,12.5v-12.5h6.1V421.7z"/>
			<path class="st1" d="M421.6,401.6c1.8,1.4,2.9,3.2,3.2,5.5h-6.5c-0.3-0.6-0.8-1.1-1.5-1.5c-0.7-0.3-1.4-0.5-2.2-0.5
				c-1.5,0-2.7,0.5-3.6,1.5s-1.3,2.4-1.3,4c0,1.9,0.5,3.4,1.4,4.4s2.3,1.5,4.2,1.5c1.1,0,2-0.3,2.7-0.7c0.8-0.5,1.4-1.3,1.8-2.2
				h-6.1v-4.4H425v6.1c-0.8,1.8-2,3.4-3.8,4.7c-1.7,1.3-3.9,1.9-6.5,1.9c-2.2,0-4.2-0.5-5.9-1.4c-1.6-0.9-3-2.2-3.9-4
				c-0.9-1.7-1.4-3.6-1.4-5.8c0-2.2,0.5-4.1,1.4-5.8c0.9-1.7,2.2-3,3.8-4c1.6-0.9,3.6-1.4,5.9-1.4
				C417.5,399.6,419.9,400.2,421.6,401.6z"/>
			<path class="st1" d="M439.6,399.8v12.5c0,1.3,0.3,2.2,0.8,2.9c0.5,0.7,1.4,1,2.5,1s2-0.3,2.5-1.1c0.6-0.7,0.9-1.6,0.9-2.8v-12.5
				h6.1v12.5c0,2-0.4,3.8-1.3,5.3s-2,2.6-3.4,3.3c-1.5,0.7-3.1,1.1-4.9,1.1s-3.4-0.3-4.8-1.1c-1.4-0.7-2.5-1.8-3.3-3.2
				c-0.8-1.5-1.2-3.2-1.2-5.3v-12.5L439.6,399.8L439.6,399.8z"/>
			<path class="st1" d="M475.9,421.7h-6.1l-8.1-12.3v12.3h-6.1v-22h6.1l8.1,12.5v-12.5h6.1V421.7z"/>
			<path class="st1" d="M485.4,399.8v22h-6.1v-22H485.4z"/>
			<path class="st1" d="M505.4,399.8v4.9h-5.9v17.1h-6.1v-17.1h-5.9v-4.9H505.4z"/>
			<path class="st1" d="M512.7,410.5c0-3.4,0.7-6.1,2.2-8.1s3.8-3,6.8-3s5.3,1,6.9,3c1.5,2,2.2,4.7,2.2,8.1s-0.7,6.1-2.2,8.1
				s-3.8,3-6.9,3s-5.3-1-6.8-3S512.7,413.9,512.7,410.5z M524.7,410.5c0-1.7-0.2-3-0.6-4c-0.4-0.9-1.2-1.4-2.4-1.4
				c-1.3,0-2,0.5-2.4,1.4s-0.6,2.2-0.6,4c0,1.7,0.2,3,0.6,4c0.4,0.9,1.2,1.4,2.4,1.4c1.3,0,2-0.5,2.4-1.4
				C524.5,413.5,524.7,412.2,524.7,410.5z"/>
			<path class="st1" d="M539.6,411.1c1.7-1.8,2.6-3.4,2.6-4.7c0-1.4-0.5-2-1.6-2c-0.6,0-1.1,0.3-1.4,0.7c-0.3,0.5-0.5,1.3-0.5,2.4
				h-5.9c0.1-2.8,0.9-4.8,2.5-6.2c1.5-1.4,3.4-2,5.7-2c2.5,0,4.4,0.6,5.5,1.8c1.2,1.3,1.8,2.8,1.8,4.7c0,2-0.7,4-2.2,5.9
				s-3.2,3.5-5.4,4.8h7.9v4.9h-15.9v-4.6C535.6,414.8,537.8,412.9,539.6,411.1z"/>
			<path class="st1" d="M549.7,405.5v-5.7h9.7v22H553v-16.3H549.7z"/>
			<path class="st1" d="M572.3,404.2c-0.3-0.4-0.9-0.5-1.5-0.5c-1,0-1.6,0.5-2,1.5c-0.4,0.9-0.6,2.4-0.5,4.4
				c0.3-0.7,0.9-1.3,1.7-1.6s1.7-0.6,2.7-0.6c2,0,3.6,0.6,4.9,1.8c1.2,1.3,1.8,3,1.8,5.3c0,1.5-0.3,2.8-0.9,4
				c-0.7,1.1-1.5,2-2.7,2.6c-1.2,0.7-2.6,0.9-4.2,0.9c-3.2,0-5.5-1-6.7-3c-1.3-2-1.9-4.7-1.9-8.3c0-2.8,0.3-5,0.9-6.8
				c0.6-1.7,1.5-3,2.7-3.9c1.3-0.9,2.8-1.3,4.9-1.3c2.4,0,4.2,0.7,5.4,2c1.3,1.4,1.9,3,2,5.1h-5.7
				C572.9,405.1,572.7,404.6,572.3,404.2z M569.3,416c0.5,0.5,1.1,0.7,1.8,0.7s1.3-0.2,1.8-0.6c0.4-0.4,0.7-1,0.7-1.8
				s-0.2-1.4-0.7-1.8s-1.1-0.6-1.8-0.6s-1.3,0.2-1.8,0.6s-0.7,1-0.7,1.7C568.7,415,568.8,415.6,569.3,416z"/>
		</g>
		<g>
			<path class="st3" d="M309.3,435l4.9,15.8l4.9-15.8h6.5l-7.5,22h-7.8l-7.5-22H309.3z"/>
			<path class="st3" d="M343.8,436c1.7,1,3,2.3,4,4s1.5,3.6,1.5,5.8s-0.5,4.1-1.5,5.8c-1,1.7-2.4,3-4.1,4s-3.6,1.5-5.7,1.5
				c-2,0-4-0.5-5.7-1.5s-3.1-2.3-4.1-4s-1.5-3.6-1.5-5.8s0.5-4.1,1.5-5.8c1-1.7,2.4-3,4.1-4s3.6-1.5,5.7-1.5
				C340.3,434.6,342.1,435.1,343.8,436z M334.5,441.8c-0.9,1-1.3,2.4-1.3,4.1s0.5,3,1.3,4.1c0.9,1,2.1,1.5,3.7,1.5
				c1.5,0,2.8-0.5,3.6-1.5c0.9-1,1.3-2.4,1.3-4.1s-0.5-3.1-1.3-4.1s-2.1-1.5-3.6-1.5C336.6,440.3,335.4,440.8,334.5,441.8z"/>
			<path class="st3" d="M368.7,435v4.9h-5.9V457h-6.1v-17.1h-5.9V435H368.7z"/>
			<path class="st3" d="M376.8,435v22h-6.1v-22H376.8z"/>
			<path class="st3" d="M400.5,456.9h-6.1l-8.1-12.3v12.3h-6.1v-22h6.1l8.1,12.5V435h6.1V456.9z"/>
			<path class="st3" d="M421.2,436.8c1.8,1.4,2.9,3.2,3.2,5.5H418c-0.3-0.6-0.8-1.1-1.5-1.5c-0.7-0.3-1.4-0.5-2.2-0.5
				c-1.5,0-2.7,0.5-3.6,1.5s-1.3,2.4-1.3,4c0,1.9,0.5,3.4,1.4,4.4s2.3,1.5,4.2,1.5c1.1,0,2-0.3,2.7-0.7c0.8-0.5,1.4-1.3,1.8-2.2
				h-6.1v-4.4h11.1v6.1c-0.8,1.8-2,3.4-3.8,4.7c-1.7,1.3-3.9,1.9-6.5,1.9c-2.2,0-4.2-0.5-5.9-1.4c-1.6-0.9-3-2.2-3.9-4
				c-0.9-1.7-1.4-3.6-1.4-5.8s0.5-4.1,1.4-5.8c0.9-1.7,2.2-3,3.8-4c1.6-0.9,3.6-1.4,5.9-1.4C417.2,434.8,419.5,435.4,421.2,436.8z"
				/>
			<path class="st3" d="M439.3,449.6v7.4h-6.1v-22h9.2c2.6,0,4.7,0.7,6.1,2s2.1,3.1,2.1,5.3c0,1.4-0.3,2.6-0.9,3.8
				c-0.6,1.1-1.5,2-2.8,2.6c-1.3,0.7-2.7,0.9-4.5,0.9L439.3,449.6L439.3,449.6z M444.3,442.3c0-1.6-0.9-2.4-2.7-2.4h-2.3v4.9h2.3
				C443.4,444.8,444.3,443.9,444.3,442.3z"/>
			<path class="st3" d="M469.2,436c1.7,1,3,2.3,4,4s1.5,3.6,1.5,5.8s-0.5,4.1-1.5,5.8c-1,1.7-2.4,3-4.1,4s-3.6,1.5-5.7,1.5
				c-2,0-4-0.5-5.7-1.5s-3.1-2.3-4.1-4s-1.5-3.6-1.5-5.8s0.5-4.1,1.5-5.8c1-1.7,2.4-3,4.1-4s3.6-1.5,5.7-1.5
				C465.6,434.6,467.5,435.1,469.2,436z M459.8,441.8c-0.9,1-1.3,2.4-1.3,4.1s0.5,3,1.3,4.1c0.9,1,2.1,1.5,3.7,1.5
				c1.5,0,2.8-0.5,3.6-1.5c0.9-1,1.3-2.4,1.3-4.1s-0.5-3.1-1.3-4.1c-0.9-1-2.1-1.5-3.6-1.5C461.9,440.3,460.7,440.8,459.8,441.8z"/>
			<path class="st3" d="M483.6,435v22h-6.1v-22H483.6z"/>
			<path class="st3" d="M507.2,456.9h-6.1l-8.1-12.3v12.3h-6.1v-22h6.1l8.1,12.5V435h6.1V456.9L507.2,456.9z"/>
			<path class="st3" d="M527.2,435v4.9h-5.9V457h-6.1v-17.1h-5.9V435H527.2z"/>
			<path class="st3" d="M534.5,445.7c0-3.4,0.7-6.1,2.2-8.1s3.8-3,6.8-3s5.3,1,6.9,3c1.5,2,2.2,4.7,2.2,8.1s-0.7,6.1-2.2,8.1
				s-3.8,3-6.9,3c-3.1,0-5.3-1-6.8-3S534.5,449.2,534.5,445.7z M546.5,445.7c0-1.7-0.2-3-0.6-4s-1.2-1.4-2.4-1.4
				c-1.3,0-2,0.5-2.4,1.4s-0.6,2.2-0.6,4c0,1.7,0.2,3,0.6,4c0.4,0.9,1.2,1.4,2.4,1.4c1.3,0,2-0.5,2.4-1.4
				C546.3,448.8,546.5,447.4,546.5,445.7z"/>
			<path class="st3" d="M567.1,434.7c1.1,0.5,2,1.3,2.6,2.2c0.6,0.9,0.9,2,0.9,3.2c0,1.5-0.3,2.6-1.1,3.4c-0.7,0.9-1.5,1.4-2.5,1.6
				v0.1c2.6,0.9,4,2.7,4,5.3c0,1.3-0.3,2.4-0.9,3.4c-0.6,1-1.5,1.8-2.6,2.3s-2.5,0.8-4.1,0.8c-2.6,0-4.7-0.7-6.2-1.9
				c-1.5-1.3-2.3-3.2-2.4-5.9h5.9c-0.1,1.8,0.7,2.7,2.3,2.7c0.5,0,1-0.2,1.3-0.5s0.5-0.9,0.5-1.4c0-0.7-0.3-1.3-0.8-1.6
				c-0.5-0.4-1.3-0.5-2.4-0.5h-1.1V443h1.1c0.8,0,1.5-0.1,2-0.4s0.8-0.9,0.8-1.7c0-0.7-0.1-1.1-0.5-1.5s-0.7-0.5-1.3-0.5
				s-1,0.2-1.3,0.7s-0.5,1-0.5,1.7h-5.9c0.1-2.4,0.8-4.2,2.2-5.5s3.3-1.9,5.7-1.9C564.6,433.9,565.9,434.1,567.1,434.7z"/>
		</g>
	</g>
</g>
</svg>
