<?xml version="1.0" encoding="utf-8"?>
<!-- Generator: Adobe Illustrator 23.0.0, SVG Export Plug-In . SVG Version: 6.00 Build 0)  -->
<svg version="1.1" id="Layer_1" xmlns="http://www.w3.org/2000/svg" xmlns:xlink="http://www.w3.org/1999/xlink" x="0px" y="0px"
	 viewBox="0 0 1000 640" style="enable-background:new 0 0 1000 640;" xml:space="preserve">
<style type="text/css">
	.st0{fill:#9F653E;}
	.st1{fill:#4152A4;}
	.st2{fill:#FFFFFF;}
	.st3{fill:#502E1C;}
	.st4{fill:#D73D33;}
	.st5{fill:#233882;}
	.st6{fill:#050404;}
	.st7{fill:#854D2C;}
	.st8{opacity:0.1;fill:#171211;enable-background:new    ;}
	.st9{fill:none;stroke:#FFFFFF;stroke-width:7;stroke-miterlimit:10;}
</style>
<g id="woman-2">
	<g>
		<g>
			<path class="st0" d="M555.6,574.9c7.7,10.6,18.2,19.7,18.2,19.7s0.1,0.1,0.3,0.3c-11,0-22.3,8.4-22.3,8.4l-15.6-11.6
				c0,0-0.2-4-1.4-8.7C536.7,581,544.5,573.7,555.6,574.9z"/>
			<path class="st1" d="M525.1,567.8c0.2,0.1,0.4,0.1,0.6,0.2c3.1,1.6,5.3,4.7,6.8,8.3l0,0c4.7-6.1,13.4-7.3,19.2-7.3
				c1.2,2,2.5,4,3.9,6c-11.1-1.2-18.9,6.1-20.9,8.1l0,0c1.1,4.7,1.4,8.7,1.4,8.7l15.6,11.6c0,0,11.3-8.4,22.3-8.4
				c1.6,1.7,10.6,11.8,6.7,15.9c-8.1,8.7-23.2,2.3-29-2.3s-18.4-12.2-23.2-17.9C524.6,585.8,522.3,579.8,525.1,567.8z"/>
			<path class="st0" d="M487.5,574.9c-7.7,10.6-18.2,19.7-18.2,19.7s-0.1,0.1-0.3,0.3c11,0,22.3,8.4,22.3,8.4l15.6-11.6
				c0,0,0.2-4,1.4-8.7C506.4,581,498.7,573.7,487.5,574.9z"/>
			<path class="st1" d="M518,567.8c-0.2,0.1-0.4,0.1-0.6,0.2c-3.1,1.6-5.3,4.7-6.8,8.3l0,0c-4.7-6.1-13.4-7.3-19.2-7.3
				c-1.2,2-2.5,4-3.9,6c11.1-1.2,18.9,6.1,20.9,8.1l0,0c-1.1,4.7-1.4,8.7-1.4,8.7l-15.6,11.6c0,0-11.3-8.4-22.3-8.4
				c-1.6,1.7-10.6,11.8-6.7,15.9c8.1,8.7,23.2,2.3,28.9-2.3c5.8-4.6,18.4-12.2,23.2-17.9C518.5,585.8,520.9,579.8,518,567.8z"/>
			<path class="st0" d="M521.6,430l1.1,0.2c0,0-0.4,4.8-1.1,12.6c0.4,5.1,0.9,11.4,1.5,18.5c2.7,36.1,6.4,92,3.3,102
				c-0.5,1.6-0.8,3-1.2,4.4c0.2,0.1,0.4,0.1,0.6,0.2c3.1,1.6,5.3,4.7,6.8,8.3c4.7-6.1,13.4-7.3,19.2-7.3c-0.2-0.3-0.4-0.6-0.5-0.9
				c-3.5-6.4,1.6-22.7,3.5-40.5c2.4-22.8,4.9-52.8,6.6-74.7c1.3-16.9,2.1-29,2.1-29L521.6,430z"/>
			<path class="st0" d="M521.6,430l-41.8-6.2c0,0,0.8,11.3,2,27.5c1.7,22,4.2,52.9,6.7,76.2c1.9,17.8,6.9,34.2,3.5,40.5
				c-0.2,0.3-0.4,0.6-0.5,0.9c5.8,0,14.5,1.3,19.2,7.3c1.5-3.5,3.7-6.7,6.8-8.3c0.2-0.1,0.4-0.1,0.6-0.2c-0.3-1.4-0.7-2.8-1.2-4.4
				c-3.1-10.1,0.5-66,3.3-102.1c0.5-7.1,1-13.4,1.5-18.5c-0.6-7.8-1.1-12.6-1.1-12.6L521.6,430z"/>
		</g>
		<g>
			<path d="M526.6,50.5c0,0,12.9-6.2,26.6-0.4c13.4,5.7,19.1,12.5,27.5,32.9c8.3,20.4,0.4,28.3,9.2,32.4
				c8.7,4.2,28.9,18.7,18.3,29.5c-10.6,10.8-13.1,13.9-4.6,18.7c9.2,5.2,12.9,27.5-0.8,31.2s-14.6,8.3-10.4,12.5
				c4.2,4.2,10.4,2.1,10.4,2.1s-5.8,12.1-15.8,5s-35-16.2-37.4-15c-2.5,1.2-23.3,17.9-32.5,13.7s-25.4-15-31.6-9.6s-9.2-2.6-9.2-2.6
				s-17.5,10.5-25-7.6c5.4,3.5,9.2,1.5,10.4-4.8c1.3-6.2-8.3-11.6-10.4-17.5c-2.1-5.8,2.5-17.9,11.7-25.8c9.2-7.9,8.2-10.5,0.4-19.6
				c-5.2-6-6.9-13.7,4-21.4c10.8-7.7,9.8-19.3,14.8-36.4C485.3,57.2,505.8,32.2,526.6,50.5z"/>
			<path class="st0" d="M521.1,179.8c-2.7-0.3-4.9-0.8-6.8-1.2c1.1-4.2,1.4-9.5,1-16.5c-0.6-10.4,26.1-0.6,26.1-0.6
				s-0.7,4.9-0.6,10.3C536.7,175.3,529,180.8,521.1,179.8z"/>
			<path class="st0" d="M501.1,189c0,0,8.7-0.9,11-4.9c0.9-1.6,1.6-3.5,2.2-5.5c1.9,0.4,4.1,0.9,6.8,1.2c8,1,15.6-4.4,19.7-7.9
				c0.2,6.2,1.5,13.1,6.4,14c11.2,2.1,9,1.7,9,1.7s-2.4,7.7-7.5,14.8c-7.3,6.5-18.4,10.1-28.8,10.3C504.5,206.9,501.1,189,501.1,189
				z"/>
			<g>
				<path class="st0" d="M537,67.4c22.2,1.9,27,31.4,27.3,45.9c2-1,6.3-0.5,9.1,4.4c3.8,6.3-1.2,20-12.6,19.7
					c-1.6,4.4-5.6,10.5-10.5,15.9c-11.2,12.5-19.7,15-25.8,15c-7.5,0-13.4-3.6-22.9-15c-16.4-19.8-13.2-48.4-13.2-48.4
					C490.4,78.2,505.5,64.7,537,67.4z"/>
				<path class="st2" d="M550.9,117.8c0,0-2.2-3.8-6.8-5.2c-4.6-1.4-8-1.5-10.8,0.2s-2.2,1.5-2.2,1.5s-1.4,1.5,0.2,4.5
					c1.5,2.7,4,4.8,9.6,4.9C546.6,123.7,552.5,119.3,550.9,117.8z"/>
				<path class="st2" d="M511.9,115.8c0,0,2.1,2.3,0.1,4.3s-5.3,3.4-8.8,2.4s-5.9-4.2-6.9-5.5c-0.9-1.4,1.5-2.6,3.2-3.3
					C501.3,112.9,505.6,109.6,511.9,115.8z"/>
				<path d="M540.7,110.7c4.4,0.6,8.6,3.3,11.5,6.3c0.4,0.4,0.6,1.2,0,1.9c-0.5,0.6-2.2,1.8-2.7,2c-0.8,0.5-0.9-0.5-0.2-1.1
					c0.8-0.8,0.8-2.2-1.1-4c-2.6-2.4-6.2-3.6-9.8-3.5c-2.2,0-4.9,0.9-6.8,1.9c-1.1,0.6-1-0.3-0.4-0.9
					C533.8,110.9,537.1,110.2,540.7,110.7z"/>
				<path d="M495.9,115.3c5.2-4.4,8.3-4.1,10.6-3.6c2.6,0.5,5.6,2.2,6.8,5.2c0.4,0.9-0.4,1.1-0.8,0.5c-1.9-2.6-3.9-4.2-7.3-4.7
					c-3.5-0.5-5.7,1.4-8.2,3.9c0.3,0.7,0.8,1.5,1.2,2.1c0.9,1.1,0.8,1.9-0.3,1.1c-0.9-0.7-1.9-2.2-2.4-3.1
					C495.1,116.2,495.4,115.7,495.9,115.3z"/>
				<path d="M538.1,118.2c0,2.4,2,4.4,4.4,4.4s4.4-2,4.4-4.4s-2-4.4-4.4-4.4C540.1,113.7,538.1,115.7,538.1,118.2z"/>
				<path d="M501.8,117.8c0,2.3,1.8,4.1,4.1,4.1s4.1-1.8,4.1-4.1c0-2.3-1.8-4.1-4.1-4.1C503.6,113.7,501.8,115.6,501.8,117.8z"/>
				<path class="st2" d="M542.4,116.7c0,0.8,0.6,1.4,1.4,1.4s1.4-0.6,1.4-1.4s-0.6-1.4-1.4-1.4C543,115.3,542.4,115.9,542.4,116.7z"
					/>
				<path class="st2" d="M505.4,116.7c0,0.8,0.6,1.4,1.4,1.4s1.4-0.6,1.4-1.4s-0.6-1.4-1.4-1.4C506,115.3,505.4,115.9,505.4,116.7z"
					/>
				<path class="st3" d="M564.5,120.1c0,0,6.9-2.7,5,5.4c-1.7,7.2-6.9,5.2-6.9,5.2L564.5,120.1z"/>
				<path class="st3" d="M516.6,127.8c0.7-1.6,1.5-0.7,1.2,0.6c-0.3,1.8-0.4,3.7-0.4,5.5c0,3,0.4,3.7,1.5,5c0.4,0.4-0.6,1.4-1.5,0.9
					C511.1,137.1,515.4,130.6,516.6,127.8z"/>
				<path d="M532.2,100.2c2.6-2.6,7-2,10.1-0.9c4.7,1.7,8.6,4.7,11.9,8.9c1.8,2.3,0.3,2.1-0.8,1c-3.4-3.5-6.8-6.3-11.4-7.7
					c-3.3-1-5.8-1.1-8.9,0C531.8,101.8,531.4,101,532.2,100.2z"/>
				<path d="M501.5,98.5c2.4-1.3,6.7-1.9,8.9,0.3c0.8,0.8,0,1.6-0.7,1.3c-1-0.4-1.8-0.8-2.9-0.7c-3.2,0.2-4.3-0.3-10.8,6.8
					c-0.2,0.2-0.9,0.2-0.4-0.9C496.6,102.6,499,99.9,501.5,98.5z"/>
				<path class="st4" d="M511.6,147.3c1.9,1,3.1-0.8,4.6-1c1.2-0.1,2.5,0.7,3.1,1.6c1.6-2.4,4.2-1.8,6.6-0.9c2.7,1,5.3,2.2,8.2,1
					c0.6-0.2,1.1,0.5,0.6,1c-1,1-2.2,1.4-3.7,1.5c-0.7,2.1-5.9,4.3-7.5,4.5c-4.9,0.8-7.7-1.3-9.5-5.4c-1.3,0-2.6-0.8-3.6-1.7
					C509.4,147.1,510.9,147,511.6,147.3z"/>
			</g>
			<path d="M481.3,96.6c8.3-17.1,30.8-41.6,34.9-35.4c0.8,1.2,1.3,2.3,1.6,3.3c12.9-15.1,45.9,3.3,45.8,19.4
				c8.7-1.8,24,22.1,8.3,29.3c-13.5,6.2-16.3-10.1-16.9-17.2c-24.9,14.6-39-16-39-16s-3,10.6-16.3,11.5c0,7.9-9.7,21.2-18.2,17.6
				C481.5,109.1,472.9,113.7,481.3,96.6z"/>
		</g>
		<g>
			<path class="st0" d="M577.7,326.2c0,0,9.4-2.6,10.9,0.9s-10.6,5.6-12.5,5.4C574.1,332.4,577.7,326.2,577.7,326.2z"/>
			<path class="st0" d="M598.8,266.8L570.3,242c0,0-0.1,0.2-0.1,0.4c-5.7-7.9-10.9-20.2-10.9-31.7c0-9.3,3.4-17.4,5.2-21
				c2.1,0.6,4.2,1.2,6.3,1.9c8,2.7,10.7,7.3,17.1,16.5c12.4,18,27.6,44,31.5,50c5.2,8.1,3.2,13.1-1.8,22.1
				c-4.8,8.7-21.7,23.3-32.4,33.7c-2.1,2-8.3,17.4-9.3,18.3c-3.8-8.3-8.7-15.1-11-20.7c0,0,5.7-8.3,6.8-10.2
				C577.5,292,598.8,266.8,598.8,266.8z"/>
		</g>
		<g>
			<path class="st0" d="M484.8,323.3c0,0-12.3-1.8-13.2,1.8c-1.4,5.7,14.1,4.8,14.1,4.8L484.8,323.3z"/>
			<path class="st0" d="M441.4,248.2c10.3-17.5,27-39.8,34.5-47.9c4.1-4.4,9.1-6.9,12.9-8.3c-3.3,5.8-7,17.4-8,29.6
				c-0.4,4.6,0.2,13.1,1.5,20.3L459,262.3c0,0,20.3,23,26.2,30.6c2.3,2.9,8.8,11.8,8.8,11.8c-2.4,7.1-5.3,15.5-8.2,22.7
				c-2.8,0.4-6.5-0.8-10-19.1C463,293.5,448,279.1,441,272.5C433,265,433.7,261.2,441.4,248.2z"/>
		</g>
		<g>
			<path class="st1" d="M577.7,330.8c-3.8-8.3-7-15.8-9.4-21.5c-2-4.7-3.3-8.3-3.8-10c-1.8-7.3-3.4-12.7-4.2-16.6
				c-4.8,1.7-19.1,5.8-44.4,4.5c-9.7-0.5-15.9-1.5-19.7-2.3c-0.2,2.5-1.8,7.9-4,14.3c-2.4,7.1-5.6,15.4-8.5,22.6
				c-1.8,4.3-3.4,8.2-4.8,11.2c-5.8,12.7-30.7,71.8-30.7,71.8s2.1,4.1,6.7,9.7l47.7-104.6l-35.2,117.2c4,3.2,8.6,6.4,13.9,9.2
				l32.2-118.8l-13,126c6.1,1.5,12.9,2.4,20.2,2.6l10.2-125.7l8.4,124.7c7.3-0.8,13.9-2.1,20-3.7l-12.8-123.9l31.8,117.3
				c5.3-2.3,9.8-4.8,13.8-7.3L557,309.8l48.9,107.1c5.4-5,7.8-8.7,7.8-8.7S592.3,363.2,577.7,330.8z"/>
			<path class="st5" d="M605.9,416.9c-3.4,3.1-7.8,6.8-13.6,10.4L557,309.8L605.9,416.9z"/>
			<path class="st5" d="M454.8,414.4l47.7-104.6L467.3,427C462.1,422.6,457.9,418.1,454.8,414.4z"/>
			<path class="st5" d="M578.4,434.6c-5.6,2.5-11.9,4.7-19.1,6.6l-12.8-123.9L578.4,434.6z"/>
			<path class="st5" d="M500.6,443.3c-7.2-1.8-13.6-4.3-19.2-7.2l32.2-118.8L500.6,443.3z"/>
			<path class="st5" d="M539.4,444.8c-4,0.5-8.1,0.8-12.5,1c-2.1,0.1-4.1,0.1-6.1,0.1L531,320.2L539.4,444.8z"/>
			<path class="st1" d="M499.3,188.9l12.5-4.2c0,0-4.6,18.5,12.7,19.4c15.8,0.8,21.4-18.5,21.4-18.5s5.6,0.9,13,2.7
				c-8.1,16.2-5.1,31.5-2,42.8c2.3,8.5,8,14.1,11.5,17c-2,6.4-5,16.5-6.9,23.1c-3.8,0.9-25.1,5.6-44.5,5.1
				c-11.5-0.3-19-1.6-23.4-2.8c-3.9-12.9-10.7-32-10.7-32C480.3,217.9,494.2,196,499.3,188.9z"/>
			<path class="st5" d="M557,231c-3.1-11.2-6.1-26.6,2-42.8c1.8,0.4,3.6,0.9,5.6,1.5c-1.8,3.7-5.2,11.7-5.2,21
				c0,11.5,5.2,23.9,10.9,31.7c-0.3,0.8-0.9,2.9-1.7,5.5C565,245.1,559.3,239.5,557,231z"/>
			<path class="st5" d="M479.8,221.3c0.8-12.2,5.7-23.5,9-29.3c2.1-0.8,10.4-3.2,10.4-3.2c-5.1,7.1-19,29.1-16.4,52.6l-1,1.2
				C480.5,235.3,479.4,227.7,479.8,221.3z"/>
			<path class="st5" d="M548.3,186c0,0-6.5,22.6-26.1,20.3c-19.5-2.3-13.2-20.6-13.2-20.6l3-1.2c0,0-4.1,15,9.8,16.5
				c16.4,1.8,23.2-15.8,23.2-15.8L548.3,186z"/>
			<path class="st5" d="M515.9,287.2c-9.7-0.5-15.9-1.5-19.7-2.3c0-0.2,0-0.4,0-0.6c0-1.6-1.1-5.8-2.6-10.9
				c4.5,1.1,11.9,2.5,23.4,2.8c19.4,0.5,40.7-4.2,44.5-5.1c-0.9,3.1-1.5,5.4-1.7,6.2c-0.2,1.3,0,3.1,0.4,5.4
				C555.5,284.4,541.2,288.6,515.9,287.2z"/>
		</g>
	</g>
</g>
<g id="sign">
	
		<rect x="743.6" y="472.7" transform="matrix(0.9935 -0.1136 0.1136 0.9935 -58.176 88.9856)" class="st6" width="16.2" height="164.5"/>
	
		<rect x="614.6" y="357.1" transform="matrix(0.9935 -0.1136 0.1136 0.9935 -43.5615 86.4599)" class="st7" width="244.5" height="136.7"/>
	<g>
		<path class="st2" d="M675.4,405.2l0.8,6.8l-6.8,0.8l-2.5-21.5l9.4-1.1c2.6-0.3,4.7,0.1,6.3,1.3c1.6,1.2,2.5,2.9,2.7,5.1
			c0.2,1.4,0,2.6-0.5,3.8c-0.5,1.2-1.3,2.2-2.5,2.9c-1.2,0.8-2.6,1.3-4.3,1.5L675.4,405.2z M678.6,397.4c-0.2-1.3-0.9-1.9-2.3-1.7
			l-1.9,0.2l0.5,4l1.9-0.2C678.1,399.5,678.8,398.7,678.6,397.4z"/>
		<path class="st2" d="M702.9,388.2c1.8,0.8,3.3,1.9,4.5,3.5s1.9,3.4,2.1,5.5c0.2,2.1,0,4.1-0.8,5.9s-2,3.3-3.6,4.4
			s-3.4,1.8-5.4,2.1c-2,0.2-3.9,0-5.7-0.8s-3.3-1.9-4.5-3.5s-1.9-3.4-2.1-5.5c-0.2-2.1,0-4.1,0.8-5.9s2-3.3,3.6-4.4s3.4-1.8,5.4-2.1
			C699.2,387.2,701.1,387.5,702.9,388.2z M694.9,395.3c-0.6,0.9-0.9,2.2-0.7,3.6c0.2,1.5,0.7,2.6,1.5,3.4s1.9,1.1,3.3,0.9
			c1.3-0.2,2.3-0.7,3-1.6c0.6-0.9,0.9-2.1,0.7-3.6s-0.7-2.6-1.5-3.4s-1.9-1.1-3.3-0.9C696.6,393.8,695.6,394.4,694.9,395.3z"/>
		<path class="st2" d="M719.3,401.9l6.5-0.7l0.6,5.1l-13.3,1.5l-2.5-21.5l6.8-0.8L719.3,401.9z"/>
		<path class="st2" d="M734.7,400.1l6.5-0.7l0.6,5.1l-13.3,1.5l-2.5-21.5l6.8-0.8L734.7,400.1z"/>
		<path class="st2" d="M748.3,382l2.5,21.5l-6.8,0.8l-2.5-21.5L748.3,382z"/>
		<path class="st2" d="M774.4,400.8l-6.8,0.8l-8.4-10l1.2,10.8l-6.8,0.8l-2.5-21.5l6.8-0.8l8.4,10.2l-1.3-11l6.8-0.8L774.4,400.8z"
			/>
		<path class="st2" d="M792.4,378.8c1.9,1.2,3.2,2.9,3.8,5.2l-7.1,0.8c-0.3-0.4-0.7-0.7-1.2-0.9c-0.5-0.2-1.1-0.2-1.8-0.1
			c-1.3,0.1-2.3,0.7-2.9,1.6c-0.6,0.9-0.8,2.1-0.7,3.6c0.2,1.7,0.7,2.9,1.6,3.6c0.9,0.7,2.2,1,3.8,0.8s2.7-1,3.6-2.3l-5.4,0.6
			l-0.5-4.8l11-1.3l0.8,6.8c-0.7,1.7-1.9,3.2-3.4,4.6c-1.5,1.3-3.5,2.1-6,2.4c-2.2,0.3-4.2,0-6-0.7s-3.2-1.9-4.2-3.4
			c-1.1-1.6-1.7-3.4-2-5.5c-0.2-2.1,0-4.1,0.7-5.8c0.7-1.8,1.8-3.2,3.3-4.3c1.5-1.1,3.4-1.8,5.6-2
			C788.1,377.2,790.4,377.6,792.4,378.8z"/>
		<path class="st2" d="M708.7,423.5l1.4,12.1c0.1,1,0.4,1.8,0.9,2.3s1.2,0.7,2.2,0.6s1.7-0.5,2.1-1.1c0.4-0.6,0.5-1.4,0.4-2.4
			l-1.4-12.1l6.7-0.8l1.4,12.1c0.2,2,0,3.8-0.7,5.4c-0.7,1.5-1.7,2.8-3.1,3.7c-1.4,0.9-3,1.5-4.8,1.7s-3.5,0-5-0.5
			c-1.5-0.6-2.7-1.5-3.7-2.9c-1-1.3-1.6-3.1-1.8-5.1l-1.4-12.1L708.7,423.5z"/>
		<path class="st2" d="M747.1,440.9l-6.8,0.8l-8.4-10l1.2,10.8l-6.8,0.8l-2.5-21.5l6.8-0.8l8.4,10.2l-1.3-11l6.8-0.8L747.1,440.9z"
			/>
		<path class="st2" d="M754.5,418.2l2.5,21.5l-6.8,0.8l-2.5-21.5L754.5,418.2z"/>
		<path class="st2" d="M774.4,415.9l0.6,5.4l-5.7,0.7l1.9,16.2l-6.8,0.8l-1.9-16.2l-5.7,0.6l-0.6-5.4L774.4,415.9z"/>
	</g>
	<polygon class="st8" points="861,577.6 846.1,526.1 612.8,536.6 627.7,588.1 736.6,583.2 752.4,637.6 767.8,636.9 752.1,582.5 	"/>
	<g>
		<g>
			<line class="st9" x1="709.6" y1="473.7" x2="749.7" y2="469.1"/>
			<g>
				<polygon class="st2" points="743.9,480 780.5,465.6 741.6,459.8 				"/>
			</g>
		</g>
	</g>
</g>
</svg>
