<?xml version="1.0" encoding="utf-8"?>
<!-- Generator: Adobe Illustrator 23.0.0, SVG Export Plug-In . SVG Version: 6.00 Build 0)  -->
<svg version="1.1" id="Layer_1" xmlns="http://www.w3.org/2000/svg" xmlns:xlink="http://www.w3.org/1999/xlink" x="0px" y="0px"
	 viewBox="0 0 1000 640" style="enable-background:new 0 0 1000 640;" xml:space="preserve">
<style type="text/css">
	.st0{fill:#854D2C;}
	.st1{fill:#8C6434;}
	.st2{fill:#502E1C;}
	.st3{fill:#070707;}
	.st4{fill:#FFFFFF;}
	.st5{fill:#A41D1F;}
	.st6{fill:#EDEDED;}
	.st7{fill:#1A110F;}
	.st8{fill:#C6221E;}
	.st9{fill:#D73D33;}
	.st10{fill:#FBCB43;}
	.st11{fill:#F4F4F4;}
	.st12{fill:none;stroke:#D1D3D4;stroke-miterlimit:10;}
	.st13{fill:#9F653E;}
	.st14{fill:#A61D4B;}
	.st15{fill:#E87E04;}
	.st16{fill:#CE6905;}
	.st17{fill:#F5B400;}
	.st18{fill:#873F2B;}
	.st19{fill:#582A1A;}
	.st20{fill:#333333;}
	.st21{fill:#FFD199;}
	.st22{fill:#EFB06C;}
	.st23{fill:#1B75BC;}
	.st24{fill:#F9C38A;}
	.st25{fill:#E59553;}
	.st26{fill:#4152A4;}
	.st27{fill:#233882;}
	.st28{fill:#050404;}
	.st29{opacity:0.1;fill:#171211;enable-background:new    ;}
	.st30{fill:none;stroke:#FFFFFF;stroke-width:7;stroke-miterlimit:10;}
</style>
<g id="man2">
	<g>
		<g>
			<g>
				<path class="st0" d="M142.9,177.1c8-1.6,14.3-3.6,18.3-5.2c-3.9-7.2-3.8-18.8-3.8-18.8l-20.1,3l-23.1-2.1c0,0,0.2,8.6-2.3,15.4
					C117.2,172.4,131.1,179.4,142.9,177.1z"/>
				<rect x="55.3" y="399.8" class="st1" width="4.8" height="192"/>
				<rect x="36.1" y="394.3" class="st1" width="32.7" height="5.6"/>
				<path class="st0" d="M166.9,177.2c-2.5-0.8-4.3-2.8-5.7-5.2c-4.1,1.6-10.3,3.6-18.3,5.2c-11.8,2.3-25.7-4.7-31-7.8
					c-1.4,3.6-3.5,6.8-6.9,7.9"/>
				<path class="st0" d="M218.8,278.8c-3.5,16.6-34.1,35.9-35.9,41.1c-1.4,4.2-6.4,20-0.5,20.4c0,4.7,5.1,11.3,6.1,11.6
					c3.8,1.2,19.2,10.1,17.2,1.4c-0.5-2.3-5.4-4.5-9.9-4.5c1.1-2.1,2.4-9.7,0.6-16c16.3-8.8,40.1-18.4,47-34.2
					c4.8-11.1,13.8-20.4,12.2-24.3"/>
				<path class="st0" d="M89.3,268.3c2.7,11.6,4.4,42.9,4.4,42.9h32.4v1.7h50.8c0,0,1.8-32.2,5.3-43.6"/>
				<path class="st0" d="M31.5,279.6c-4.4,18.4,4,56.6,5.9,63.3c1.6,5.6,3.7,12.7,4.2,18.4c1.5,15-2,21.4-2.2,32.7
					c-0.2,10.9,9.4,24,12.8,21.6c7.7-5.5,6.9-16.9,6.1-28.6c1.1,0.8,3.9,3.3,5.5,7.2c1.6,3.8,6.6,6.7,6.1,3.6
					c-0.8-5.3-2.2-11.9-5-19.7c-1.5-4.3-5.1-12.8-5.5-27.7c-0.6-20.8,1.4-46,1.1-58.5"/>
			</g>
			<g>
				<g>
					<g>
						<g>
							<g>
								<path class="st0" d="M169.3,86.6c-8.9-17-27.1-12.1-33.8-9.5c-6.7-2.5-24.9-7.5-33.8,9.5c0,0-0.2,13,0.5,27.2
									c0.7,13.4,2.2,27.9,5.4,33.7c6.4,11.2,17.3,17,27,17.6v0.1c0.3,0,0.6-0.1,0.9-0.1c0.3,0,0.6,0.1,0.9,0.1v-0.1
									c9.7-0.6,20.6-6.5,27-17.6C170.2,135.6,169.3,86.6,169.3,86.6z"/>
							</g>
							<g>
								<path class="st0" d="M104.7,114.4c0,0-12-8.4-9.8,9.2c1.4,11.5,13.3,15.6,15,9.2L104.7,114.4z"/>
							</g>
							<g>
								<path class="st0" d="M167.6,114.4c0,0,12.2-6.9,9.8,9.2c-2.1,14.3-13.3,15.6-15,9.2L167.6,114.4z"/>
							</g>
							<g>
								<path class="st2" d="M102.7,119l0.6,10.7c0,0-7.2-2-4.9-10.4C99.4,115.3,102.7,119,102.7,119z"/>
							</g>
							<g>
								<path class="st2" d="M168.6,119l-0.6,10.7c0,0,7.2-2,4.9-10.4C171.9,115.3,168.6,119,168.6,119z"/>
							</g>
							<g>
								<path class="st3" d="M169.4,66c-8.9-7.7-18.3-8.8-32.7-9.1c-8.6-0.2-24.1-0.3-35.1,9.2c-8.4,7.3-6.2,43-4.5,46.5
									c1.7-0.4,4.2,0.6,4.2,0.6l1.3,8.4l1.6,0.6l0.6,0.2l-0.6-21.4l3.2-5.2c0,0-0.9-7.2,1.7-10.7c1.8-2.4,16.8-0.7,27.8-0.7
									c10.8,0,23.3-1.3,25.2,1.1c2.6,3.5,1.7,10.7,1.7,10.7l3.2,5.2l-0.6,21.4l2.2-0.9l1.3-8.4c0,0,2.5-1,4.2-0.6
									C175.8,109.6,177.8,73.3,169.4,66z"/>
							</g>
						</g>
						<g>
							<g>
								<path class="st4" d="M112.7,116.4c0,0,2.6-2.6,7.4-3.1c3.2-0.4,5.8,0.4,6.6,1.8c0.8,1.5-0.2,4.4-4.4,6.4
									C116.9,124,108.7,120.7,112.7,116.4z"/>
							</g>
							<g>
								<path class="st3" d="M126.9,113.9c-2.4-2.4-6.3-2-9.2-1.4c-2,0.4-5.3,2.1-6.3,4c-0.3,0.5,0.3,1.6,0.8,1.1
									c1.4-1.2,3.1-2,4.7-2.7c3.6-1.5,6.5-1,9.2,0.4C127,115.8,127.7,114.8,126.9,113.9z"/>
							</g>
							<g>
								<path class="st3" d="M122.7,116.5c0.3,2-1,3.8-2.9,4.1c-1.9,0.3-3.6-1.1-3.9-3.1s1-3.8,2.9-4.1
									C120.7,113.1,122.4,114.5,122.7,116.5z"/>
							</g>
							<g>
								<path class="st4" d="M120.7,116c0.1,0.9-0.5,1.7-1.3,1.9c-0.9,0.1-1.7-0.5-1.8-1.4c-0.1-0.9,0.5-1.7,1.3-1.9
									C119.7,114.5,120.6,115.1,120.7,116z"/>
							</g>
							<g>
								<path class="st3" d="M129.7,100.8c-4.2-0.4-7.7,0-12.7,0.8c-2.1,0.3-6.1,1.3-8.1,2.6c-1.1,0.8-0.3,3.5,2.2,2.7
									c6.7-2.3,14-2.2,18.4-2.5C131.5,104.2,131.7,101,129.7,100.8z"/>
							</g>
						</g>
						<g>
							<g>
								<path class="st4" d="M159,116.4c0,0-2.6-2.6-7.4-3.1c-3.2-0.4-5.8,0.4-6.6,1.8c-0.8,1.5,0.2,4.4,4.4,6.4
									C154.8,124,163,120.7,159,116.4z"/>
							</g>
							<g>
								<path class="st3" d="M144.8,113.9c2.4-2.4,6.3-2,9.2-1.4c2,0.4,5.3,2.1,6.3,4c0.3,0.5-0.3,1.6-0.8,1.1
									c-1.4-1.2-3.1-2-4.7-2.7c-3.6-1.5-6.5-1-9.2,0.4C144.7,115.8,143.9,114.8,144.8,113.9z"/>
							</g>
							<g>
								<path class="st3" d="M149,116.5c-0.3,2,1,3.8,2.9,4.1c1.9,0.3,3.6-1.1,3.9-3.1c0.3-2-1-3.8-2.9-4.1
									C151,113.1,149.2,114.5,149,116.5z"/>
							</g>
							<g>
								<path class="st4" d="M151,116c-0.1,0.9,0.5,1.7,1.3,1.9c0.9,0.1,1.7-0.5,1.8-1.4s-0.5-1.7-1.3-1.9
									C151.9,114.5,151.1,115.1,151,116z"/>
							</g>
							<g>
								<path class="st3" d="M142,100.8c4.2-0.4,7.7,0,12.7,0.8c2.1,0.3,6.1,1.3,8.1,2.6c1.1,0.8,0.3,3.5-2.2,2.7
									c-6.7-2.3-14-2.2-18.4-2.5C140.2,104.2,140,101,142,100.8z"/>
							</g>
						</g>
						<g>
							<path class="st2" d="M142.6,130.5c-0.3-3.2-2.9-8.7-3.3-10c-0.9-2.6-2.1-1.7-1.9,0.3c0.2,1.3,0.7,5,0.9,8.5
								c0.3,4-0.4,4.2-1.2,6.6c-0.4,1.5-0.1,2,1.5,1.4C142,136,142.9,133.7,142.6,130.5z"/>
						</g>
						<g>
							<path class="st2" d="M144.9,143.6c-2.8,0.2-5.8,0.4-8.6,0.4c-3.9,0-7.7-0.5-11.5-0.8c-0.6,0-0.8,0.8-0.3,1.1
								c2.9,2.2,8.4,2,11.9,2.1c3,0.1,6.4-0.2,9-1.3C147,144.4,146.5,143.5,144.9,143.6z"/>
						</g>
						<g>
							<path class="st2" d="M141.7,149.4c-1.9,0.4-4.8,0.4-6.3,0.4c-1.6,0-4.7-0.3-6.4-0.6c-0.7-0.2-0.8,0.3,0,0.9
								c1.4,1,4.6,1.5,6.6,1.5c2.3,0,4-0.4,6.1-1.2C142.9,150.1,143.3,149.1,141.7,149.4z"/>
						</g>
					</g>
				</g>
				<g id="XMLID_1_">
					<ellipse id="XMLID_5_" class="st5" cx="138.2" cy="7.5" rx="6.4" ry="6.5"/>
					<path id="XMLID_9_" class="st5" d="M165.2,30c-4.5-13.5-22.4-21.3-29-21.3s-24.5,7.8-29,21.3s-7.3,37.5-7.3,40.7
						s30.9,3.2,36.4,3.2s36.4,0,36.4-3.2C172.5,67.5,169.7,43.5,165.2,30z"/>
					<path id="XMLID_14_" class="st6" d="M171.8,59.9c-1.7,1.7-30.7,4.5-35.6,4.5s-33.9-2.7-35.6-4.5c-1.7-1.7-5.4,14-4.2,18.2
						c1.2,4.2,30.6,5.8,39.9,5.8s38.7-1.6,39.9-5.8C177.2,73.8,173.5,58.2,171.8,59.9z"/>
					<path id="XMLID_3_" class="st7" d="M165.5,31c-6.6,0.7-25.4,2.1-29.3,2.1c-4,0-22.7-1.4-29.3-2.1c-0.2,0.8-0.5,1.5-0.7,2.4
						c6,0.6,22.6,2.3,30,2.3s24.1-1.7,30-2.3C166,32.5,165.7,31.7,165.5,31z"/>
					<path id="XMLID_7_" class="st7" d="M168.1,41.3c-7.2,0.9-27.6,2.7-31.9,2.7s-24.7-1.8-31.9-2.7c-0.3,0.9-0.5,1.9-0.8,2.9
						c6.5,0.8,24.6,2.9,32.7,2.9s26.2-2.1,32.7-2.9C168.6,43.3,168.3,42.3,168.1,41.3z"/>
					<path id="XMLID_2_" class="st4" d="M170.6,54.9h-0.1c-5,0.6-29.5,2.3-34.4,2.3c-4.8,0-29.3-1.7-34.4-2.3h-0.1
						c-0.1,0.8-0.2,1.6-0.4,2.4c5,0.5,25.9,2.4,34.9,2.4s29.8-1.9,34.9-2.4C170.9,56.6,170.8,55.8,170.6,54.9z"/>
					<path id="XMLID_6_" class="st4" d="M167.1,36.9c-8.5,0.8-26.9,2.2-31,2.2s-22.5-1.4-31-2.2c-0.2,0.9-0.4,1.8-0.6,2.7
						c7.8,0.8,24,2.4,31.6,2.4s23.8-1.6,31.6-2.4C167.6,38.6,167.4,37.8,167.1,36.9z"/>
					<path id="XMLID_4_" class="st7" d="M169.8,49.6c-6.3,0.7-29,2.5-33.6,2.5c-4.6,0-27.3-1.8-33.6-2.5c-0.2,0.9-0.3,1.8-0.5,2.7
						c6.1,0.6,25.5,2.6,34.1,2.6s27.9-2,34.1-2.6C170.1,51.4,169.9,50.5,169.8,49.6z"/>
				</g>
			</g>
			<path class="st0" d="M90.8,523.3c0,0,3.6,35.3-1.7,42.6c-7.5,10.3-21.4,15.4-25.5,17.7c-2.6,1.5-4.9,3.4-2.5,6.4
				c-0.7,2.4-0.8,6.7,3.6,7.2c-0.7,2.6,0.8,4.7,4.7,4.7c0,2.2,2.2,5,5.3,4.2c14.5-4,19.5-13,25.5-17.7c6.9-5.5,16.6-7.5,15-18.9
				c-0.6-4.2,0.6-6.9,1.7-21.1c0.5-6.4,0.8-28.6-2.4-30.5C107,513.3,90.8,523.3,90.8,523.3z"/>
			<path class="st0" d="M181.7,524.1c0,0-3.6,35.3,1.7,42.6c7.5,10.3,21.4,15.4,25.5,17.7c2.6,1.5,4.9,3.4,2.5,6.4
				c0.7,2.4,0.8,6.7-3.6,7.2c0.6,2.6-0.8,4.7-4.7,4.7c0,2.2-2.2,5-5.3,4.2c-14.5-4-19.5-13-25.5-17.7c-6.9-5.5-16.6-7.5-15-18.9
				c0.6-4.2-0.6-6.9-1.7-21.1c-0.5-6.4-0.8-28.6,2.4-30.5C165.5,514.1,181.7,524.1,181.7,524.1z"/>
			<g>
				<g>
					<path class="st8" d="M191.4,538.5v0.6c2.5-0.2,4.7-0.4,6.9-0.6H191.4z"/>
				</g>
				<g>
					<path class="st8" d="M210.1,533.6h2.3c-0.4-3.9-0.9-8.5-1.3-13.8h-1V533.6z"/>
				</g>
				<g>
					<path class="st8" d="M186.5,538.5h-13.8v2c4.9-0.3,9.5-0.7,13.8-1V538.5z"/>
				</g>
				<g>
					<rect x="76.2" y="463.7" class="st8" width="13.8" height="13.8"/>
				</g>
				<g>
					<rect x="76.2" y="482.4" class="st8" width="13.8" height="13.8"/>
				</g>
				<g>
					<rect x="76.2" y="501.1" class="st8" width="13.8" height="13.8"/>
				</g>
				<g>
					<path class="st8" d="M210.6,514.9c-0.2-1.8-0.3-3.7-0.5-5.7v5.7H210.6z"/>
				</g>
				<g>
					<path class="st8" d="M167.8,538.5H154v3.1c4.7-0.3,9.3-0.5,13.8-0.8V538.5z"/>
				</g>
				<g>
					<path class="st8" d="M191.4,458.8h13.8v-2.2c-0.4-3.8-0.8-7.7-1.2-11.6h-12.6V458.8z"/>
				</g>
				<g>
					<path class="st8" d="M71.2,445h-2c-0.3,4.6-0.7,9.2-1,13.8h3V445z"/>
				</g>
				<g>
					<rect x="76.2" y="445" class="st8" width="13.8" height="13.8"/>
				</g>
				<g>
					<path class="st8" d="M193.2,366.6l-115.8-0.2c-0.6,3.6-1.3,8.2-2,13.6l120,0.1C194.8,375.5,194,371,193.2,366.6z"/>
				</g>
				<g>
					<path class="st8" d="M188.2,342c-2.3-10.1-8.6-20.2-8.9-34.9c0-2.4-22,2.2-32.7,4.6c-2.1-0.1-4.1-0.2-5.8-0.2
						c-3.7-0.1-6.1-0.2-6.1-0.2l-44.1-1.1c0,0-0.9,3.3-4.4,20.5c-1.5,7.4-4.5,15.8-7.3,28.4h112.9
						C190.7,353.1,189.5,347.4,188.2,342z"/>
				</g>
				<g>
					<path class="st8" d="M196.7,387.6l-122.1-0.2c-1.7,14.6-3.4,33.3-4.9,52.6h133.8C201.5,422.8,199.3,404.9,196.7,387.6z"/>
				</g>
				<g>
					<path class="st8" d="M71.2,482.4h-4.5c-0.3,4.7-0.5,9.4-0.8,13.8h5.3V482.4z"/>
				</g>
				<g>
					<path class="st8" d="M71.2,463.7h-3.3c-0.3,4.7-0.6,9.3-0.9,13.8h4.2C71.2,477.5,71.2,463.7,71.2,463.7z"/>
				</g>
				<g>
					<path class="st8" d="M127.4,538.5h-13.8v5.2c4.5-0.2,9.1-0.4,13.8-0.7V538.5z"/>
				</g>
				<g>
					<path class="st8" d="M149.1,538.5h-16.7v4.3c5.6-0.3,11.2-0.6,16.7-0.9V538.5z"/>
				</g>
				<g>
					<path class="st8" d="M108.7,538.5H94.9v6c4.3-0.2,9-0.4,13.8-0.6C108.7,543.9,108.7,538.5,108.7,538.5z"/>
				</g>
				<g>
					<path class="st8" d="M71.2,501.1h-5.5c-0.2,4.9-0.4,9.5-0.6,13.8h6.1V501.1z"/>
				</g>
				<g>
					<path class="st8" d="M71.2,519.8h-6.3c-0.1,3.4-0.2,6.5-0.2,9.3c0,1.6,0,3.1-0.1,4.5h6.6V519.8z"/>
				</g>
				<g>
					<path class="st8" d="M64.4,538.5c-0.3,4.7-0.6,7.2-0.6,7.2s2.7-0.1,7.4-0.3v-7L64.4,538.5L64.4,538.5z"/>
				</g>
				<g>
					<path class="st8" d="M90,538.5H76.2v6.8c3.9-0.2,8.6-0.3,13.8-0.6V538.5z"/>
				</g>
				<g>
					<rect x="76.2" y="519.8" class="st8" width="13.8" height="13.8"/>
				</g>
				<g>
					<rect x="154" y="445" class="st8" width="13.8" height="13.8"/>
				</g>
				<g>
					<rect x="154" y="463.7" class="st8" width="13.8" height="13.8"/>
				</g>
				<g>
					<rect x="172.7" y="519.8" class="st8" width="13.8" height="13.8"/>
				</g>
				<g>
					<rect x="154" y="482.4" class="st8" width="13.8" height="13.8"/>
				</g>
				<g>
					<rect x="154" y="519.8" class="st8" width="13.8" height="13.8"/>
				</g>
				<g>
					<rect x="172.7" y="501.1" class="st8" width="13.8" height="13.8"/>
				</g>
				<g>
					<rect x="154" y="501.1" class="st8" width="13.8" height="13.8"/>
				</g>
				<g>
					<rect x="172.7" y="463.7" class="st8" width="13.8" height="13.8"/>
				</g>
				<g>
					<rect x="191.4" y="501.1" class="st8" width="13.8" height="13.8"/>
				</g>
				<g>
					<rect x="191.4" y="519.8" class="st8" width="13.8" height="13.8"/>
				</g>
				<g>
					<rect x="191.4" y="482.4" class="st8" width="13.8" height="13.8"/>
				</g>
				<g>
					<rect x="172.7" y="482.4" class="st8" width="13.8" height="13.8"/>
				</g>
				<g>
					<rect x="191.4" y="463.7" class="st8" width="13.8" height="13.8"/>
				</g>
				<g>
					<rect x="132.3" y="445" class="st8" width="16.7" height="13.8"/>
				</g>
				<g>
					<rect x="172.7" y="445" class="st8" width="13.8" height="13.8"/>
				</g>
				<g>
					<rect x="113.6" y="519.8" class="st8" width="13.8" height="13.8"/>
				</g>
				<g>
					<rect x="94.9" y="519.8" class="st8" width="13.8" height="13.8"/>
				</g>
				<g>
					<rect x="113.6" y="501.1" class="st8" width="13.8" height="13.8"/>
				</g>
				<g>
					<rect x="94.9" y="445" class="st8" width="13.8" height="13.8"/>
				</g>
				<g>
					<rect x="132.3" y="463.7" class="st8" width="16.7" height="13.8"/>
				</g>
				<g>
					<rect x="94.9" y="482.4" class="st8" width="13.8" height="13.8"/>
				</g>
				<g>
					<rect x="94.9" y="463.7" class="st8" width="13.8" height="13.8"/>
				</g>
				<g>
					<rect x="94.9" y="501.1" class="st8" width="13.8" height="13.8"/>
				</g>
				<g>
					<rect x="113.6" y="482.4" class="st8" width="13.8" height="13.8"/>
				</g>
				<g>
					<rect x="132.3" y="501.1" class="st8" width="16.7" height="13.8"/>
				</g>
				<g>
					<rect x="132.3" y="482.4" class="st8" width="16.7" height="13.8"/>
				</g>
				<g>
					<rect x="132.3" y="519.8" class="st8" width="16.7" height="13.8"/>
				</g>
				<g>
					<rect x="113.6" y="445" class="st8" width="13.8" height="13.8"/>
				</g>
				<g>
					<rect x="113.6" y="463.7" class="st8" width="13.8" height="13.8"/>
				</g>
				<g>
					<path class="st8" d="M195.5,380.1l-120-0.1c-0.3,2.3-0.6,4.8-0.9,7.4l122.1,0.2C196.3,385.1,195.9,382.6,195.5,380.1z"/>
				</g>
				<g>
					<path class="st4" d="M191.8,359H78.9c-0.5,2.1-0.9,4.2-1.3,6.5c-0.1,0.3-0.1,0.6-0.2,0.9l115.8,0.2
						C192.8,364,192.3,361.5,191.8,359z"/>
				</g>
				<g>
					<path class="st9" d="M205.2,458.8h-13.8V445H204c-0.2-1.6-0.4-3.3-0.5-4.9H69.7c-0.1,1.6-0.3,3.3-0.4,4.9h2v13.8h-3
						c-0.1,1.6-0.2,3.3-0.3,4.9h3.3v13.8H67c-0.1,1.7-0.2,3.3-0.3,4.9h4.5v13.8H66c-0.1,1.7-0.2,3.3-0.3,4.9h5.5v13.8h-6.1
						c-0.1,1.7-0.1,3.3-0.2,4.9h6.3v13.8h-6.6c-0.1,1.8-0.1,3.5-0.2,4.9h6.8v7c1.5-0.1,3.1-0.1,4.9-0.2v-6.8H90v6.2
						c1.6-0.1,3.2-0.1,4.9-0.2v-6h13.8v5.4c1.6-0.1,3.3-0.1,4.9-0.2v-5.2h13.8v4.5c1.6-0.1,3.3-0.2,4.9-0.2v-4.3H149v3.4
						c1.7-0.1,3.3-0.2,4.9-0.3v-3.1h13.8v2.3c1.7-0.1,3.3-0.2,4.9-0.3v-2h13.8v1c1.7-0.1,3.3-0.3,4.9-0.4v-0.6h6.9
						c8.1-0.8,13.4-1.6,14.4-2.4c-0.1-0.8-0.2-1.7-0.3-2.5H210v-13.8h1c-0.1-1.6-0.3-3.2-0.4-4.9h-0.5v-5.7
						c-1.3-14.9-2.9-33.1-4.9-52.7L205.2,458.8L205.2,458.8z M90,533.6H76.2v-13.8H90V533.6z M90,514.9H76.2v-13.8H90V514.9z
						 M90,496.2H76.2v-13.8H90V496.2z M90,477.5H76.2v-13.8H90V477.5z M90,458.8H76.2V445H90V458.8z M108.7,533.6H94.9v-13.8h13.8
						C108.7,519.8,108.7,533.6,108.7,533.6z M108.7,514.9H94.9v-13.8h13.8C108.7,501.1,108.7,514.9,108.7,514.9z M108.7,496.2H94.9
						v-13.8h13.8C108.7,482.4,108.7,496.2,108.7,496.2z M108.7,477.5H94.9v-13.8h13.8C108.7,463.7,108.7,477.5,108.7,477.5z
						 M108.7,458.8H94.9V445h13.8C108.7,445,108.7,458.8,108.7,458.8z M127.4,533.6h-13.8v-13.8h13.8V533.6z M127.4,514.9h-13.8
						v-13.8h13.8V514.9z M127.4,496.2h-13.8v-13.8h13.8V496.2z M127.4,477.5h-13.8v-13.8h13.8V477.5z M127.4,458.8h-13.8V445h13.8
						V458.8z M149.1,533.6h-16.7v-13.8h16.7V533.6z M149.1,514.9h-16.7v-13.8h16.7V514.9z M149.1,496.2h-16.7v-13.8h16.7V496.2z
						 M149.1,477.5h-16.7v-13.8h16.7V477.5z M149.1,458.8h-16.7V445h16.7V458.8z M167.8,533.6H154v-13.8h13.8V533.6z M167.8,514.9
						H154v-13.8h13.8V514.9z M167.8,496.2H154v-13.8h13.8V496.2z M167.8,477.5H154v-13.8h13.8V477.5z M167.8,458.8H154V445h13.8
						V458.8z M186.5,533.6h-13.8v-13.8h13.8V533.6z M186.5,514.9h-13.8v-13.8h13.8V514.9z M186.5,496.2h-13.8v-13.8h13.8V496.2z
						 M186.5,477.5h-13.8v-13.8h13.8V477.5z M186.5,458.8h-13.8V445h13.8V458.8z M205.2,533.6h-13.8v-13.8h13.8V533.6z M205.2,514.9
						h-13.8v-13.8h13.8V514.9z M205.2,496.2h-13.8v-13.8h13.8V496.2z M205.2,477.5h-13.8v-13.8h13.8V477.5z"/>
				</g>
			</g>
			<g>
				<polygon class="st9" points="180.5,316.7 179.6,282.4 91.3,282.4 89.6,316.7 				"/>
			</g>
			<g>
				<g>
					<path class="st10" d="M39.8,372.6c-0.8,0-1.5-0.5-1.6-1.3c-0.2-0.9,0.4-1.8,1.3-2l23.3-5c0.9-0.2,1.8,0.4,2,1.3
						c0.2,0.9-0.4,1.8-1.3,2l-23.3,5C40,372.6,39.9,372.6,39.8,372.6z"/>
				</g>
			</g>
		</g>
		<path class="st11" d="M214.3,323.7c16.3-8.8,22.2-9.1,29.1-24.9c4.8-11.1,13.8-20.4,12.2-24.3c-9.6-23.6-33.8-43.5-38.8-61.3
			c-10.5-37.6-30.6-29.8-49.9-35.9c-2.1-0.7-3.7-2.2-5-4.1c-0.4-0.6-1.2-0.9-1.9-0.6c-4,1.5-9.8,3.3-17,4.7
			c-10.8,2.1-23.3-3.6-29.4-6.9c-0.8-0.5-1.9-0.1-2.3,0.8c-1.4,2.9-3.3,5.3-6.2,6.2c-19.3,6.1-39.4-1.8-49.9,35.9
			c-5,17.8-17.7,41.7-23.6,66.5c-4.4,18.4,4,56.6,5.9,63.3c1.6,5.6,22.4,22.5,22,7.6c-0.6-20.6,1.4-45.6,1.1-58.2
			c0-0.2,0-0.4,0.1-0.6c6.4-17.8,16-35.3,20.7-47.9c0.6-1.6,2.9-1.4,3.2,0.3c1.8,9.5,3.1,16.3,4.9,24.1c2.6,11.2,0.6,43.3,0.5,45.5
			c0,0.1,0,0.1,0,0.2c-0.5,2.1-8,33.2-10.5,43.7c-5.7,24-7.3,55.1-7.3,55.1l5.7-30.2c0.3-1.7,2.7-1.8,3.2-0.2l8.8,30.2
			c0.2,0.7,0.9,1.2,1.6,1.2h88c0.8,0,1.4-0.5,1.6-1.3l7.4-30.8c0.4-1.7,2.8-1.7,3.2,0l2.3,8.6c0.5,2,3.6,1.4,3.3-0.7
			c-2.2-15.1-5.2-33.2-7.3-42c-1.7-7.2-8.6-28.3-9.3-30.6c0-0.1-0.1-0.3-0.1-0.4c-0.1-3-1.7-36.3,1.6-47.2
			c2.7-8.9,5.1-13.4,6.1-22.7c0.2-1.7,2.6-2,3.2-0.4c6.2,15.8,17.5,25.1,26.4,31.8c0.6,0.4,0.8,1.2,0.6,1.9
			c-5.4,14.3-19.7,24.4-23.5,28.2"/>
		<g>
			<g>
				<path class="st8" d="M162,196.4c0,1.8-1.4,3.2-3.2,3.2s-3.2-1.4-3.2-3.2s1.4-3.2,3.2-3.2C160.6,193.1,162,194.6,162,196.4z"/>
			</g>
			<g>
				<path class="st8" d="M170,186.4c0,1.8-1.4,3.2-3.2,3.2s-3.2-1.4-3.2-3.2s1.4-3.2,3.2-3.2S170,184.6,170,186.4z"/>
			</g>
			<g>
				<path class="st8" d="M115.6,196.9c0,1.8-1.4,3.2-3.2,3.2c-1.8,0-3.2-1.4-3.2-3.2s1.4-3.2,3.2-3.2S115.6,195.1,115.6,196.9z"/>
			</g>
			<g>
				<path class="st8" d="M105.8,180.9c0,1.8-1.4,3.2-3.2,3.2c-1.8,0-3.2-1.4-3.2-3.2s1.4-3.2,3.2-3.2S105.8,179.1,105.8,180.9z"/>
			</g>
			<g>
				<path class="st8" d="M137.9,206c0,1.1-0.9,2-2,2s-2-0.9-2-2s0.9-2,2-2S137.9,204.9,137.9,206z"/>
			</g>
			<g>
				<path class="st8" d="M119.7,200.4c0,1.1-0.9,2-2,2s-2-0.9-2-2s0.9-2,2-2C118.8,198.4,119.7,199.3,119.7,200.4z"/>
			</g>
			<g>
				<path class="st8" d="M110.7,191.2c0,1.1-0.9,2-2,2s-2-0.9-2-2s0.9-2,2-2S110.7,190.1,110.7,191.2z"/>
			</g>
			<g>
				<path class="st4" d="M102.1,176.8"/>
			</g>
			<g>
				<path class="st8" d="M124.3,203.3c0,1.1-0.9,2-2,2s-2-0.9-2-2s0.9-2,2-2C123.5,201.3,124.3,202.2,124.3,203.3z"/>
			</g>
			<g>
				<ellipse class="st8" cx="153.1" cy="200.1" rx="2" ry="2"/>
			</g>
			<g>
				<path class="st8" d="M165.3,191.5c0,1.1-0.9,2-2,2s-2-0.9-2-2s0.9-2,2-2C164.4,189.5,165.3,190.4,165.3,191.5z"/>
			</g>
			<g>
				<path class="st8" d="M171.3,179.6c0,1.1-0.9,2-2,2s-2-0.9-2-2s0.9-2,2-2C170.4,177.6,171.3,178.5,171.3,179.6z"/>
			</g>
			<g>
				<path class="st8" d="M143.4,205.1c0,1.1-0.9,2-2,2s-2-0.9-2-2s0.9-2,2-2S143.4,204,143.4,205.1z"/>
			</g>
			<g>
				<path class="st8" d="M108.2,186.4c0,1.1-0.9,2-2,2s-2-0.9-2-2s0.9-2,2-2S108.2,185.3,108.2,186.4z"/>
			</g>
			<g>
				<path class="st8" d="M131.8,206c0,1.8-1.4,3.2-3.2,3.2s-3.2-1.4-3.2-3.2s1.4-3.2,3.2-3.2C130.3,202.8,131.8,204.2,131.8,206z"/>
			</g>
			<g>
				<path class="st8" d="M150.5,203.5c0,1.8-1.4,3.2-3.2,3.2s-3.2-1.4-3.2-3.2s1.4-3.2,3.2-3.2C149,200.3,150.5,201.7,150.5,203.5z"
					/>
			</g>
		</g>
		<path class="st12" d="M138.6,177.6c0,130.5-4.5,232.3-7.8,235.4"/>
	</g>
</g>
<g id="woman-1">
	<g>
		<path d="M279.1,120.9c7-7.2-7.4-22-16.7-14.8c-8.3-7.5-18.9-11.1-26.3-1.2c-7.5-3.9-15.8-3.3-17,5.9c0,0-0.1,0-0.1-0.1
			c-6.9-0.6-11.5,2-11.7,9.4c-0.1,3.8,2.4,6.2,5.4,7.4c-3.2,3.5-4.5,8.2-2,12.7c1.8,3.2,6,3.2,9.1,2c2.3,8,15.4,11.4,21.4,5.5
			c5.2,3.6,17.7,2.7,19.9-4.7c8.2,5.6,13.3-2.6,12.9-8C281,134.1,284.7,125.7,279.1,120.9z"/>
		<path class="st13" d="M228.9,127.8c0,0,2.6,18.9-6,21.9c-6.3,2.2,15.5,33.9,15.5,33.9l11.6-0.9l14.6-32.6c0,0-10.3-6-6.9-22.8
			C260.4,113.9,228.9,127.8,228.9,127.8z"/>
		<g>
			<g>
				<g>
					<g>
						<path class="st13" d="M291.4,84.1c-1.8-3.4-4.7-3.7-6.5-3.2c1.6-16.5,1.6-41.2-40-41.2c-8.8,0-46-0.6-40.4,41.3
							c-1.9-0.4-5.1-0.1-6.7,3.1c-2.6,4.9,0,17.2,8.2,18c0.9,0.1,1.7,0.2,2.3,0.2c3.2,10.3,10.2,19.8,19.4,26.5
							c14,10.3,27.3,6.1,35.1,0c8.7-6.9,14.8-16.5,17.9-26.5c0.7,0,1.5-0.1,2.6-0.2C291.4,101.3,294,89.1,291.4,84.1z"/>
						<path class="st2" d="M204.3,86.1c0,0-5.8-2-3.3,6.2c2.1,7.1,5.8,4.4,5.8,4.4L204.3,86.1z"/>
						<path class="st2" d="M284.6,86.1l-2.3,10.2c0,0,4.3,0.4,5.6-4.6C288.9,88,287.5,85.4,284.6,86.1z"/>
					</g>
					<path class="st4" d="M216.3,84.9c0,0,2.3,5.7,8.4,5.8c7.2,0.1,8.9-3.9,8.8-4.7c0-0.8-2-2.1-4.3-2.8
						C226.9,82.4,220.3,81.4,216.3,84.9z"/>
					<path class="st4" d="M272.1,84.9c0,0-2.3,5.7-8.4,5.8c-7.2,0.1-8.9-3.9-8.8-4.7c0-0.8,2-2.1,4.3-2.8
						C261.6,82.4,268.1,81.4,272.1,84.9z"/>
					<g>
						<path d="M233.9,85.4c-5.7-6.1-14.5-5.1-19.3-0.7c0.9,0.5,1.6,1.2,2.5,1.8c7.1-5.2,11.2-3.8,16.4-0.5
							C233.9,86.2,234.2,85.7,233.9,85.4z"/>
						<path d="M228.6,86.2c0,2.1-1.7,3.9-3.9,3.9s-3.9-1.7-3.9-3.9c0-2.2,1.7-3.9,3.9-3.9C226.2,82.3,228.6,83.2,228.6,86.2z"/>
						<path class="st4" d="M226.7,85c0,0.8-0.7,1.5-1.5,1.5s-1.5-0.7-1.5-1.5s0.7-1.5,1.5-1.5C226.1,83.5,226.7,84.1,226.7,85z"/>
						<path d="M254.4,85.4c5.7-6.1,14.4-5.1,19.3-0.7c-0.9,0.5-1.6,1.2-2.5,1.8c-7.1-5.2-11.2-3.8-16.4-0.5
							C254.4,86.2,254.1,85.7,254.4,85.4z"/>
						<path d="M259.7,86.2c0,2.1,1.7,3.9,3.9,3.9c2.1,0,3.9-1.7,3.9-3.9c0-2.2-1.7-3.9-3.9-3.9C262.1,82.3,259.7,83.2,259.7,86.2z"
							/>
						<circle class="st4" cx="263" cy="85" r="1.5"/>
						<path d="M224.2,69.2c-4.9-0.5-10.5,0.8-13.5,4.9c-0.6,0.8,0.1,1.9,1.1,1.2c6.2-4.7,10.6-4.2,13.4-3.7
							c3.5,0.6,7.4,2.6,10.3,5.5c0.7,0.7,1.1,0.1,0.4-0.9C233.3,72,229.2,69.7,224.2,69.2z"/>
					</g>
					<g>
						<path d="M264.2,69.2c4.9-0.5,10.5,0.8,13.5,4.9c0.6,0.8-0.1,1.9-1.1,1.2c-6.2-4.7-10.6-4.2-13.4-3.7
							c-3.5,0.6-7.4,2.6-10.3,5.5c-0.7,0.7-1.1,0.1-0.4-0.9C255.1,72,259.2,69.7,264.2,69.2z"/>
					</g>
					<path class="st2" d="M250.3,104.2c-0.3-1.5-2.9-7.6-3.6-9.8c-0.6-1.9-1.3-1.3-1.2-0.1c0.1,2,0.4,4.8,0.7,6.9
						c0.4,3,0.3,4.2-0.4,7.1c-0.4,1.7,0.6,1.6,1.2,1.4C249.6,108.6,250.8,107.1,250.3,104.2z"/>
				</g>
				<path d="M284.6,37.9c-13.8-28-57.6-34.6-76.2-5.4c-14.1,22.1-6.3,48.6-6.3,48.6l3.9,0.5c0,0-1.1-37.3,37.3-37
					c41.2,0.3,40.5,33.4,40.4,36.4c2.2,0,2.9,0.1,4.1,0.3C287.8,81.1,293.3,55.8,284.6,37.9z"/>
			</g>
		</g>
		<path class="st8" d="M256,115.2c-1.3,0.2-2.6,1-4,0.7c-0.9-0.2-1.8-0.5-2.7-0.7c-1.8-0.3-3.2,0.5-4.2,2c-1-1.4-2.3-2.3-4.2-2
			c-0.9,0.2-1.8,0.5-2.7,0.7c-1.4,0.2-2.7-0.6-4-0.7c-0.9-0.1-1.2,1.1-0.5,1.6c1.1,0.9,2.3,1.5,3.8,1.7c1.5,2.6,4.6,3.9,7.7,3.9l0,0
			l0,0l0,0l0,0c3.1,0,6.2-1.3,7.7-3.9c1.4-0.2,2.6-0.8,3.8-1.7C257.1,116.3,256.9,115.1,256,115.2z"/>
		<g>
			<path class="st14" d="M218.6,579.6c9.5-1.1,8.6-7.7,8.6-7.7s3.1,8.3,11.5,8c7.5-0.3,6.3-8.6,6.3-8.6s6,10.3,14.9,8.3
				c7.2-1.6,4-9.2,4-9.2s9.4,9.7,24,8c7.3-0.9,14.8-1.9,20.4-2.8c-3.7-49.4-11.4-159.2-7.8-185.6c4.6-34.4-91.6-26.3-91.6-26.3
				l-14.9,87c0,0,5.7,33.2,4.6,56.1c-0.7,13.1-5.1,39.7-8.7,60.1C197.4,571.7,212.1,580.4,218.6,579.6z"/>
			<path class="st10" d="M213.4,607.6c2,0.4,8-0.6,11.5-3.7c4.9,4,8.9,5.9,14.6,4.9c4.9-0.9,5.2-4,6.6-6.9c2.7,3.6,6.3,7.2,12.3,7.2
				c4.6,0,6.9-1.1,9.4-6.6c20.9,8,42.4-2.6,42.4-2.6s-0.8-9.4-1.9-24.3c-5.7,0.9-13.2,1.9-20.4,2.8c-14.6,1.7-24-8-24-8
				s3.1,7.5-4,9.2c-8.9,2-14.9-8.3-14.9-8.3s1.2,8.3-6.3,8.6c-8.3,0.3-11.5-8-11.5-8s0.9,6.6-8.6,7.7c-6.5,0.8-21.2-7.8-28.7-12.7
				c-2.7,15.2-5,27-5,27S202,605.3,213.4,607.6z"/>
		</g>
		<g>
			<path class="st15" d="M234.9,232.4l0.8,183.1c10.9-12.4,20.6-24.5,24.7-32.3c11.5-21.8,12.6-146.6,12.6-146.6
				S255.5,230.3,234.9,232.4z"/>
			<path class="st15" d="M222,282c0.4-15.5-2.6-19.3-10.7-21.9c-4.4-1.4-12.2-0.6-16.6-0.1c-4.1,18.9-11.4,55.8-11,77.4
				c0.5,30.2,2.6,59.7,4.6,82.2l34.4-34.8C222.2,343.3,221.8,291.1,222,282z"/>
			<path class="st16" d="M197.4,248.1c0,0-1.1,4.6-2.7,12c4.4-0.6,12.2-1.3,16.6,0.1c8.2,2.6,11.2,6.4,10.7,21.9
				c-0.3,9.1,0.2,61.3,0.7,102.9l5.3-5.4l2.8,41.4c1.6-1.8,3.2-3.6,4.8-5.4l-0.8-183.1C222.5,233.6,209,237.7,197.4,248.1z"/>
		</g>
		<path class="st14" d="M277.3,148.1c-1.6-0.2-3.1-0.4-4.6-0.6c-7.6,6.5-22.1,18.8-31.7,26.5c-11.1,8.7-37.2,30-46.8,37.7l-0.2,4.6
			c6.4-5.2,37-30,49.2-39.7C253.9,168.1,270.7,153.8,277.3,148.1z"/>
		<path class="st14" d="M272.8,220.1c27.7-1.4,48.3-13,54.9-17.3c-0.5-0.9-1-1.9-1.7-3c-6.1,3.9-26.5,15.5-53.4,16.9L272.8,220.1z"
			/>
		<g>
			<path class="st10" d="M190.9,445.5c1.1,9.8,1.9,15.5,1.9,15.5s14.6-14.6,30.4-31.8c0-4.4-0.1-10.4-0.2-17.4L190.9,445.5z"/>
			<path class="st10" d="M222.7,384.8l-34.4,34.8c0.7,8.1,1.5,15.4,2.1,21.4l32.5-34.1C222.9,400.2,222.8,392.7,222.7,384.8z"/>
			<path class="st17" d="M229.4,400.1l-1.4-20.7l-5.3,5.4c0.1,7.9,0.2,15.4,0.2,22.1L229.4,400.1z"/>
			<path class="st17" d="M223,411.9c0.1,7,0.1,13,0.2,17.4c2.6-2.8,5.1-5.6,7.7-8.5l-1.1-16.1L223,411.9z"/>
			<polygon class="st14" points="232.7,401.7 230.2,399.3 229.4,400.1 229.8,404.8 			"/>
			<path class="st14" d="M222.9,407l-32.5,34.1c0.2,1.6,0.3,3.1,0.5,4.5L223,412C223,410.3,223,408.6,222.9,407z"/>
			<path class="st14" d="M223,411.9l6.8-7.1l-0.3-4.6L223,407C223,408.6,223,410.3,223,411.9z"/>
		</g>
		<g>
			<path class="st15" d="M241,174c9.7-7.6,24.1-19.9,31.7-26.5c-4.5-0.5-7.8-0.8-7.8-0.8l-29.6,24.5l-35.8,29.2c0.6,2,1.4,3.6,2.4,5
				C213.9,195.7,232.2,180.9,241,174z"/>
			<path class="st15" d="M280.4,208.3c10.9,0,13.7-8.9,14.3-11.8c0.6-2.9-1.7-13.2-4.6-21.2s4.2-19.2,4.2-19.2s-1.1,21.3,12.4,43.8
				c1.3,2.1,3.2,4.8,4.8,7.4c6.9-3,11.9-5.9,14.4-7.5c-8-14.7-25.4-45.4-31.9-48c-4.1-1.6-10.9-2.9-16.9-3.7
				c-6.6,5.7-23.4,20-34.2,28.5c-8.8,6.9-27,21.7-38.9,31.4c3.3,3.1,7.4,4,10.3,4.6C224.8,214.6,269.5,208.3,280.4,208.3z"/>
			<path class="st15" d="M327.7,202.9c-2.7,1.7-7.6,4.6-14.4,7.5c1.8,3.8,2,7.2-3.1,8.4c-9.7,2.3-65.3,5.7-65.3,5.7l-26.3,3.8
				L265,229c0,0,19.8,0,33.5-3.4s31.8-18,31.8-18S329.3,205.9,327.7,202.9z"/>
			<path class="st14" d="M272.8,220.1c16.5-0.9,30.5-5.3,40.5-9.7c-0.5-1-1.1-2-1.7-3.1c-9.7,4.2-23.2,8.5-39,9.4L272.8,220.1z"/>
			<path class="st16" d="M194.2,211.7c2-1.6,4.7-3.8,7.8-6.3c-0.9-1.4-1.7-3-2.4-5l-5.1,4.1L194.2,211.7z"/>
			<path class="st16" d="M310.2,218.9c5.1-1.2,4.9-4.6,3.1-8.4c-10,4.4-24,8.9-40.5,9.7l-0.2-3.4c15.8-0.8,29.3-5.1,39-9.4
				c-1.6-2.6-3.6-5.3-4.8-7.4c-13.5-22.5-12.4-43.8-12.4-43.8s-7.1,11.2-4.2,19.2s5.2,18.3,4.6,21.2s-3.4,11.8-14.3,11.8
				s-55.6,6.2-65.9,4.3c-2.9-0.5-7-1.5-10.3-4.6c-4.7,3.8-8.4,6.8-10.2,8.3l-0.6,11.7l25.2,0.4l26.3-3.8
				C244.9,224.6,300.5,221.1,310.2,218.9z"/>
		</g>
		<g>
			<g>
				<path class="st15" d="M238,320.7c-0.9,33.7-1.8,119.5-2.1,155.8h3.4c0.4-36.3,1.2-122,2.1-155.7c0.6-24.2,0.2-85,0-100.7
					c-1.1,0.2-2.3,0.4-3.4,0.7C238.2,235.8,238.7,296.4,238,320.7z"/>
				<path class="st15" d="M228.7,223c-0.7,0.2-1.4,0.5-2.1,0.7v1.4C227.1,224.3,227.8,223.6,228.7,223z"/>
				<path class="st15" d="M327.2,476.5c1.2-53.1,4.7-208.1,5.3-220.4c0.7-12.7-1.1-26.3-2.7-35.4c-1.1-6.5-2.2-10.8-2.2-10.8
					s-5.6,4.3-15.9,5.6s-19.8-0.7-33.1-0.4c-3.7,0.1-7.6,0.3-11.4,0.6c-3.4,0.4-6.5,0.9-9.3,1.3v259.6L327.2,476.5L327.2,476.5z"/>
				<path class="st16" d="M258.1,492.4h68.8c0.1-2.7,0.2-8.2,0.4-15.9h-69.1v15.9H258.1z"/>
				<path class="st16" d="M235.9,476.5c-0.1,8.3-0.1,14-0.1,15.9h3.4c0-1.9,0.1-7.6,0.1-15.9H235.9z"/>
				<path class="st10" d="M238.1,220.7c0-0.6,0-1.2,0-1.7c-3.7,0.9-7.1,2.1-9.4,3.9c1.7-0.6,3.6-1.2,5.1-1.4
					C235.1,221.3,236.6,221,238.1,220.7z"/>
				<path class="st10" d="M238,320.7c0.6-24.3,0.2-85,0-100c-1.5,0.3-3,0.6-4.3,0.8c-1.5,0.3-3.4,0.9-5.1,1.4
					c-0.8,0.6-1.5,1.3-2.1,2.1v251.4h9.3C236.3,440.3,237.2,354.4,238,320.7z"/>
				<path class="st10" d="M226.6,492.6h9.2v-0.1h-9.2V492.6z"/>
				<path class="st17" d="M235.8,492.4c0-1.9,0.1-7.6,0.1-15.9h-9.3v15.9H235.8z"/>
				<path class="st10" d="M258.1,216.9v-0.3c-3,0.3-9.9,0.6-16.6,1.8c0,0.5,0,1.1,0,1.7c4.4-0.8,8.6-1.7,10.6-2.1
					C253.8,217.6,255.8,217.3,258.1,216.9z"/>
				<path class="st10" d="M241.5,320.8c-0.9,33.7-1.8,119.4-2.1,155.7h18.7V216.9c-2.3,0.4-4.3,0.7-6,1.1c-2,0.4-6.2,1.3-10.6,2.1
					C241.6,235.9,242.1,296.6,241.5,320.8z"/>
				<path class="st10" d="M239.2,492.6h18.9v-0.1h-18.9C239.2,492.4,239.2,492.5,239.2,492.6z"/>
				<path class="st17" d="M239.3,476.5c-0.1,8.3-0.1,14-0.1,15.9h18.9v-15.9H239.3z"/>
			</g>
			<path class="st14" d="M235.8,493.1h3.4c0,0,0-0.3,0-0.6h-3.4C235.8,492.9,235.8,493.1,235.8,493.1z"/>
			<path class="st14" d="M241.5,218.4c-1.2,0.2-2.3,0.5-3.4,0.7c0.1,11.5,0.7,76.3,0,101.7c-1.1,41.6-2.2,162.7-2.3,171.8h3.4
				c0.1-9.3,1.2-130.2,2.3-171.7C242.1,295.6,241.6,230.8,241.5,218.4z"/>
		</g>
		<g>
			<path class="st13" d="M267.1,228.3c-8.7-3.3-25.3-6-36.5-6.9s-50.7,9-50.7,9l5.8-10.2l-2.1,3.3l-27-10.4
				c-2.3,5.7-6.8,17.9-6.8,25.5c0,8.6,2.6,20.6,13.7,23.2c11.2,2.6,60.1-20.6,60.1-20.6s10.3,7.7,29.2,7.7c7.7,0,26.2-0.7,26.2-9
				C279.1,235.2,269.4,229.2,267.1,228.3z"/>
			<path class="st14" d="M222.9,149.7c0,0-19.8,3-30.9,6.4c-11.2,3.4-20.8,23.1-27.5,38.6c-7.4,17.2-7.9,18.3-7.9,18.3l0,0
				l27.2,10.6l10.7-18.6l40.5-33.6L222.9,149.7z"/>
		</g>
		<g>
			<path class="st10" d="M222.4,248.7c-0.7,0-1.4-0.5-1.6-1.2c-4.6-13.6-1-27.7-0.9-28.3c0.2-0.9,1.2-1.5,2.1-1.2
				c0.9,0.2,1.5,1.2,1.2,2.1c0,0.1-3.5,13.6,0.8,26.3c0.3,0.9-0.2,1.9-1.1,2.2C222.8,248.7,222.6,248.7,222.4,248.7z"/>
		</g>
		<g>
			<path class="st10" d="M215.1,250.8c-0.7,0-1.4-0.4-1.6-1.2c-4.6-13.6-1.1-27.7-0.9-28.3c0.2-0.9,1.2-1.5,2.1-1.2
				c0.9,0.2,1.5,1.2,1.2,2.1c0,0.1-3.5,13.6,0.8,26.3c0.3,0.9-0.2,1.9-1.1,2.2C215.5,250.8,215.3,250.8,215.1,250.8z"/>
		</g>
		<g>
			<path class="st10" d="M207.4,252.6c-0.7,0-1.4-0.4-1.6-1.2c-4.6-13.6-1-27.7-0.9-28.3c0.2-0.9,1.2-1.5,2.1-1.2
				c0.9,0.2,1.5,1.2,1.2,2.1c0,0.1-3.5,13.6,0.8,26.3c0.3,0.9-0.2,1.9-1.1,2.2C207.8,252.5,207.6,252.6,207.4,252.6z"/>
		</g>
		<path class="st10" d="M211.1,103.1c0,2.4-1.9,4.3-4.3,4.3c-2.4,0-4.3-1.9-4.3-4.3s1.9-4.3,4.3-4.3
			C209.1,98.8,211.1,100.8,211.1,103.1z"/>
		<circle class="st10" cx="282.8" cy="103.1" r="4.3"/>
	</g>
</g>
<g id="man-1">
	<g>
		<g>
			<g>
				<g>
					<path class="st18" d="M384.1,563.8l-0.3,8.2c0,0-10.9,23.8-23.5,31.9c-15.9,10.2-26.9,8.6-36,6.1s-9.6-8-9.6-8
						s-0.4-6.9,0.7-8.8C324.7,576.9,367.5,556.4,384.1,563.8z"/>
				</g>
				<g>
					<path class="st19" d="M377.1,559.6c0,0,8.7,1.2,6.6,6.5c-2.2,5.3-16.4,33.5-35.9,39c-19.5,5.4-33.2-0.8-32.9-9.7
						c0.4-9.8,17.7-14,30.8-24.3C358.9,560.9,377.1,559.6,377.1,559.6z"/>
				</g>
			</g>
			<g>
				<path class="st0" d="M380.4,525.8c0,0-2.6,16-2,22.2c0.8,7.2,2.8,15.8-1.4,20.1c-8.3,8.5-8.3,17.9-15.1,23.1
					c-16.3,12.5-27,14.1-34.5,8.3c-18.1,0.1-8.1-13.8-1.3-18.7c6.8-4.9,19.7-21.4,22.5-30.5c2.3-7.4,1.5-31.1,1.5-31.1L380.4,525.8z
					"/>
			</g>
			<g>
				<path class="st19" d="M356.8,597c0,0,1.3-6.7-9.4-12.5c-10.7-5.8-22.1-4.3-27.3,2.2c1.3-7,10.4-13.9,16.3-16.3
					c6-2.4,23.5,1.7,27.6,7.8c3.4,5.1,4.5,8.1,4.5,8.1S359.5,594.8,356.8,597z"/>
			</g>
		</g>
		<g>
			<g>
				<g>
					<path class="st18" d="M398.8,563.8l0.3,8.2c0,0,10.9,23.8,23.5,31.9c15.9,10.2,26.9,8.6,36,6.1s9.6-8,9.6-8s0.4-6.9-0.7-8.8
						C458.3,576.9,415.5,556.4,398.8,563.8z"/>
				</g>
				<g>
					<path class="st19" d="M405.8,559.6c0,0-8.7,1.2-6.6,6.5c2.2,5.3,16.4,33.5,35.9,39c19.5,5.4,33.2-0.8,32.9-9.7
						c-0.4-9.8-17.7-14-30.8-24.3C424.1,560.9,405.8,559.6,405.8,559.6z"/>
				</g>
			</g>
			<g>
				<path class="st0" d="M402.6,525.8c0,0,2.6,16,2,22.2c-0.8,7.2-2.8,15.8,1.4,20.1c8.3,8.5,8.3,17.9,15.1,23.1
					c16.3,12.5,27,14.1,34.5,8.3c18.1,0.1,8.1-13.8,1.3-18.7c-6.8-4.9-19.7-21.4-22.5-30.5c-2.3-7.4-1.5-31.1-1.5-31.1L402.6,525.8z
					"/>
			</g>
			<g>
				<path class="st19" d="M426.2,597c0,0-1.3-6.7,9.4-12.5c10.7-5.8,22.1-4.3,27.3,2.2c-1.3-7-10.4-13.9-16.3-16.3
					c-6-2.4-23.5,1.7-27.6,7.8c-3.4,5.1-4.5,8.1-4.5,8.1S423.5,594.8,426.2,597z"/>
			</g>
		</g>
		<g>
			<g>
				<polygon class="st0" points="372.9,118.2 372.9,149.5 416.8,149.5 416.8,111 				"/>
			</g>
			<g>
				<g>
					<path class="st0" d="M431.3,51.5c-9.3-17.9-28.4-12.7-35.4-10c-7-2.7-26.1-7.9-35.4,10c0,0-0.2,13.6,0.5,28.5
						c0.7,14.1,2.3,29.3,5.7,35.3c6.7,11.7,18.1,17.8,28.3,18.5v0.1c0.3,0,0.6-0.1,0.9-0.1s0.6,0.1,0.9,0.1v-0.1
						c10.2-0.7,21.6-6.8,28.3-18.5C432.2,102.8,431.3,51.5,431.3,51.5z"/>
				</g>
				<g>
					<path class="st0" d="M363.5,80.5c0,0-12.6-8.8-10.3,9.7c1.5,12.1,13.9,16.3,15.7,9.7L363.5,80.5z"/>
				</g>
				<g>
					<path class="st0" d="M429.5,80.5c0,0,12.8-7.3,10.3,9.7c-2.2,15-13.9,16.3-15.7,9.7L429.5,80.5z"/>
				</g>
				<g>
					<path class="st2" d="M361.4,85.4l0.6,11.2c0,0-7.6-2.1-5.1-10.9C358,81.6,361.4,85.4,361.4,85.4z"/>
				</g>
				<g>
					<path class="st2" d="M430.6,85.4L430,96.6c0,0,7.6-2.1,5.1-10.9C434,81.6,430.6,85.4,430.6,85.4z"/>
				</g>
				<g>
					<path class="st20" d="M431.4,29.8c-9.3-8.1-19.1-9.2-34.3-9.5c-9-0.2-25.3-0.3-36.8,9.7c-8.8,7.7-6.5,45.1-4.7,48.7
						c1.8-0.5,4.4,0.6,4.4,0.6l1.4,8.8l1.7,0.7l0.6,0.2l-0.6-22.4l3.3-5.5c0,0-0.9-7.6,1.8-11.2c1.9-2.5,17.7-0.8,29.1-0.7
						c11.3,0,24.5-1.4,26.4,1.2c2.7,3.6,1.8,11.2,1.8,11.2l3.3,5.5l-0.6,22.4l2.3-0.9l1.4-8.8c0,0,2.6-1.1,4.4-0.6
						C438.1,75.5,440.2,37.5,431.4,29.8z"/>
				</g>
			</g>
			<g>
				<g>
					<path class="st4" d="M371.9,82.6c0,0,2.8-2.7,7.8-3.3c3.4-0.4,6.1,0.4,6.9,1.9s-0.2,4.6-4.6,6.7
						C376.3,90.6,367.8,87.2,371.9,82.6z"/>
				</g>
				<g>
					<path class="st20" d="M386.8,80.1c-2.5-2.6-6.6-2.1-9.6-1.5c-2.1,0.4-5.6,2.2-6.6,4.2c-0.3,0.5,0.3,1.6,0.9,1.2
						c1.4-1.2,3.2-2.1,4.9-2.8c3.7-1.6,6.8-1.1,9.6,0.4C386.9,82.1,387.7,81,386.8,80.1z"/>
				</g>
				<g>
					<path class="st20" d="M382.4,82.8c0.3,2.1-1.1,4-3,4.3c-2,0.3-3.8-1.2-4.1-3.3c-0.3-2.1,1.1-4,3-4.3
						C380.3,79.3,382.1,80.7,382.4,82.8z"/>
				</g>
				<g>
					<path class="st4" d="M380.3,82.3c0.1,1-0.5,1.8-1.4,2c-0.9,0.1-1.7-0.5-1.9-1.5c-0.1-1,0.5-1.8,1.4-2
						C379.3,80.6,380.2,81.3,380.3,82.3z"/>
				</g>
				<g>
					<path class="st20" d="M389.8,66.3c-4.5-0.4-8.1,0-13.3,0.8c-2.2,0.4-6.4,1.3-8.5,2.8c-1.2,0.8-0.3,3.7,2.3,2.8
						c7-2.4,14.7-2.3,19.3-2.7C391.6,69.8,391.9,66.5,389.8,66.3z"/>
				</g>
			</g>
			<g>
				<g>
					<path class="st4" d="M420.5,82.6c0,0-2.8-2.7-7.8-3.3c-3.4-0.4-6.1,0.4-6.9,1.9s0.2,4.6,4.6,6.7
						C416.1,90.6,424.6,87.2,420.5,82.6z"/>
				</g>
				<g>
					<path class="st20" d="M405.5,80.1c2.5-2.6,6.6-2.1,9.6-1.5c2.1,0.4,5.6,2.2,6.6,4.2c0.3,0.5-0.3,1.6-0.9,1.2
						c-1.4-1.2-3.2-2.1-4.9-2.8c-3.7-1.6-6.8-1.1-9.6,0.4C405.4,82.1,404.7,81,405.5,80.1z"/>
				</g>
				<g>
					<path class="st20" d="M410,82.8c-0.3,2.1,1.1,4,3,4.3c2,0.3,3.8-1.2,4.1-3.3c0.3-2.1-1.1-4-3-4.3
						C412.1,79.3,410.2,80.7,410,82.8z"/>
				</g>
				<g>
					<path class="st4" d="M412.1,82.3c-0.1,1,0.5,1.8,1.4,2c0.9,0.1,1.7-0.5,1.9-1.5c0.1-1-0.5-1.8-1.4-2
						C413.1,80.6,412.2,81.3,412.1,82.3z"/>
				</g>
				<g>
					<path class="st20" d="M402.6,66.3c4.5-0.4,8.1,0,13.3,0.8c2.2,0.4,6.4,1.3,8.5,2.8c1.2,0.8,0.4,3.7-2.3,2.8
						c-7-2.4-14.7-2.3-19.3-2.7C400.7,69.8,400.5,66.5,402.6,66.3z"/>
				</g>
			</g>
			<g>
				<path class="st2" d="M403.2,97.5c-0.4-3.3-3-9.1-3.5-10.5c-0.9-2.7-2.2-1.8-1.9,0.3c0.2,1.4,0.7,5.2,0.9,8.9
					c0.3,4.2-0.5,4.4-1.2,6.9c-0.5,1.6-0.1,2.1,1.6,1.5C402.7,103.3,403.6,100.8,403.2,97.5z"/>
			</g>
			<g>
				<path class="st2" d="M405.7,111.2c-3,0.2-6,0.5-9,0.4c-4,0-8-0.5-12.1-0.8c-0.7-0.1-0.8,0.8-0.4,1.1c3,2.3,8.9,2.1,12.5,2.2
					c3.1,0.1,6.7-0.2,9.4-1.3C407.9,112,407.4,111.1,405.7,111.2z"/>
			</g>
			<g>
				<path class="st2" d="M402.4,117.3c-2,0.4-5.1,0.5-6.6,0.5c-1.7,0-5-0.3-6.7-0.6c-0.8-0.2-0.8,0.4,0,1c1.5,1.1,4.9,1.6,6.9,1.6
					c2.5,0,4.2-0.4,6.4-1.2C403.6,118,404,117,402.4,117.3z"/>
			</g>
			<g>
				<g>
					<path class="st21" d="M376.5,333.6l33.8,15.4c0,0,17.4-27.1,25.1-21.9c7.4,5.1,19.5,0.2,26.7-4.1c5.6-5.2,21.4-21,21.4-33
						c0-12.6-1.7-66.6-4-88.6c-1.9-18.4-3.9-25.9-25.5-34.5c-19.2-7.6-31.3-11.2-31.3-11.2l-36.2-1.8v3l-17.9-1.2
						c0,0-12.1,3.6-31.3,11.2c-21.6,8.5-23.6,16-25.5,34.5c-2.3,22.1-4,76-4,88.6c0,11,15,26.8,21,32.7c4.9,3.5,15.1,9.2,25.3,9.6
						C363.5,332.7,376.5,333.6,376.5,333.6z"/>
				</g>
				<g>
					<path class="st21" d="M328.1,327.6l-2.7,213.5h140l-3.1-217.5c-8.6,7.9-31.4,15.2-62.2,15.2
						C371.8,338.8,338.7,334.6,328.1,327.6z"/>
				</g>
				<g>
					<path class="st22" d="M435.3,327.1c-7.6-5.2-25.1,21.9-25.1,21.9l-33.8-15.4c0,0-13-0.9-22.6-1.3
						c-10.2-0.5-25.7-10.1-25.7-10.1v12.1c8.5,4.9,27.2,2.1,43,13.9c9,6.7,18,13.5,30,13c19.2-0.9,21.5-4,32.7-14.3
						c10-9.2,24.4-10.8,28.9-14.9l0.2-9.7C462.9,322.2,442.8,332.2,435.3,327.1z"/>
				</g>
			</g>
			<g>
				<path class="st23" d="M353.9,58.2c0,0,25.1-4.3,43.6-4c15.2,0.2,40.5,4,40.5,4s2.2-18.6-4.5-32c-6-12.1-68.5-11.6-75.4,0.7
					C351.5,38.5,353.4,51.5,353.9,58.2z"/>
			</g>
			<g>
				<path class="st4" d="M438,60.8c-10.8-1.7-29.4-4.5-40.5-4.8c-12.3-0.4-33.8,2.9-43.5,4.5c-0.2-0.9-0.3-2.1-0.3-3.6
					c9.9-1.6,31.2-4.8,43.9-4.5c11.3,0.3,29.7,3,40.7,4.8C438.1,58.7,438,59.5,438,60.8z"/>
			</g>
			<g>
				<polygon class="st4" points="364.2,144.3 364.2,157.8 387.4,157.8 387.4,290.7 403,290.7 403,157.8 428.6,157.8 428.6,144.3 
									"/>
			</g>
			<g>
				<path class="st22" d="M454.8,264.5c-3.1-1.2-5.8-1.8-2.2-9.4c13.6-29,9-77.9,9-77.9c-7.2,39.4-12.9,68.3-26,86.8
					c-6.2,8.7-15.6,18.8-24.1,26.7c-9,8.3-18.4,9.8-28.1,2.5c-9.8-7.4-20-19.5-26.8-29.2c-13.1-18.5-18.8-47.4-26-86.8
					c0,0-4.7,48.9,9,77.9c3.6,7.6,0.9,8.2-2.2,9.4c-2,0.8-11.8,6.7-8.5,7.2c3.6,0.4,14.3-4.5,20.6,0.4c7.2,5.7,19,20.7,23.3,27.7
					c9,14.8,16.9,17.1,19.6,17.4l-1,5.2c0,0,23.7-7.8,30-13.2c7.8-14.8,14.2-31.5,21.5-37.1c6.3-4.9,17,0,20.6-0.4
					C466.6,271.2,456.8,265.2,454.8,264.5z"/>
			</g>
			<g>
				<path class="st24" d="M421.2,306.6l13.7,19.5c0,0-11.7,16-19.7,21.5c-9.2,6.3-21.9,3.2-29.3,0.4c-1.9-0.7-3.7-4.7-4.5-5.8
					c-3.6-1.6-5.8-3.4-4.9-6c4.7-1.1,25.5-3.8,25.5-10.5c0-2.9-9.3,0.5-13.7-1.6c-4.7-2.2-8.7-7.6,0-6.9
					C394.7,317.6,414,313.7,421.2,306.6z"/>
			</g>
			<g>
				<path class="st24" d="M381.2,309.5L367.6,329c0,0,11.7,16,19.7,21.5c9.2,6.3,21.9,3.2,29.3,0.4c1.9-0.7,3.7-4.7,4.5-5.8
					c3.6-1.6,5.8-3.4,4.9-6c-4.7-1.1-25.1-3.3-25.1-10.1c0-2.9,8.8,0.1,13.2-2c4.7-2.2,8.7-7.6,0-6.9
					C407.6,320.5,388.3,316.6,381.2,309.5z"/>
			</g>
			<g>
				<path class="st4" d="M371.1,298.5l14.3,11.9c0,0-3.8,4-7.4,11.4c-4.2,8.8-4.9,18.3-4.9,18.3l-16.8-8.5c0,0,0.9-15.4,6.3-24.4
					C368,298.3,371.1,298.5,371.1,298.5z"/>
			</g>
			<g>
				<path class="st22" d="M374.5,297.6c0,0-13.8,16.1-14.8,30.9c-0.4,6.5-0.2,8.7-0.2,8.7l-5.4-2.7c0,0,0-18.6,7.6-30.7
					s10.3-12.1,10.3-12.1L374.5,297.6z"/>
			</g>
			<g>
				<path class="st4" d="M428.2,298.5l-14.3,11.9c0,0,3.8,4,7.4,11.4c4.2,8.8,6.5,18.1,6.5,18.1l15.2-9.6c0,0-0.9-14.1-6.3-23
					C431.3,298.3,428.2,298.5,428.2,298.5z"/>
			</g>
			<g>
				<path class="st22" d="M424.8,297.6c0,0,13.8,16.1,14.8,30.9c0.4,6.5,0.2,8.7,0.2,8.7l5.4-2.7c0,0,0-18.6-7.6-30.7
					s-10.3-12.1-10.3-12.1L424.8,297.6z"/>
			</g>
			<g>
				<path class="st25" d="M425.9,339c0,0-21-6.2-21.8-8.1c-0.9-1.9,1.4-2.3,2.9-2.8c3-0.9,4.6-0.8,6.5-2.1c1.8-1.3,3.1-3.5,3.1-5.4
					c0-2.7-0.6-3.3-1.1-1.3c-0.8,3-2,3.8-5.1,5.1c-3.1,1.3-6.9,1.8-8.7,3.1c-1.8,1.3-4.5,3.4,0.9,6c5.4,2.7,14.2,5.3,16.2,5.7
					C421.8,339.9,423.9,340.5,425.9,339z"/>
			</g>
			<g>
				<path class="st25" d="M420.6,345.2c0,0-8.5-1.4-9.8-1.7c-3.9-0.9-1,2.2,3.4,2.6C417.6,346.3,420.6,345.2,420.6,345.2z"/>
			</g>
		</g>
	</g>
</g>
<g id="woman-2">
	<g>
		<g>
			<path class="st13" d="M555.6,574.9c7.7,10.6,18.2,19.7,18.2,19.7s0.1,0.1,0.3,0.3c-11,0-22.3,8.4-22.3,8.4l-15.6-11.6
				c0,0-0.2-4-1.4-8.7C536.7,581,544.5,573.7,555.6,574.9z"/>
			<path class="st26" d="M525.1,567.8c0.2,0.1,0.4,0.1,0.6,0.2c3.1,1.6,5.3,4.7,6.8,8.3l0,0c4.7-6.1,13.4-7.3,19.2-7.3
				c1.2,2,2.5,4,3.9,6c-11.1-1.2-18.9,6.1-20.9,8.1l0,0c1.1,4.7,1.4,8.7,1.4,8.7l15.6,11.6c0,0,11.3-8.4,22.3-8.4
				c1.6,1.7,10.6,11.8,6.7,15.9c-8.1,8.7-23.2,2.3-29-2.3s-18.4-12.2-23.2-17.9C524.6,585.8,522.3,579.8,525.1,567.8z"/>
			<path class="st13" d="M487.5,574.9c-7.7,10.6-18.2,19.7-18.2,19.7s-0.1,0.1-0.3,0.3c11,0,22.3,8.4,22.3,8.4l15.6-11.6
				c0,0,0.2-4,1.4-8.7C506.4,581,498.7,573.7,487.5,574.9z"/>
			<path class="st26" d="M518,567.8c-0.2,0.1-0.4,0.1-0.6,0.2c-3.1,1.6-5.3,4.7-6.8,8.3l0,0c-4.7-6.1-13.4-7.3-19.2-7.3
				c-1.2,2-2.5,4-3.9,6c11.1-1.2,18.9,6.1,20.9,8.1l0,0c-1.1,4.7-1.4,8.7-1.4,8.7l-15.6,11.6c0,0-11.3-8.4-22.3-8.4
				c-1.6,1.7-10.6,11.8-6.7,15.9c8.1,8.7,23.2,2.3,28.9-2.3c5.8-4.6,18.4-12.2,23.2-17.9C518.5,585.8,520.9,579.8,518,567.8z"/>
			<path class="st13" d="M521.6,430l1.1,0.2c0,0-0.4,4.8-1.1,12.6c0.4,5.1,0.9,11.4,1.5,18.5c2.7,36.1,6.4,92,3.3,102
				c-0.5,1.6-0.8,3-1.2,4.4c0.2,0.1,0.4,0.1,0.6,0.2c3.1,1.6,5.3,4.7,6.8,8.3c4.7-6.1,13.4-7.3,19.2-7.3c-0.2-0.3-0.4-0.6-0.5-0.9
				c-3.5-6.4,1.6-22.7,3.5-40.5c2.4-22.8,4.9-52.8,6.6-74.7c1.3-16.9,2.1-29,2.1-29L521.6,430z"/>
			<path class="st13" d="M521.6,430l-41.8-6.2c0,0,0.8,11.3,2,27.5c1.7,22,4.2,52.9,6.7,76.2c1.9,17.8,6.9,34.2,3.5,40.5
				c-0.2,0.3-0.4,0.6-0.5,0.9c5.8,0,14.5,1.3,19.2,7.3c1.5-3.5,3.7-6.7,6.8-8.3c0.2-0.1,0.4-0.1,0.6-0.2c-0.3-1.4-0.7-2.8-1.2-4.4
				c-3.1-10.1,0.5-66,3.3-102.1c0.5-7.1,1-13.4,1.5-18.5c-0.6-7.8-1.1-12.6-1.1-12.6L521.6,430z"/>
		</g>
		<g>
			<path d="M526.6,50.5c0,0,12.9-6.2,26.6-0.4c13.4,5.7,19.1,12.5,27.5,32.9c8.3,20.4,0.4,28.3,9.2,32.4
				c8.7,4.2,28.9,18.7,18.3,29.5c-10.6,10.8-13.1,13.9-4.6,18.7c9.2,5.2,12.9,27.5-0.8,31.2s-14.6,8.3-10.4,12.5
				c4.2,4.2,10.4,2.1,10.4,2.1s-5.8,12.1-15.8,5s-35-16.2-37.4-15c-2.5,1.2-23.3,17.9-32.5,13.7s-25.4-15-31.6-9.6s-9.2-2.6-9.2-2.6
				s-17.5,10.5-25-7.6c5.4,3.5,9.2,1.5,10.4-4.8c1.3-6.2-8.3-11.6-10.4-17.5c-2.1-5.8,2.5-17.9,11.7-25.8c9.2-7.9,8.2-10.5,0.4-19.6
				c-5.2-6-6.9-13.7,4-21.4c10.8-7.7,9.8-19.3,14.8-36.4C485.3,57.2,505.8,32.2,526.6,50.5z"/>
			<path class="st13" d="M521.1,179.8c-2.7-0.3-4.9-0.8-6.8-1.2c1.1-4.2,1.4-9.5,1-16.5c-0.6-10.4,26.1-0.6,26.1-0.6
				s-0.7,4.9-0.6,10.3C536.7,175.3,529,180.8,521.1,179.8z"/>
			<path class="st13" d="M501.1,189c0,0,8.7-0.9,11-4.9c0.9-1.6,1.6-3.5,2.2-5.5c1.9,0.4,4.1,0.9,6.8,1.2c8,1,15.6-4.4,19.7-7.9
				c0.2,6.2,1.5,13.1,6.4,14c11.2,2.1,9,1.7,9,1.7s-2.4,7.7-7.5,14.8c-7.3,6.5-18.4,10.1-28.8,10.3C504.5,206.9,501.1,189,501.1,189
				z"/>
			<g>
				<path class="st13" d="M537,67.4c22.2,1.9,27,31.4,27.3,45.9c2-1,6.3-0.5,9.1,4.4c3.8,6.3-1.2,20-12.6,19.7
					c-1.6,4.4-5.6,10.5-10.5,15.9c-11.2,12.5-19.7,15-25.8,15c-7.5,0-13.4-3.6-22.9-15c-16.4-19.8-13.2-48.4-13.2-48.4
					C490.4,78.2,505.5,64.7,537,67.4z"/>
				<path class="st4" d="M550.9,117.8c0,0-2.2-3.8-6.8-5.2c-4.6-1.4-8-1.5-10.8,0.2s-2.2,1.5-2.2,1.5s-1.4,1.5,0.2,4.5
					c1.5,2.7,4,4.8,9.6,4.9C546.6,123.7,552.5,119.3,550.9,117.8z"/>
				<path class="st4" d="M511.9,115.8c0,0,2.1,2.3,0.1,4.3s-5.3,3.4-8.8,2.4s-5.9-4.2-6.9-5.5c-0.9-1.4,1.5-2.6,3.2-3.3
					C501.3,112.9,505.6,109.6,511.9,115.8z"/>
				<path d="M540.7,110.7c4.4,0.6,8.6,3.3,11.5,6.3c0.4,0.4,0.6,1.2,0,1.9c-0.5,0.6-2.2,1.8-2.7,2c-0.8,0.5-0.9-0.5-0.2-1.1
					c0.8-0.8,0.8-2.2-1.1-4c-2.6-2.4-6.2-3.6-9.8-3.5c-2.2,0-4.9,0.9-6.8,1.9c-1.1,0.6-1-0.3-0.4-0.9
					C533.8,110.9,537.1,110.2,540.7,110.7z"/>
				<path d="M495.9,115.3c5.2-4.4,8.3-4.1,10.6-3.6c2.6,0.5,5.6,2.2,6.8,5.2c0.4,0.9-0.4,1.1-0.8,0.5c-1.9-2.6-3.9-4.2-7.3-4.7
					c-3.5-0.5-5.7,1.4-8.2,3.9c0.3,0.7,0.8,1.5,1.2,2.1c0.9,1.1,0.8,1.9-0.3,1.1c-0.9-0.7-1.9-2.2-2.4-3.1
					C495.1,116.2,495.4,115.7,495.9,115.3z"/>
				<path d="M538.1,118.2c0,2.4,2,4.4,4.4,4.4s4.4-2,4.4-4.4s-2-4.4-4.4-4.4C540.1,113.7,538.1,115.7,538.1,118.2z"/>
				<path d="M501.8,117.8c0,2.3,1.8,4.1,4.1,4.1s4.1-1.8,4.1-4.1c0-2.3-1.8-4.1-4.1-4.1C503.6,113.7,501.8,115.6,501.8,117.8z"/>
				<path class="st4" d="M542.4,116.7c0,0.8,0.6,1.4,1.4,1.4s1.4-0.6,1.4-1.4s-0.6-1.4-1.4-1.4C543,115.3,542.4,115.9,542.4,116.7z"
					/>
				<path class="st4" d="M505.4,116.7c0,0.8,0.6,1.4,1.4,1.4s1.4-0.6,1.4-1.4s-0.6-1.4-1.4-1.4C506,115.3,505.4,115.9,505.4,116.7z"
					/>
				<path class="st2" d="M564.5,120.1c0,0,6.9-2.7,5,5.4c-1.7,7.2-6.9,5.2-6.9,5.2L564.5,120.1z"/>
				<path class="st2" d="M516.6,127.8c0.7-1.6,1.5-0.7,1.2,0.6c-0.3,1.8-0.4,3.7-0.4,5.5c0,3,0.4,3.7,1.5,5c0.4,0.4-0.6,1.4-1.5,0.9
					C511.1,137.1,515.4,130.6,516.6,127.8z"/>
				<path d="M532.2,100.2c2.6-2.6,7-2,10.1-0.9c4.7,1.7,8.6,4.7,11.9,8.9c1.8,2.3,0.3,2.1-0.8,1c-3.4-3.5-6.8-6.3-11.4-7.7
					c-3.3-1-5.8-1.1-8.9,0C531.8,101.8,531.4,101,532.2,100.2z"/>
				<path d="M501.5,98.5c2.4-1.3,6.7-1.9,8.9,0.3c0.8,0.8,0,1.6-0.7,1.3c-1-0.4-1.8-0.8-2.9-0.7c-3.2,0.2-4.3-0.3-10.8,6.8
					c-0.2,0.2-0.9,0.2-0.4-0.9C496.6,102.6,499,99.9,501.5,98.5z"/>
				<path class="st9" d="M511.6,147.3c1.9,1,3.1-0.8,4.6-1c1.2-0.1,2.5,0.7,3.1,1.6c1.6-2.4,4.2-1.8,6.6-0.9c2.7,1,5.3,2.2,8.2,1
					c0.6-0.2,1.1,0.5,0.6,1c-1,1-2.2,1.4-3.7,1.5c-0.7,2.1-5.9,4.3-7.5,4.5c-4.9,0.8-7.7-1.3-9.5-5.4c-1.3,0-2.6-0.8-3.6-1.7
					C509.4,147.1,510.9,147,511.6,147.3z"/>
			</g>
			<path d="M481.3,96.6c8.3-17.1,30.8-41.6,34.9-35.4c0.8,1.2,1.3,2.3,1.6,3.3c12.9-15.1,45.9,3.3,45.8,19.4
				c8.7-1.8,24,22.1,8.3,29.3c-13.5,6.2-16.3-10.1-16.9-17.2c-24.9,14.6-39-16-39-16s-3,10.6-16.3,11.5c0,7.9-9.7,21.2-18.2,17.6
				C481.5,109.1,472.9,113.7,481.3,96.6z"/>
		</g>
		<g>
			<path class="st13" d="M577.7,326.2c0,0,9.4-2.6,10.9,0.9s-10.6,5.6-12.5,5.4C574.1,332.4,577.7,326.2,577.7,326.2z"/>
			<path class="st13" d="M598.8,266.8L570.3,242c0,0-0.1,0.2-0.1,0.4c-5.7-7.9-10.9-20.2-10.9-31.7c0-9.3,3.4-17.4,5.2-21
				c2.1,0.6,4.2,1.2,6.3,1.9c8,2.7,10.7,7.3,17.1,16.5c12.4,18,27.6,44,31.5,50c5.2,8.1,3.2,13.1-1.8,22.1
				c-4.8,8.7-21.7,23.3-32.4,33.7c-2.1,2-8.3,17.4-9.3,18.3c-3.8-8.3-8.7-15.1-11-20.7c0,0,5.7-8.3,6.8-10.2
				C577.5,292,598.8,266.8,598.8,266.8z"/>
		</g>
		<g>
			<path class="st13" d="M484.8,323.3c0,0-12.3-1.8-13.2,1.8c-1.4,5.7,14.1,4.8,14.1,4.8L484.8,323.3z"/>
			<path class="st13" d="M441.4,248.2c10.3-17.5,27-39.8,34.5-47.9c4.1-4.4,9.1-6.9,12.9-8.3c-3.3,5.8-7,17.4-8,29.6
				c-0.4,4.6,0.2,13.1,1.5,20.3L459,262.3c0,0,20.3,23,26.2,30.6c2.3,2.9,8.8,11.8,8.8,11.8c-2.4,7.1-5.3,15.5-8.2,22.7
				c-2.8,0.4-6.5-0.8-10-19.1C463,293.5,448,279.1,441,272.5C433,265,433.7,261.2,441.4,248.2z"/>
		</g>
		<g>
			<path class="st26" d="M577.7,330.8c-3.8-8.3-7-15.8-9.4-21.5c-2-4.7-3.3-8.3-3.8-10c-1.8-7.3-3.4-12.7-4.2-16.6
				c-4.8,1.7-19.1,5.8-44.4,4.5c-9.7-0.5-15.9-1.5-19.7-2.3c-0.2,2.5-1.8,7.9-4,14.3c-2.4,7.1-5.6,15.4-8.5,22.6
				c-1.8,4.3-3.4,8.2-4.8,11.2c-5.8,12.7-30.7,71.8-30.7,71.8s2.1,4.1,6.7,9.7l47.7-104.6l-35.2,117.2c4,3.2,8.6,6.4,13.9,9.2
				l32.2-118.8l-13,126c6.1,1.5,12.9,2.4,20.2,2.6l10.2-125.7l8.4,124.7c7.3-0.8,13.9-2.1,20-3.7l-12.8-123.9l31.8,117.3
				c5.3-2.3,9.8-4.8,13.8-7.3L557,309.8l48.9,107.1c5.4-5,7.8-8.7,7.8-8.7S592.3,363.2,577.7,330.8z"/>
			<path class="st27" d="M605.9,416.9c-3.4,3.1-7.8,6.8-13.6,10.4L557,309.8L605.9,416.9z"/>
			<path class="st27" d="M454.8,414.4l47.7-104.6L467.3,427C462.1,422.6,457.9,418.1,454.8,414.4z"/>
			<path class="st27" d="M578.4,434.6c-5.6,2.5-11.9,4.7-19.1,6.6l-12.8-123.9L578.4,434.6z"/>
			<path class="st27" d="M500.6,443.3c-7.2-1.8-13.6-4.3-19.2-7.2l32.2-118.8L500.6,443.3z"/>
			<path class="st27" d="M539.4,444.8c-4,0.5-8.1,0.8-12.5,1c-2.1,0.1-4.1,0.1-6.1,0.1L531,320.2L539.4,444.8z"/>
			<path class="st26" d="M499.3,188.9l12.5-4.2c0,0-4.6,18.5,12.7,19.4c15.8,0.8,21.4-18.5,21.4-18.5s5.6,0.9,13,2.7
				c-8.1,16.2-5.1,31.5-2,42.8c2.3,8.5,8,14.1,11.5,17c-2,6.4-5,16.5-6.9,23.1c-3.8,0.9-25.1,5.6-44.5,5.1
				c-11.5-0.3-19-1.6-23.4-2.8c-3.9-12.9-10.7-32-10.7-32C480.3,217.9,494.2,196,499.3,188.9z"/>
			<path class="st27" d="M557,231c-3.1-11.2-6.1-26.6,2-42.8c1.8,0.4,3.6,0.9,5.6,1.5c-1.8,3.7-5.2,11.7-5.2,21
				c0,11.5,5.2,23.9,10.9,31.7c-0.3,0.8-0.9,2.9-1.7,5.5C565,245.1,559.3,239.5,557,231z"/>
			<path class="st27" d="M479.8,221.3c0.8-12.2,5.7-23.5,9-29.3c2.1-0.8,10.4-3.2,10.4-3.2c-5.1,7.1-19,29.1-16.4,52.6l-1,1.2
				C480.5,235.3,479.4,227.7,479.8,221.3z"/>
			<path class="st27" d="M548.3,186c0,0-6.5,22.6-26.1,20.3c-19.5-2.3-13.2-20.6-13.2-20.6l3-1.2c0,0-4.1,15,9.8,16.5
				c16.4,1.8,23.2-15.8,23.2-15.8L548.3,186z"/>
			<path class="st27" d="M515.9,287.2c-9.7-0.5-15.9-1.5-19.7-2.3c0-0.2,0-0.4,0-0.6c0-1.6-1.1-5.8-2.6-10.9
				c4.5,1.1,11.9,2.5,23.4,2.8c19.4,0.5,40.7-4.2,44.5-5.1c-0.9,3.1-1.5,5.4-1.7,6.2c-0.2,1.3,0,3.1,0.4,5.4
				C555.5,284.4,541.2,288.6,515.9,287.2z"/>
		</g>
	</g>
</g>
<g id="sign">
	
		<rect x="743.6" y="472.7" transform="matrix(0.9935 -0.1136 0.1136 0.9935 -58.176 88.9856)" class="st28" width="16.2" height="164.5"/>
	
		<rect x="614.6" y="357.1" transform="matrix(0.9935 -0.1136 0.1136 0.9935 -43.5615 86.4599)" class="st0" width="244.5" height="136.7"/>
	<g>
		<path class="st4" d="M675.4,405.2l0.8,6.8l-6.8,0.8l-2.5-21.5l9.4-1.1c2.6-0.3,4.7,0.1,6.3,1.3c1.6,1.2,2.5,2.9,2.7,5.1
			c0.2,1.4,0,2.6-0.5,3.8c-0.5,1.2-1.3,2.2-2.5,2.9c-1.2,0.8-2.6,1.3-4.3,1.5L675.4,405.2z M678.6,397.4c-0.2-1.3-0.9-1.9-2.3-1.7
			l-1.9,0.2l0.5,4l1.9-0.2C678.1,399.5,678.8,398.7,678.6,397.4z"/>
		<path class="st4" d="M702.9,388.2c1.8,0.8,3.3,1.9,4.5,3.5s1.9,3.4,2.1,5.5c0.2,2.1,0,4.1-0.8,5.9s-2,3.3-3.6,4.4
			s-3.4,1.8-5.4,2.1c-2,0.2-3.9,0-5.7-0.8s-3.3-1.9-4.5-3.5s-1.9-3.4-2.1-5.5c-0.2-2.1,0-4.1,0.8-5.9s2-3.3,3.6-4.4s3.4-1.8,5.4-2.1
			C699.2,387.2,701.1,387.5,702.9,388.2z M694.9,395.3c-0.6,0.9-0.9,2.2-0.7,3.6c0.2,1.5,0.7,2.6,1.5,3.4s1.9,1.1,3.3,0.9
			c1.3-0.2,2.3-0.7,3-1.6c0.6-0.9,0.9-2.1,0.7-3.6s-0.7-2.6-1.5-3.4s-1.9-1.1-3.3-0.9C696.6,393.8,695.6,394.4,694.9,395.3z"/>
		<path class="st4" d="M719.3,401.9l6.5-0.7l0.6,5.1l-13.3,1.5l-2.5-21.5l6.8-0.8L719.3,401.9z"/>
		<path class="st4" d="M734.7,400.1l6.5-0.7l0.6,5.1l-13.3,1.5l-2.5-21.5l6.8-0.8L734.7,400.1z"/>
		<path class="st4" d="M748.3,382l2.5,21.5l-6.8,0.8l-2.5-21.5L748.3,382z"/>
		<path class="st4" d="M774.4,400.8l-6.8,0.8l-8.4-10l1.2,10.8l-6.8,0.8l-2.5-21.5l6.8-0.8l8.4,10.2l-1.3-11l6.8-0.8L774.4,400.8z"
			/>
		<path class="st4" d="M792.4,378.8c1.9,1.2,3.2,2.9,3.8,5.2l-7.1,0.8c-0.3-0.4-0.7-0.7-1.2-0.9c-0.5-0.2-1.1-0.2-1.8-0.1
			c-1.3,0.1-2.3,0.7-2.9,1.6c-0.6,0.9-0.8,2.1-0.7,3.6c0.2,1.7,0.7,2.9,1.6,3.6c0.9,0.7,2.2,1,3.8,0.8s2.7-1,3.6-2.3l-5.4,0.6
			l-0.5-4.8l11-1.3l0.8,6.8c-0.7,1.7-1.9,3.2-3.4,4.6c-1.5,1.3-3.5,2.1-6,2.4c-2.2,0.3-4.2,0-6-0.7s-3.2-1.9-4.2-3.4
			c-1.1-1.6-1.7-3.4-2-5.5c-0.2-2.1,0-4.1,0.7-5.8c0.7-1.8,1.8-3.2,3.3-4.3c1.5-1.1,3.4-1.8,5.6-2
			C788.1,377.2,790.4,377.6,792.4,378.8z"/>
		<path class="st4" d="M708.7,423.5l1.4,12.1c0.1,1,0.4,1.8,0.9,2.3s1.2,0.7,2.2,0.6s1.7-0.5,2.1-1.1c0.4-0.6,0.5-1.4,0.4-2.4
			l-1.4-12.1l6.7-0.8l1.4,12.1c0.2,2,0,3.8-0.7,5.4c-0.7,1.5-1.7,2.8-3.1,3.7c-1.4,0.9-3,1.5-4.8,1.7s-3.5,0-5-0.5
			c-1.5-0.6-2.7-1.5-3.7-2.9c-1-1.3-1.6-3.1-1.8-5.1l-1.4-12.1L708.7,423.5z"/>
		<path class="st4" d="M747.1,440.9l-6.8,0.8l-8.4-10l1.2,10.8l-6.8,0.8l-2.5-21.5l6.8-0.8l8.4,10.2l-1.3-11l6.8-0.8L747.1,440.9z"
			/>
		<path class="st4" d="M754.5,418.2l2.5,21.5l-6.8,0.8l-2.5-21.5L754.5,418.2z"/>
		<path class="st4" d="M774.4,415.9l0.6,5.4l-5.7,0.7l1.9,16.2l-6.8,0.8l-1.9-16.2l-5.7,0.6l-0.6-5.4L774.4,415.9z"/>
	</g>
	<polygon class="st29" points="861,577.6 846.1,526.1 612.8,536.6 627.7,588.1 736.6,583.2 752.4,637.6 767.8,636.9 752.1,582.5 	
		"/>
	<g>
		<g>
			<line class="st30" x1="709.6" y1="473.7" x2="749.7" y2="469.1"/>
			<g>
				<polygon class="st4" points="743.9,480 780.5,465.6 741.6,459.8 				"/>
			</g>
		</g>
	</g>
</g>
</svg>
