<?xml version="1.0" encoding="utf-8"?>
<!-- Generator: Adobe Illustrator 23.0.0, SVG Export Plug-In . SVG Version: 6.00 Build 0)  -->
<svg version="1.1" id="Layer_1" xmlns="http://www.w3.org/2000/svg" xmlns:xlink="http://www.w3.org/1999/xlink" x="0px" y="0px"
	 viewBox="0 0 1000 640" style="enable-background:new 0 0 1000 640;" xml:space="preserve">
<style type="text/css">
	.st0{fill:#873F2B;}
	.st1{fill:#582A1A;}
	.st2{fill:#854D2C;}
	.st3{fill:#502E1C;}
	.st4{fill:#333333;}
	.st5{fill:#FFFFFF;}
	.st6{fill:#FFD199;}
	.st7{fill:#EFB06C;}
	.st8{fill:#1B75BC;}
	.st9{fill:#F9C38A;}
	.st10{fill:#E59553;}
</style>
<g id="man-1">
	<g>
		<g>
			<g>
				<g>
					<path class="st0" d="M384.1,563.8l-0.3,8.2c0,0-10.9,23.8-23.5,31.9c-15.9,10.2-26.9,8.6-36,6.1s-9.6-8-9.6-8s-0.4-6.9,0.7-8.8
						C324.7,576.9,367.5,556.4,384.1,563.8z"/>
				</g>
				<g>
					<path class="st1" d="M377.1,559.6c0,0,8.7,1.2,6.6,6.5c-2.2,5.3-16.4,33.5-35.9,39c-19.5,5.4-33.2-0.8-32.9-9.7
						c0.4-9.8,17.7-14,30.8-24.3C358.9,560.9,377.1,559.6,377.1,559.6z"/>
				</g>
			</g>
			<g>
				<path class="st2" d="M380.4,525.8c0,0-2.6,16-2,22.2c0.8,7.2,2.8,15.8-1.4,20.1c-8.3,8.5-8.3,17.9-15.1,23.1
					c-16.3,12.5-27,14.1-34.5,8.3c-18.1,0.1-8.1-13.8-1.3-18.7c6.8-4.9,19.7-21.4,22.5-30.5c2.3-7.4,1.5-31.1,1.5-31.1L380.4,525.8z
					"/>
			</g>
			<g>
				<path class="st1" d="M356.8,597c0,0,1.3-6.7-9.4-12.5c-10.7-5.8-22.1-4.3-27.3,2.2c1.3-7,10.4-13.9,16.3-16.3
					c6-2.4,23.5,1.7,27.6,7.8c3.4,5.1,4.5,8.1,4.5,8.1S359.5,594.8,356.8,597z"/>
			</g>
		</g>
		<g>
			<g>
				<g>
					<path class="st0" d="M398.8,563.8l0.3,8.2c0,0,10.9,23.8,23.5,31.9c15.9,10.2,26.9,8.6,36,6.1s9.6-8,9.6-8s0.4-6.9-0.7-8.8
						C458.3,576.9,415.5,556.4,398.8,563.8z"/>
				</g>
				<g>
					<path class="st1" d="M405.8,559.6c0,0-8.7,1.2-6.6,6.5c2.2,5.3,16.4,33.5,35.9,39c19.5,5.4,33.2-0.8,32.9-9.7
						c-0.4-9.8-17.7-14-30.8-24.3C424.1,560.9,405.8,559.6,405.8,559.6z"/>
				</g>
			</g>
			<g>
				<path class="st2" d="M402.6,525.8c0,0,2.6,16,2,22.2c-0.8,7.2-2.8,15.8,1.4,20.1c8.3,8.5,8.3,17.9,15.1,23.1
					c16.3,12.5,27,14.1,34.5,8.3c18.1,0.1,8.1-13.8,1.3-18.7c-6.8-4.9-19.7-21.4-22.5-30.5c-2.3-7.4-1.5-31.1-1.5-31.1L402.6,525.8z
					"/>
			</g>
			<g>
				<path class="st1" d="M426.2,597c0,0-1.3-6.7,9.4-12.5c10.7-5.8,22.1-4.3,27.3,2.2c-1.3-7-10.4-13.9-16.3-16.3
					c-6-2.4-23.5,1.7-27.6,7.8c-3.4,5.1-4.5,8.1-4.5,8.1S423.5,594.8,426.2,597z"/>
			</g>
		</g>
		<g>
			<g>
				<polygon class="st2" points="372.9,118.2 372.9,149.5 416.8,149.5 416.8,111 				"/>
			</g>
			<g>
				<g>
					<path class="st2" d="M431.3,51.5c-9.3-17.9-28.4-12.7-35.4-10c-7-2.7-26.1-7.9-35.4,10c0,0-0.2,13.6,0.5,28.5
						c0.7,14.1,2.3,29.3,5.7,35.3c6.7,11.7,18.1,17.8,28.3,18.5v0.1c0.3,0,0.6-0.1,0.9-0.1s0.6,0.1,0.9,0.1v-0.1
						c10.2-0.7,21.6-6.8,28.3-18.5C432.2,102.8,431.3,51.5,431.3,51.5z"/>
				</g>
				<g>
					<path class="st2" d="M363.5,80.5c0,0-12.6-8.8-10.3,9.7c1.5,12.1,13.9,16.3,15.7,9.7L363.5,80.5z"/>
				</g>
				<g>
					<path class="st2" d="M429.5,80.5c0,0,12.8-7.3,10.3,9.7c-2.2,15-13.9,16.3-15.7,9.7L429.5,80.5z"/>
				</g>
				<g>
					<path class="st3" d="M361.4,85.4l0.6,11.2c0,0-7.6-2.1-5.1-10.9C358,81.6,361.4,85.4,361.4,85.4z"/>
				</g>
				<g>
					<path class="st3" d="M430.6,85.4L430,96.6c0,0,7.6-2.1,5.1-10.9C434,81.6,430.6,85.4,430.6,85.4z"/>
				</g>
				<g>
					<path class="st4" d="M431.4,29.8c-9.3-8.1-19.1-9.2-34.3-9.5c-9-0.2-25.3-0.3-36.8,9.7c-8.8,7.7-6.5,45.1-4.7,48.7
						c1.8-0.5,4.4,0.6,4.4,0.6l1.4,8.8l1.7,0.7l0.6,0.2l-0.6-22.4l3.3-5.5c0,0-0.9-7.6,1.8-11.2c1.9-2.5,17.7-0.8,29.1-0.7
						c11.3,0,24.5-1.4,26.4,1.2c2.7,3.6,1.8,11.2,1.8,11.2l3.3,5.5l-0.6,22.4l2.3-0.9l1.4-8.8c0,0,2.6-1.1,4.4-0.6
						C438.1,75.5,440.2,37.5,431.4,29.8z"/>
				</g>
			</g>
			<g>
				<g>
					<path class="st5" d="M371.9,82.6c0,0,2.8-2.7,7.8-3.3c3.4-0.4,6.1,0.4,6.9,1.9s-0.2,4.6-4.6,6.7
						C376.3,90.6,367.8,87.2,371.9,82.6z"/>
				</g>
				<g>
					<path class="st4" d="M386.8,80.1c-2.5-2.6-6.6-2.1-9.6-1.5c-2.1,0.4-5.6,2.2-6.6,4.2c-0.3,0.5,0.3,1.6,0.9,1.2
						c1.4-1.2,3.2-2.1,4.9-2.8c3.7-1.6,6.8-1.1,9.6,0.4C386.9,82.1,387.7,81,386.8,80.1z"/>
				</g>
				<g>
					<path class="st4" d="M382.4,82.8c0.3,2.1-1.1,4-3,4.3c-2,0.3-3.8-1.2-4.1-3.3c-0.3-2.1,1.1-4,3-4.3
						C380.3,79.3,382.1,80.7,382.4,82.8z"/>
				</g>
				<g>
					<path class="st5" d="M380.3,82.3c0.1,1-0.5,1.8-1.4,2c-0.9,0.1-1.7-0.5-1.9-1.5c-0.1-1,0.5-1.8,1.4-2
						C379.3,80.6,380.2,81.3,380.3,82.3z"/>
				</g>
				<g>
					<path class="st4" d="M389.8,66.3c-4.5-0.4-8.1,0-13.3,0.8c-2.2,0.4-6.4,1.3-8.5,2.8c-1.2,0.8-0.3,3.7,2.3,2.8
						c7-2.4,14.7-2.3,19.3-2.7C391.6,69.8,391.9,66.5,389.8,66.3z"/>
				</g>
			</g>
			<g>
				<g>
					<path class="st5" d="M420.5,82.6c0,0-2.8-2.7-7.8-3.3c-3.4-0.4-6.1,0.4-6.9,1.9s0.2,4.6,4.6,6.7
						C416.1,90.6,424.6,87.2,420.5,82.6z"/>
				</g>
				<g>
					<path class="st4" d="M405.5,80.1c2.5-2.6,6.6-2.1,9.6-1.5c2.1,0.4,5.6,2.2,6.6,4.2c0.3,0.5-0.3,1.6-0.9,1.2
						c-1.4-1.2-3.2-2.1-4.9-2.8c-3.7-1.6-6.8-1.1-9.6,0.4C405.4,82.1,404.7,81,405.5,80.1z"/>
				</g>
				<g>
					<path class="st4" d="M410,82.8c-0.3,2.1,1.1,4,3,4.3c2,0.3,3.8-1.2,4.1-3.3c0.3-2.1-1.1-4-3-4.3
						C412.1,79.3,410.2,80.7,410,82.8z"/>
				</g>
				<g>
					<path class="st5" d="M412.1,82.3c-0.1,1,0.5,1.8,1.4,2c0.9,0.1,1.7-0.5,1.9-1.5c0.1-1-0.5-1.8-1.4-2
						C413.1,80.6,412.2,81.3,412.1,82.3z"/>
				</g>
				<g>
					<path class="st4" d="M402.6,66.3c4.5-0.4,8.1,0,13.3,0.8c2.2,0.4,6.4,1.3,8.5,2.8c1.2,0.8,0.4,3.7-2.3,2.8
						c-7-2.4-14.7-2.3-19.3-2.7C400.7,69.8,400.5,66.5,402.6,66.3z"/>
				</g>
			</g>
			<g>
				<path class="st3" d="M403.2,97.5c-0.4-3.3-3-9.1-3.5-10.5c-0.9-2.7-2.2-1.8-1.9,0.3c0.2,1.4,0.7,5.2,0.9,8.9
					c0.3,4.2-0.5,4.4-1.2,6.9c-0.5,1.6-0.1,2.1,1.6,1.5C402.7,103.3,403.6,100.8,403.2,97.5z"/>
			</g>
			<g>
				<path class="st3" d="M405.7,111.2c-3,0.2-6,0.5-9,0.4c-4,0-8-0.5-12.1-0.8c-0.7-0.1-0.8,0.8-0.4,1.1c3,2.3,8.9,2.1,12.5,2.2
					c3.1,0.1,6.7-0.2,9.4-1.3C407.9,112,407.4,111.1,405.7,111.2z"/>
			</g>
			<g>
				<path class="st3" d="M402.4,117.3c-2,0.4-5.1,0.5-6.6,0.5c-1.7,0-5-0.3-6.7-0.6c-0.8-0.2-0.8,0.4,0,1c1.5,1.1,4.9,1.6,6.9,1.6
					c2.5,0,4.2-0.4,6.4-1.2C403.6,118,404,117,402.4,117.3z"/>
			</g>
			<g>
				<g>
					<path class="st6" d="M376.5,333.6l33.8,15.4c0,0,17.4-27.1,25.1-21.9c7.4,5.1,19.5,0.2,26.7-4.1c5.6-5.2,21.4-21,21.4-33
						c0-12.6-1.7-66.6-4-88.6c-1.9-18.4-3.9-25.9-25.5-34.5c-19.2-7.6-31.3-11.2-31.3-11.2l-36.2-1.8v3l-17.9-1.2
						c0,0-12.1,3.6-31.3,11.2c-21.6,8.5-23.6,16-25.5,34.5c-2.3,22.1-4,76-4,88.6c0,11,15,26.8,21,32.7c4.9,3.5,15.1,9.2,25.3,9.6
						C363.5,332.7,376.5,333.6,376.5,333.6z"/>
				</g>
				<g>
					<path class="st6" d="M328.1,327.6l-2.7,213.5h140l-3.1-217.5c-8.6,7.9-31.4,15.2-62.2,15.2
						C371.8,338.8,338.7,334.6,328.1,327.6z"/>
				</g>
				<g>
					<path class="st7" d="M435.3,327.1c-7.6-5.2-25.1,21.9-25.1,21.9l-33.8-15.4c0,0-13-0.9-22.6-1.3c-10.2-0.5-25.7-10.1-25.7-10.1
						v12.1c8.5,4.9,27.2,2.1,43,13.9c9,6.7,18,13.5,30,13c19.2-0.9,21.5-4,32.7-14.3c10-9.2,24.4-10.8,28.9-14.9l0.2-9.7
						C462.9,322.2,442.8,332.2,435.3,327.1z"/>
				</g>
			</g>
			<g>
				<path class="st8" d="M353.9,58.2c0,0,25.1-4.3,43.6-4c15.2,0.2,40.5,4,40.5,4s2.2-18.6-4.5-32c-6-12.1-68.5-11.6-75.4,0.7
					C351.5,38.5,353.4,51.5,353.9,58.2z"/>
			</g>
			<g>
				<path class="st5" d="M438,60.8c-10.8-1.7-29.4-4.5-40.5-4.8c-12.3-0.4-33.8,2.9-43.5,4.5c-0.2-0.9-0.3-2.1-0.3-3.6
					c9.9-1.6,31.2-4.8,43.9-4.5c11.3,0.3,29.7,3,40.7,4.8C438.1,58.7,438,59.5,438,60.8z"/>
			</g>
			<g>
				<polygon class="st5" points="364.2,144.3 364.2,157.8 387.4,157.8 387.4,290.7 403,290.7 403,157.8 428.6,157.8 428.6,144.3 
									"/>
			</g>
			<g>
				<path class="st7" d="M454.8,264.5c-3.1-1.2-5.8-1.8-2.2-9.4c13.6-29,9-77.9,9-77.9c-7.2,39.4-12.9,68.3-26,86.8
					c-6.2,8.7-15.6,18.8-24.1,26.7c-9,8.3-18.4,9.8-28.1,2.5c-9.8-7.4-20-19.5-26.8-29.2c-13.1-18.5-18.8-47.4-26-86.8
					c0,0-4.7,48.9,9,77.9c3.6,7.6,0.9,8.2-2.2,9.4c-2,0.8-11.8,6.7-8.5,7.2c3.6,0.4,14.3-4.5,20.6,0.4c7.2,5.7,19,20.7,23.3,27.7
					c9,14.8,16.9,17.1,19.6,17.4l-1,5.2c0,0,23.7-7.8,30-13.2c7.8-14.8,14.2-31.5,21.5-37.1c6.3-4.9,17,0,20.6-0.4
					C466.6,271.2,456.8,265.2,454.8,264.5z"/>
			</g>
			<g>
				<path class="st9" d="M421.2,306.6l13.7,19.5c0,0-11.7,16-19.7,21.5c-9.2,6.3-21.9,3.2-29.3,0.4c-1.9-0.7-3.7-4.7-4.5-5.8
					c-3.6-1.6-5.8-3.4-4.9-6c4.7-1.1,25.5-3.8,25.5-10.5c0-2.9-9.3,0.5-13.7-1.6c-4.7-2.2-8.7-7.6,0-6.9
					C394.7,317.6,414,313.7,421.2,306.6z"/>
			</g>
			<g>
				<path class="st9" d="M381.2,309.5L367.6,329c0,0,11.7,16,19.7,21.5c9.2,6.3,21.9,3.2,29.3,0.4c1.9-0.7,3.7-4.7,4.5-5.8
					c3.6-1.6,5.8-3.4,4.9-6c-4.7-1.1-25.1-3.3-25.1-10.1c0-2.9,8.8,0.1,13.2-2c4.7-2.2,8.7-7.6,0-6.9
					C407.6,320.5,388.3,316.6,381.2,309.5z"/>
			</g>
			<g>
				<path class="st5" d="M371.1,298.5l14.3,11.9c0,0-3.8,4-7.4,11.4c-4.2,8.8-4.9,18.3-4.9,18.3l-16.8-8.5c0,0,0.9-15.4,6.3-24.4
					C368,298.3,371.1,298.5,371.1,298.5z"/>
			</g>
			<g>
				<path class="st7" d="M374.5,297.6c0,0-13.8,16.1-14.8,30.9c-0.4,6.5-0.2,8.7-0.2,8.7l-5.4-2.7c0,0,0-18.6,7.6-30.7
					s10.3-12.1,10.3-12.1L374.5,297.6z"/>
			</g>
			<g>
				<path class="st5" d="M428.2,298.5l-14.3,11.9c0,0,3.8,4,7.4,11.4c4.2,8.8,6.5,18.1,6.5,18.1l15.2-9.6c0,0-0.9-14.1-6.3-23
					C431.3,298.3,428.2,298.5,428.2,298.5z"/>
			</g>
			<g>
				<path class="st7" d="M424.8,297.6c0,0,13.8,16.1,14.8,30.9c0.4,6.5,0.2,8.7,0.2,8.7l5.4-2.7c0,0,0-18.6-7.6-30.7
					s-10.3-12.1-10.3-12.1L424.8,297.6z"/>
			</g>
			<g>
				<path class="st10" d="M425.9,339c0,0-21-6.2-21.8-8.1c-0.9-1.9,1.4-2.3,2.9-2.8c3-0.9,4.6-0.8,6.5-2.1c1.8-1.3,3.1-3.5,3.1-5.4
					c0-2.7-0.6-3.3-1.1-1.3c-0.8,3-2,3.8-5.1,5.1c-3.1,1.3-6.9,1.8-8.7,3.1c-1.8,1.3-4.5,3.4,0.9,6c5.4,2.7,14.2,5.3,16.2,5.7
					C421.8,339.9,423.9,340.5,425.9,339z"/>
			</g>
			<g>
				<path class="st10" d="M420.6,345.2c0,0-8.5-1.4-9.8-1.7c-3.9-0.9-1,2.2,3.4,2.6C417.6,346.3,420.6,345.2,420.6,345.2z"/>
			</g>
		</g>
	</g>
</g>
</svg>
