<?xml version="1.0" encoding="utf-8"?>
<!-- Generator: Adobe Illustrator 23.0.0, SVG Export Plug-In . SVG Version: 6.00 Build 0)  -->
<svg version="1.1" id="Layer_1" xmlns="http://www.w3.org/2000/svg" xmlns:xlink="http://www.w3.org/1999/xlink" x="0px" y="0px"
	 viewBox="0 0 1000 640" style="enable-background:new 0 0 1000 640;" xml:space="preserve">
<style type="text/css">
	.st0{fill:#873F2B;}
	.st1{fill:#582A1A;}
	.st2{fill:#854D2C;}
	.st3{fill:#502E1C;}
	.st4{fill:#333333;}
	.st5{fill:#FFFFFF;}
	.st6{fill:#FFD199;}
	.st7{fill:#EFB06C;}
	.st8{fill:#1B75BC;}
	.st9{fill:#F9C38A;}
	.st10{fill:#E59553;}
	.st11{fill:#9F653E;}
	.st12{fill:#4152A4;}
	.st13{fill:#D73D33;}
	.st14{fill:#233882;}
	.st15{fill:#050404;}
	.st16{opacity:0.1;fill:#171211;enable-background:new    ;}
	.st17{fill:none;stroke:#FFFFFF;stroke-width:7;stroke-miterlimit:10;}
</style>
<g id="man-1">
	<g>
		<g>
			<g>
				<g>
					<path class="st0" d="M384.1,563.8l-0.3,8.2c0,0-10.9,23.8-23.5,31.9c-15.9,10.2-26.9,8.6-36,6.1s-9.6-8-9.6-8s-0.4-6.9,0.7-8.8
						C324.7,576.9,367.5,556.4,384.1,563.8z"/>
				</g>
				<g>
					<path class="st1" d="M377.1,559.6c0,0,8.7,1.2,6.6,6.5c-2.2,5.3-16.4,33.5-35.9,39c-19.5,5.4-33.2-0.8-32.9-9.7
						c0.4-9.8,17.7-14,30.8-24.3C358.9,560.9,377.1,559.6,377.1,559.6z"/>
				</g>
			</g>
			<g>
				<path class="st2" d="M380.4,525.8c0,0-2.6,16-2,22.2c0.8,7.2,2.8,15.8-1.4,20.1c-8.3,8.5-8.3,17.9-15.1,23.1
					c-16.3,12.5-27,14.1-34.5,8.3c-18.1,0.1-8.1-13.8-1.3-18.7c6.8-4.9,19.7-21.4,22.5-30.5c2.3-7.4,1.5-31.1,1.5-31.1L380.4,525.8z
					"/>
			</g>
			<g>
				<path class="st1" d="M356.8,597c0,0,1.3-6.7-9.4-12.5c-10.7-5.8-22.1-4.3-27.3,2.2c1.3-7,10.4-13.9,16.3-16.3
					c6-2.4,23.5,1.7,27.6,7.8c3.4,5.1,4.5,8.1,4.5,8.1S359.5,594.8,356.8,597z"/>
			</g>
		</g>
		<g>
			<g>
				<g>
					<path class="st0" d="M398.8,563.8l0.3,8.2c0,0,10.9,23.8,23.5,31.9c15.9,10.2,26.9,8.6,36,6.1s9.6-8,9.6-8s0.4-6.9-0.7-8.8
						C458.3,576.9,415.5,556.4,398.8,563.8z"/>
				</g>
				<g>
					<path class="st1" d="M405.8,559.6c0,0-8.7,1.2-6.6,6.5c2.2,5.3,16.4,33.5,35.9,39c19.5,5.4,33.2-0.8,32.9-9.7
						c-0.4-9.8-17.7-14-30.8-24.3C424.1,560.9,405.8,559.6,405.8,559.6z"/>
				</g>
			</g>
			<g>
				<path class="st2" d="M402.6,525.8c0,0,2.6,16,2,22.2c-0.8,7.2-2.8,15.8,1.4,20.1c8.3,8.5,8.3,17.9,15.1,23.1
					c16.3,12.5,27,14.1,34.5,8.3c18.1,0.1,8.1-13.8,1.3-18.7c-6.8-4.9-19.7-21.4-22.5-30.5c-2.3-7.4-1.5-31.1-1.5-31.1L402.6,525.8z
					"/>
			</g>
			<g>
				<path class="st1" d="M426.2,597c0,0-1.3-6.7,9.4-12.5c10.7-5.8,22.1-4.3,27.3,2.2c-1.3-7-10.4-13.9-16.3-16.3
					c-6-2.4-23.5,1.7-27.6,7.8c-3.4,5.1-4.5,8.1-4.5,8.1S423.5,594.8,426.2,597z"/>
			</g>
		</g>
		<g>
			<g>
				<polygon class="st2" points="372.9,118.2 372.9,149.5 416.8,149.5 416.8,111 				"/>
			</g>
			<g>
				<g>
					<path class="st2" d="M431.3,51.5c-9.3-17.9-28.4-12.7-35.4-10c-7-2.7-26.1-7.9-35.4,10c0,0-0.2,13.6,0.5,28.5
						c0.7,14.1,2.3,29.3,5.7,35.3c6.7,11.7,18.1,17.8,28.3,18.5v0.1c0.3,0,0.6-0.1,0.9-0.1s0.6,0.1,0.9,0.1v-0.1
						c10.2-0.7,21.6-6.8,28.3-18.5C432.2,102.8,431.3,51.5,431.3,51.5z"/>
				</g>
				<g>
					<path class="st2" d="M363.5,80.5c0,0-12.6-8.8-10.3,9.7c1.5,12.1,13.9,16.3,15.7,9.7L363.5,80.5z"/>
				</g>
				<g>
					<path class="st2" d="M429.5,80.5c0,0,12.8-7.3,10.3,9.7c-2.2,15-13.9,16.3-15.7,9.7L429.5,80.5z"/>
				</g>
				<g>
					<path class="st3" d="M361.4,85.4l0.6,11.2c0,0-7.6-2.1-5.1-10.9C358,81.6,361.4,85.4,361.4,85.4z"/>
				</g>
				<g>
					<path class="st3" d="M430.6,85.4L430,96.6c0,0,7.6-2.1,5.1-10.9C434,81.6,430.6,85.4,430.6,85.4z"/>
				</g>
				<g>
					<path class="st4" d="M431.4,29.8c-9.3-8.1-19.1-9.2-34.3-9.5c-9-0.2-25.3-0.3-36.8,9.7c-8.8,7.7-6.5,45.1-4.7,48.7
						c1.8-0.5,4.4,0.6,4.4,0.6l1.4,8.8l1.7,0.7l0.6,0.2l-0.6-22.4l3.3-5.5c0,0-0.9-7.6,1.8-11.2c1.9-2.5,17.7-0.8,29.1-0.7
						c11.3,0,24.5-1.4,26.4,1.2c2.7,3.6,1.8,11.2,1.8,11.2l3.3,5.5l-0.6,22.4l2.3-0.9l1.4-8.8c0,0,2.6-1.1,4.4-0.6
						C438.1,75.5,440.2,37.5,431.4,29.8z"/>
				</g>
			</g>
			<g>
				<g>
					<path class="st5" d="M371.9,82.6c0,0,2.8-2.7,7.8-3.3c3.4-0.4,6.1,0.4,6.9,1.9s-0.2,4.6-4.6,6.7
						C376.3,90.6,367.8,87.2,371.9,82.6z"/>
				</g>
				<g>
					<path class="st4" d="M386.8,80.1c-2.5-2.6-6.6-2.1-9.6-1.5c-2.1,0.4-5.6,2.2-6.6,4.2c-0.3,0.5,0.3,1.6,0.9,1.2
						c1.4-1.2,3.2-2.1,4.9-2.8c3.7-1.6,6.8-1.1,9.6,0.4C386.9,82.1,387.7,81,386.8,80.1z"/>
				</g>
				<g>
					<path class="st4" d="M382.4,82.8c0.3,2.1-1.1,4-3,4.3c-2,0.3-3.8-1.2-4.1-3.3c-0.3-2.1,1.1-4,3-4.3
						C380.3,79.3,382.1,80.7,382.4,82.8z"/>
				</g>
				<g>
					<path class="st5" d="M380.3,82.3c0.1,1-0.5,1.8-1.4,2c-0.9,0.1-1.7-0.5-1.9-1.5c-0.1-1,0.5-1.8,1.4-2
						C379.3,80.6,380.2,81.3,380.3,82.3z"/>
				</g>
				<g>
					<path class="st4" d="M389.8,66.3c-4.5-0.4-8.1,0-13.3,0.8c-2.2,0.4-6.4,1.3-8.5,2.8c-1.2,0.8-0.3,3.7,2.3,2.8
						c7-2.4,14.7-2.3,19.3-2.7C391.6,69.8,391.9,66.5,389.8,66.3z"/>
				</g>
			</g>
			<g>
				<g>
					<path class="st5" d="M420.5,82.6c0,0-2.8-2.7-7.8-3.3c-3.4-0.4-6.1,0.4-6.9,1.9s0.2,4.6,4.6,6.7
						C416.1,90.6,424.6,87.2,420.5,82.6z"/>
				</g>
				<g>
					<path class="st4" d="M405.5,80.1c2.5-2.6,6.6-2.1,9.6-1.5c2.1,0.4,5.6,2.2,6.6,4.2c0.3,0.5-0.3,1.6-0.9,1.2
						c-1.4-1.2-3.2-2.1-4.9-2.8c-3.7-1.6-6.8-1.1-9.6,0.4C405.4,82.1,404.7,81,405.5,80.1z"/>
				</g>
				<g>
					<path class="st4" d="M410,82.8c-0.3,2.1,1.1,4,3,4.3c2,0.3,3.8-1.2,4.1-3.3c0.3-2.1-1.1-4-3-4.3
						C412.1,79.3,410.2,80.7,410,82.8z"/>
				</g>
				<g>
					<path class="st5" d="M412.1,82.3c-0.1,1,0.5,1.8,1.4,2c0.9,0.1,1.7-0.5,1.9-1.5c0.1-1-0.5-1.8-1.4-2
						C413.1,80.6,412.2,81.3,412.1,82.3z"/>
				</g>
				<g>
					<path class="st4" d="M402.6,66.3c4.5-0.4,8.1,0,13.3,0.8c2.2,0.4,6.4,1.3,8.5,2.8c1.2,0.8,0.4,3.7-2.3,2.8
						c-7-2.4-14.7-2.3-19.3-2.7C400.7,69.8,400.5,66.5,402.6,66.3z"/>
				</g>
			</g>
			<g>
				<path class="st3" d="M403.2,97.5c-0.4-3.3-3-9.1-3.5-10.5c-0.9-2.7-2.2-1.8-1.9,0.3c0.2,1.4,0.7,5.2,0.9,8.9
					c0.3,4.2-0.5,4.4-1.2,6.9c-0.5,1.6-0.1,2.1,1.6,1.5C402.7,103.3,403.6,100.8,403.2,97.5z"/>
			</g>
			<g>
				<path class="st3" d="M405.7,111.2c-3,0.2-6,0.5-9,0.4c-4,0-8-0.5-12.1-0.8c-0.7-0.1-0.8,0.8-0.4,1.1c3,2.3,8.9,2.1,12.5,2.2
					c3.1,0.1,6.7-0.2,9.4-1.3C407.9,112,407.4,111.1,405.7,111.2z"/>
			</g>
			<g>
				<path class="st3" d="M402.4,117.3c-2,0.4-5.1,0.5-6.6,0.5c-1.7,0-5-0.3-6.7-0.6c-0.8-0.2-0.8,0.4,0,1c1.5,1.1,4.9,1.6,6.9,1.6
					c2.5,0,4.2-0.4,6.4-1.2C403.6,118,404,117,402.4,117.3z"/>
			</g>
			<g>
				<g>
					<path class="st6" d="M376.5,333.6l33.8,15.4c0,0,17.4-27.1,25.1-21.9c7.4,5.1,19.5,0.2,26.7-4.1c5.6-5.2,21.4-21,21.4-33
						c0-12.6-1.7-66.6-4-88.6c-1.9-18.4-3.9-25.9-25.5-34.5c-19.2-7.6-31.3-11.2-31.3-11.2l-36.2-1.8v3l-17.9-1.2
						c0,0-12.1,3.6-31.3,11.2c-21.6,8.5-23.6,16-25.5,34.5c-2.3,22.1-4,76-4,88.6c0,11,15,26.8,21,32.7c4.9,3.5,15.1,9.2,25.3,9.6
						C363.5,332.7,376.5,333.6,376.5,333.6z"/>
				</g>
				<g>
					<path class="st6" d="M328.1,327.6l-2.7,213.5h140l-3.1-217.5c-8.6,7.9-31.4,15.2-62.2,15.2
						C371.8,338.8,338.7,334.6,328.1,327.6z"/>
				</g>
				<g>
					<path class="st7" d="M435.3,327.1c-7.6-5.2-25.1,21.9-25.1,21.9l-33.8-15.4c0,0-13-0.9-22.6-1.3c-10.2-0.5-25.7-10.1-25.7-10.1
						v12.1c8.5,4.9,27.2,2.1,43,13.9c9,6.7,18,13.5,30,13c19.2-0.9,21.5-4,32.7-14.3c10-9.2,24.4-10.8,28.9-14.9l0.2-9.7
						C462.9,322.2,442.8,332.2,435.3,327.1z"/>
				</g>
			</g>
			<g>
				<path class="st8" d="M353.9,58.2c0,0,25.1-4.3,43.6-4c15.2,0.2,40.5,4,40.5,4s2.2-18.6-4.5-32c-6-12.1-68.5-11.6-75.4,0.7
					C351.5,38.5,353.4,51.5,353.9,58.2z"/>
			</g>
			<g>
				<path class="st5" d="M438,60.8c-10.8-1.7-29.4-4.5-40.5-4.8c-12.3-0.4-33.8,2.9-43.5,4.5c-0.2-0.9-0.3-2.1-0.3-3.6
					c9.9-1.6,31.2-4.8,43.9-4.5c11.3,0.3,29.7,3,40.7,4.8C438.1,58.7,438,59.5,438,60.8z"/>
			</g>
			<g>
				<polygon class="st5" points="364.2,144.3 364.2,157.8 387.4,157.8 387.4,290.7 403,290.7 403,157.8 428.6,157.8 428.6,144.3 
									"/>
			</g>
			<g>
				<path class="st7" d="M454.8,264.5c-3.1-1.2-5.8-1.8-2.2-9.4c13.6-29,9-77.9,9-77.9c-7.2,39.4-12.9,68.3-26,86.8
					c-6.2,8.7-15.6,18.8-24.1,26.7c-9,8.3-18.4,9.8-28.1,2.5c-9.8-7.4-20-19.5-26.8-29.2c-13.1-18.5-18.8-47.4-26-86.8
					c0,0-4.7,48.9,9,77.9c3.6,7.6,0.9,8.2-2.2,9.4c-2,0.8-11.8,6.7-8.5,7.2c3.6,0.4,14.3-4.5,20.6,0.4c7.2,5.7,19,20.7,23.3,27.7
					c9,14.8,16.9,17.1,19.6,17.4l-1,5.2c0,0,23.7-7.8,30-13.2c7.8-14.8,14.2-31.5,21.5-37.1c6.3-4.9,17,0,20.6-0.4
					C466.6,271.2,456.8,265.2,454.8,264.5z"/>
			</g>
			<g>
				<path class="st9" d="M421.2,306.6l13.7,19.5c0,0-11.7,16-19.7,21.5c-9.2,6.3-21.9,3.2-29.3,0.4c-1.9-0.7-3.7-4.7-4.5-5.8
					c-3.6-1.6-5.8-3.4-4.9-6c4.7-1.1,25.5-3.8,25.5-10.5c0-2.9-9.3,0.5-13.7-1.6c-4.7-2.2-8.7-7.6,0-6.9
					C394.7,317.6,414,313.7,421.2,306.6z"/>
			</g>
			<g>
				<path class="st9" d="M381.2,309.5L367.6,329c0,0,11.7,16,19.7,21.5c9.2,6.3,21.9,3.2,29.3,0.4c1.9-0.7,3.7-4.7,4.5-5.8
					c3.6-1.6,5.8-3.4,4.9-6c-4.7-1.1-25.1-3.3-25.1-10.1c0-2.9,8.8,0.1,13.2-2c4.7-2.2,8.7-7.6,0-6.9
					C407.6,320.5,388.3,316.6,381.2,309.5z"/>
			</g>
			<g>
				<path class="st5" d="M371.1,298.5l14.3,11.9c0,0-3.8,4-7.4,11.4c-4.2,8.8-4.9,18.3-4.9,18.3l-16.8-8.5c0,0,0.9-15.4,6.3-24.4
					C368,298.3,371.1,298.5,371.1,298.5z"/>
			</g>
			<g>
				<path class="st7" d="M374.5,297.6c0,0-13.8,16.1-14.8,30.9c-0.4,6.5-0.2,8.7-0.2,8.7l-5.4-2.7c0,0,0-18.6,7.6-30.7
					s10.3-12.1,10.3-12.1L374.5,297.6z"/>
			</g>
			<g>
				<path class="st5" d="M428.2,298.5l-14.3,11.9c0,0,3.8,4,7.4,11.4c4.2,8.8,6.5,18.1,6.5,18.1l15.2-9.6c0,0-0.9-14.1-6.3-23
					C431.3,298.3,428.2,298.5,428.2,298.5z"/>
			</g>
			<g>
				<path class="st7" d="M424.8,297.6c0,0,13.8,16.1,14.8,30.9c0.4,6.5,0.2,8.7,0.2,8.7l5.4-2.7c0,0,0-18.6-7.6-30.7
					s-10.3-12.1-10.3-12.1L424.8,297.6z"/>
			</g>
			<g>
				<path class="st10" d="M425.9,339c0,0-21-6.2-21.8-8.1c-0.9-1.9,1.4-2.3,2.9-2.8c3-0.9,4.6-0.8,6.5-2.1c1.8-1.3,3.1-3.5,3.1-5.4
					c0-2.7-0.6-3.3-1.1-1.3c-0.8,3-2,3.8-5.1,5.1c-3.1,1.3-6.9,1.8-8.7,3.1c-1.8,1.3-4.5,3.4,0.9,6c5.4,2.7,14.2,5.3,16.2,5.7
					C421.8,339.9,423.9,340.5,425.9,339z"/>
			</g>
			<g>
				<path class="st10" d="M420.6,345.2c0,0-8.5-1.4-9.8-1.7c-3.9-0.9-1,2.2,3.4,2.6C417.6,346.3,420.6,345.2,420.6,345.2z"/>
			</g>
		</g>
	</g>
</g>
<g id="woman-2">
	<g>
		<g>
			<path class="st11" d="M555.6,574.9c7.7,10.6,18.2,19.7,18.2,19.7s0.1,0.1,0.3,0.3c-11,0-22.3,8.4-22.3,8.4l-15.6-11.6
				c0,0-0.2-4-1.4-8.7C536.7,581,544.5,573.7,555.6,574.9z"/>
			<path class="st12" d="M525.1,567.8c0.2,0.1,0.4,0.1,0.6,0.2c3.1,1.6,5.3,4.7,6.8,8.3l0,0c4.7-6.1,13.4-7.3,19.2-7.3
				c1.2,2,2.5,4,3.9,6c-11.1-1.2-18.9,6.1-20.9,8.1l0,0c1.1,4.7,1.4,8.7,1.4,8.7l15.6,11.6c0,0,11.3-8.4,22.3-8.4
				c1.6,1.7,10.6,11.8,6.7,15.9c-8.1,8.7-23.2,2.3-29-2.3s-18.4-12.2-23.2-17.9C524.6,585.8,522.3,579.8,525.1,567.8z"/>
			<path class="st11" d="M487.5,574.9c-7.7,10.6-18.2,19.7-18.2,19.7s-0.1,0.1-0.3,0.3c11,0,22.3,8.4,22.3,8.4l15.6-11.6
				c0,0,0.2-4,1.4-8.7C506.4,581,498.7,573.7,487.5,574.9z"/>
			<path class="st12" d="M518,567.8c-0.2,0.1-0.4,0.1-0.6,0.2c-3.1,1.6-5.3,4.7-6.8,8.3l0,0c-4.7-6.1-13.4-7.3-19.2-7.3
				c-1.2,2-2.5,4-3.9,6c11.1-1.2,18.9,6.1,20.9,8.1l0,0c-1.1,4.7-1.4,8.7-1.4,8.7l-15.6,11.6c0,0-11.3-8.4-22.3-8.4
				c-1.6,1.7-10.6,11.8-6.7,15.9c8.1,8.7,23.2,2.3,28.9-2.3c5.8-4.6,18.4-12.2,23.2-17.9C518.5,585.8,520.9,579.8,518,567.8z"/>
			<path class="st11" d="M521.6,430l1.1,0.2c0,0-0.4,4.8-1.1,12.6c0.4,5.1,0.9,11.4,1.5,18.5c2.7,36.1,6.4,92,3.3,102
				c-0.5,1.6-0.8,3-1.2,4.4c0.2,0.1,0.4,0.1,0.6,0.2c3.1,1.6,5.3,4.7,6.8,8.3c4.7-6.1,13.4-7.3,19.2-7.3c-0.2-0.3-0.4-0.6-0.5-0.9
				c-3.5-6.4,1.6-22.7,3.5-40.5c2.4-22.8,4.9-52.8,6.6-74.7c1.3-16.9,2.1-29,2.1-29L521.6,430z"/>
			<path class="st11" d="M521.6,430l-41.8-6.2c0,0,0.8,11.3,2,27.5c1.7,22,4.2,52.9,6.7,76.2c1.9,17.8,6.9,34.2,3.5,40.5
				c-0.2,0.3-0.4,0.6-0.5,0.9c5.8,0,14.5,1.3,19.2,7.3c1.5-3.5,3.7-6.7,6.8-8.3c0.2-0.1,0.4-0.1,0.6-0.2c-0.3-1.4-0.7-2.8-1.2-4.4
				c-3.1-10.1,0.5-66,3.3-102.1c0.5-7.1,1-13.4,1.5-18.5c-0.6-7.8-1.1-12.6-1.1-12.6L521.6,430z"/>
		</g>
		<g>
			<path d="M526.6,50.5c0,0,12.9-6.2,26.6-0.4c13.4,5.7,19.1,12.5,27.5,32.9c8.3,20.4,0.4,28.3,9.2,32.4
				c8.7,4.2,28.9,18.7,18.3,29.5c-10.6,10.8-13.1,13.9-4.6,18.7c9.2,5.2,12.9,27.5-0.8,31.2s-14.6,8.3-10.4,12.5
				c4.2,4.2,10.4,2.1,10.4,2.1s-5.8,12.1-15.8,5s-35-16.2-37.4-15c-2.5,1.2-23.3,17.9-32.5,13.7s-25.4-15-31.6-9.6s-9.2-2.6-9.2-2.6
				s-17.5,10.5-25-7.6c5.4,3.5,9.2,1.5,10.4-4.8c1.3-6.2-8.3-11.6-10.4-17.5c-2.1-5.8,2.5-17.9,11.7-25.8c9.2-7.9,8.2-10.5,0.4-19.6
				c-5.2-6-6.9-13.7,4-21.4c10.8-7.7,9.8-19.3,14.8-36.4C485.3,57.2,505.8,32.2,526.6,50.5z"/>
			<path class="st11" d="M521.1,179.8c-2.7-0.3-4.9-0.8-6.8-1.2c1.1-4.2,1.4-9.5,1-16.5c-0.6-10.4,26.1-0.6,26.1-0.6
				s-0.7,4.9-0.6,10.3C536.7,175.3,529,180.8,521.1,179.8z"/>
			<path class="st11" d="M501.1,189c0,0,8.7-0.9,11-4.9c0.9-1.6,1.6-3.5,2.2-5.5c1.9,0.4,4.1,0.9,6.8,1.2c8,1,15.6-4.4,19.7-7.9
				c0.2,6.2,1.5,13.1,6.4,14c11.2,2.1,9,1.7,9,1.7s-2.4,7.7-7.5,14.8c-7.3,6.5-18.4,10.1-28.8,10.3C504.5,206.9,501.1,189,501.1,189
				z"/>
			<g>
				<path class="st11" d="M537,67.4c22.2,1.9,27,31.4,27.3,45.9c2-1,6.3-0.5,9.1,4.4c3.8,6.3-1.2,20-12.6,19.7
					c-1.6,4.4-5.6,10.5-10.5,15.9c-11.2,12.5-19.7,15-25.8,15c-7.5,0-13.4-3.6-22.9-15c-16.4-19.8-13.2-48.4-13.2-48.4
					C490.4,78.2,505.5,64.7,537,67.4z"/>
				<path class="st5" d="M550.9,117.8c0,0-2.2-3.8-6.8-5.2c-4.6-1.4-8-1.5-10.8,0.2s-2.2,1.5-2.2,1.5s-1.4,1.5,0.2,4.5
					c1.5,2.7,4,4.8,9.6,4.9C546.6,123.7,552.5,119.3,550.9,117.8z"/>
				<path class="st5" d="M511.9,115.8c0,0,2.1,2.3,0.1,4.3s-5.3,3.4-8.8,2.4s-5.9-4.2-6.9-5.5c-0.9-1.4,1.5-2.6,3.2-3.3
					C501.3,112.9,505.6,109.6,511.9,115.8z"/>
				<path d="M540.7,110.7c4.4,0.6,8.6,3.3,11.5,6.3c0.4,0.4,0.6,1.2,0,1.9c-0.5,0.6-2.2,1.8-2.7,2c-0.8,0.5-0.9-0.5-0.2-1.1
					c0.8-0.8,0.8-2.2-1.1-4c-2.6-2.4-6.2-3.6-9.8-3.5c-2.2,0-4.9,0.9-6.8,1.9c-1.1,0.6-1-0.3-0.4-0.9
					C533.8,110.9,537.1,110.2,540.7,110.7z"/>
				<path d="M495.9,115.3c5.2-4.4,8.3-4.1,10.6-3.6c2.6,0.5,5.6,2.2,6.8,5.2c0.4,0.9-0.4,1.1-0.8,0.5c-1.9-2.6-3.9-4.2-7.3-4.7
					c-3.5-0.5-5.7,1.4-8.2,3.9c0.3,0.7,0.8,1.5,1.2,2.1c0.9,1.1,0.8,1.9-0.3,1.1c-0.9-0.7-1.9-2.2-2.4-3.1
					C495.1,116.2,495.4,115.7,495.9,115.3z"/>
				<path d="M538.1,118.2c0,2.4,2,4.4,4.4,4.4s4.4-2,4.4-4.4s-2-4.4-4.4-4.4C540.1,113.7,538.1,115.7,538.1,118.2z"/>
				<path d="M501.8,117.8c0,2.3,1.8,4.1,4.1,4.1s4.1-1.8,4.1-4.1c0-2.3-1.8-4.1-4.1-4.1C503.6,113.7,501.8,115.6,501.8,117.8z"/>
				<path class="st5" d="M542.4,116.7c0,0.8,0.6,1.4,1.4,1.4s1.4-0.6,1.4-1.4s-0.6-1.4-1.4-1.4C543,115.3,542.4,115.9,542.4,116.7z"
					/>
				<path class="st5" d="M505.4,116.7c0,0.8,0.6,1.4,1.4,1.4s1.4-0.6,1.4-1.4s-0.6-1.4-1.4-1.4C506,115.3,505.4,115.9,505.4,116.7z"
					/>
				<path class="st3" d="M564.5,120.1c0,0,6.9-2.7,5,5.4c-1.7,7.2-6.9,5.2-6.9,5.2L564.5,120.1z"/>
				<path class="st3" d="M516.6,127.8c0.7-1.6,1.5-0.7,1.2,0.6c-0.3,1.8-0.4,3.7-0.4,5.5c0,3,0.4,3.7,1.5,5c0.4,0.4-0.6,1.4-1.5,0.9
					C511.1,137.1,515.4,130.6,516.6,127.8z"/>
				<path d="M532.2,100.2c2.6-2.6,7-2,10.1-0.9c4.7,1.7,8.6,4.7,11.9,8.9c1.8,2.3,0.3,2.1-0.8,1c-3.4-3.5-6.8-6.3-11.4-7.7
					c-3.3-1-5.8-1.1-8.9,0C531.8,101.8,531.4,101,532.2,100.2z"/>
				<path d="M501.5,98.5c2.4-1.3,6.7-1.9,8.9,0.3c0.8,0.8,0,1.6-0.7,1.3c-1-0.4-1.8-0.8-2.9-0.7c-3.2,0.2-4.3-0.3-10.8,6.8
					c-0.2,0.2-0.9,0.2-0.4-0.9C496.6,102.6,499,99.9,501.5,98.5z"/>
				<path class="st13" d="M511.6,147.3c1.9,1,3.1-0.8,4.6-1c1.2-0.1,2.5,0.7,3.1,1.6c1.6-2.4,4.2-1.8,6.6-0.9c2.7,1,5.3,2.2,8.2,1
					c0.6-0.2,1.1,0.5,0.6,1c-1,1-2.2,1.4-3.7,1.5c-0.7,2.1-5.9,4.3-7.5,4.5c-4.9,0.8-7.7-1.3-9.5-5.4c-1.3,0-2.6-0.8-3.6-1.7
					C509.4,147.1,510.9,147,511.6,147.3z"/>
			</g>
			<path d="M481.3,96.6c8.3-17.1,30.8-41.6,34.9-35.4c0.8,1.2,1.3,2.3,1.6,3.3c12.9-15.1,45.9,3.3,45.8,19.4
				c8.7-1.8,24,22.1,8.3,29.3c-13.5,6.2-16.3-10.1-16.9-17.2c-24.9,14.6-39-16-39-16s-3,10.6-16.3,11.5c0,7.9-9.7,21.2-18.2,17.6
				C481.5,109.1,472.9,113.7,481.3,96.6z"/>
		</g>
		<g>
			<path class="st11" d="M577.7,326.2c0,0,9.4-2.6,10.9,0.9s-10.6,5.6-12.5,5.4C574.1,332.4,577.7,326.2,577.7,326.2z"/>
			<path class="st11" d="M598.8,266.8L570.3,242c0,0-0.1,0.2-0.1,0.4c-5.7-7.9-10.9-20.2-10.9-31.7c0-9.3,3.4-17.4,5.2-21
				c2.1,0.6,4.2,1.2,6.3,1.9c8,2.7,10.7,7.3,17.1,16.5c12.4,18,27.6,44,31.5,50c5.2,8.1,3.2,13.1-1.8,22.1
				c-4.8,8.7-21.7,23.3-32.4,33.7c-2.1,2-8.3,17.4-9.3,18.3c-3.8-8.3-8.7-15.1-11-20.7c0,0,5.7-8.3,6.8-10.2
				C577.5,292,598.8,266.8,598.8,266.8z"/>
		</g>
		<g>
			<path class="st11" d="M484.8,323.3c0,0-12.3-1.8-13.2,1.8c-1.4,5.7,14.1,4.8,14.1,4.8L484.8,323.3z"/>
			<path class="st11" d="M441.4,248.2c10.3-17.5,27-39.8,34.5-47.9c4.1-4.4,9.1-6.9,12.9-8.3c-3.3,5.8-7,17.4-8,29.6
				c-0.4,4.6,0.2,13.1,1.5,20.3L459,262.3c0,0,20.3,23,26.2,30.6c2.3,2.9,8.8,11.8,8.8,11.8c-2.4,7.1-5.3,15.5-8.2,22.7
				c-2.8,0.4-6.5-0.8-10-19.1C463,293.5,448,279.1,441,272.5C433,265,433.7,261.2,441.4,248.2z"/>
		</g>
		<g>
			<path class="st12" d="M577.7,330.8c-3.8-8.3-7-15.8-9.4-21.5c-2-4.7-3.3-8.3-3.8-10c-1.8-7.3-3.4-12.7-4.2-16.6
				c-4.8,1.7-19.1,5.8-44.4,4.5c-9.7-0.5-15.9-1.5-19.7-2.3c-0.2,2.5-1.8,7.9-4,14.3c-2.4,7.1-5.6,15.4-8.5,22.6
				c-1.8,4.3-3.4,8.2-4.8,11.2c-5.8,12.7-30.7,71.8-30.7,71.8s2.1,4.1,6.7,9.7l47.7-104.6l-35.2,117.2c4,3.2,8.6,6.4,13.9,9.2
				l32.2-118.8l-13,126c6.1,1.5,12.9,2.4,20.2,2.6l10.2-125.7l8.4,124.7c7.3-0.8,13.9-2.1,20-3.7l-12.8-123.9l31.8,117.3
				c5.3-2.3,9.8-4.8,13.8-7.3L557,309.8l48.9,107.1c5.4-5,7.8-8.7,7.8-8.7S592.3,363.2,577.7,330.8z"/>
			<path class="st14" d="M605.9,416.9c-3.4,3.1-7.8,6.8-13.6,10.4L557,309.8L605.9,416.9z"/>
			<path class="st14" d="M454.8,414.4l47.7-104.6L467.3,427C462.1,422.6,457.9,418.1,454.8,414.4z"/>
			<path class="st14" d="M578.4,434.6c-5.6,2.5-11.9,4.7-19.1,6.6l-12.8-123.9L578.4,434.6z"/>
			<path class="st14" d="M500.6,443.3c-7.2-1.8-13.6-4.3-19.2-7.2l32.2-118.8L500.6,443.3z"/>
			<path class="st14" d="M539.4,444.8c-4,0.5-8.1,0.8-12.5,1c-2.1,0.1-4.1,0.1-6.1,0.1L531,320.2L539.4,444.8z"/>
			<path class="st12" d="M499.3,188.9l12.5-4.2c0,0-4.6,18.5,12.7,19.4c15.8,0.8,21.4-18.5,21.4-18.5s5.6,0.9,13,2.7
				c-8.1,16.2-5.1,31.5-2,42.8c2.3,8.5,8,14.1,11.5,17c-2,6.4-5,16.5-6.9,23.1c-3.8,0.9-25.1,5.6-44.5,5.1
				c-11.5-0.3-19-1.6-23.4-2.8c-3.9-12.9-10.7-32-10.7-32C480.3,217.9,494.2,196,499.3,188.9z"/>
			<path class="st14" d="M557,231c-3.1-11.2-6.1-26.6,2-42.8c1.8,0.4,3.6,0.9,5.6,1.5c-1.8,3.7-5.2,11.7-5.2,21
				c0,11.5,5.2,23.9,10.9,31.7c-0.3,0.8-0.9,2.9-1.7,5.5C565,245.1,559.3,239.5,557,231z"/>
			<path class="st14" d="M479.8,221.3c0.8-12.2,5.7-23.5,9-29.3c2.1-0.8,10.4-3.2,10.4-3.2c-5.1,7.1-19,29.1-16.4,52.6l-1,1.2
				C480.5,235.3,479.4,227.7,479.8,221.3z"/>
			<path class="st14" d="M548.3,186c0,0-6.5,22.6-26.1,20.3c-19.5-2.3-13.2-20.6-13.2-20.6l3-1.2c0,0-4.1,15,9.8,16.5
				c16.4,1.8,23.2-15.8,23.2-15.8L548.3,186z"/>
			<path class="st14" d="M515.9,287.2c-9.7-0.5-15.9-1.5-19.7-2.3c0-0.2,0-0.4,0-0.6c0-1.6-1.1-5.8-2.6-10.9
				c4.5,1.1,11.9,2.5,23.4,2.8c19.4,0.5,40.7-4.2,44.5-5.1c-0.9,3.1-1.5,5.4-1.7,6.2c-0.2,1.3,0,3.1,0.4,5.4
				C555.5,284.4,541.2,288.6,515.9,287.2z"/>
		</g>
	</g>
</g>
<g id="sign">
	
		<rect x="743.6" y="472.7" transform="matrix(0.9935 -0.1136 0.1136 0.9935 -58.176 88.9856)" class="st15" width="16.2" height="164.5"/>
	
		<rect x="614.6" y="357.1" transform="matrix(0.9935 -0.1136 0.1136 0.9935 -43.5615 86.4599)" class="st2" width="244.5" height="136.7"/>
	<g>
		<path class="st5" d="M675.4,405.2l0.8,6.8l-6.8,0.8l-2.5-21.5l9.4-1.1c2.6-0.3,4.7,0.1,6.3,1.3c1.6,1.2,2.5,2.9,2.7,5.1
			c0.2,1.4,0,2.6-0.5,3.8c-0.5,1.2-1.3,2.2-2.5,2.9c-1.2,0.8-2.6,1.3-4.3,1.5L675.4,405.2z M678.6,397.4c-0.2-1.3-0.9-1.9-2.3-1.7
			l-1.9,0.2l0.5,4l1.9-0.2C678.1,399.5,678.8,398.7,678.6,397.4z"/>
		<path class="st5" d="M702.9,388.2c1.8,0.8,3.3,1.9,4.5,3.5s1.9,3.4,2.1,5.5c0.2,2.1,0,4.1-0.8,5.9s-2,3.3-3.6,4.4
			s-3.4,1.8-5.4,2.1c-2,0.2-3.9,0-5.7-0.8s-3.3-1.9-4.5-3.5s-1.9-3.4-2.1-5.5c-0.2-2.1,0-4.1,0.8-5.9s2-3.3,3.6-4.4s3.4-1.8,5.4-2.1
			C699.2,387.2,701.1,387.5,702.9,388.2z M694.9,395.3c-0.6,0.9-0.9,2.2-0.7,3.6c0.2,1.5,0.7,2.6,1.5,3.4s1.9,1.1,3.3,0.9
			c1.3-0.2,2.3-0.7,3-1.6c0.6-0.9,0.9-2.1,0.7-3.6s-0.7-2.6-1.5-3.4s-1.9-1.1-3.3-0.9C696.6,393.8,695.6,394.4,694.9,395.3z"/>
		<path class="st5" d="M719.3,401.9l6.5-0.7l0.6,5.1l-13.3,1.5l-2.5-21.5l6.8-0.8L719.3,401.9z"/>
		<path class="st5" d="M734.7,400.1l6.5-0.7l0.6,5.1l-13.3,1.5l-2.5-21.5l6.8-0.8L734.7,400.1z"/>
		<path class="st5" d="M748.3,382l2.5,21.5l-6.8,0.8l-2.5-21.5L748.3,382z"/>
		<path class="st5" d="M774.4,400.8l-6.8,0.8l-8.4-10l1.2,10.8l-6.8,0.8l-2.5-21.5l6.8-0.8l8.4,10.2l-1.3-11l6.8-0.8L774.4,400.8z"
			/>
		<path class="st5" d="M792.4,378.8c1.9,1.2,3.2,2.9,3.8,5.2l-7.1,0.8c-0.3-0.4-0.7-0.7-1.2-0.9c-0.5-0.2-1.1-0.2-1.8-0.1
			c-1.3,0.1-2.3,0.7-2.9,1.6c-0.6,0.9-0.8,2.1-0.7,3.6c0.2,1.7,0.7,2.9,1.6,3.6c0.9,0.7,2.2,1,3.8,0.8s2.7-1,3.6-2.3l-5.4,0.6
			l-0.5-4.8l11-1.3l0.8,6.8c-0.7,1.7-1.9,3.2-3.4,4.6c-1.5,1.3-3.5,2.1-6,2.4c-2.2,0.3-4.2,0-6-0.7s-3.2-1.9-4.2-3.4
			c-1.1-1.6-1.7-3.4-2-5.5c-0.2-2.1,0-4.1,0.7-5.8c0.7-1.8,1.8-3.2,3.3-4.3c1.5-1.1,3.4-1.8,5.6-2
			C788.1,377.2,790.4,377.6,792.4,378.8z"/>
		<path class="st5" d="M708.7,423.5l1.4,12.1c0.1,1,0.4,1.8,0.9,2.3s1.2,0.7,2.2,0.6s1.7-0.5,2.1-1.1c0.4-0.6,0.5-1.4,0.4-2.4
			l-1.4-12.1l6.7-0.8l1.4,12.1c0.2,2,0,3.8-0.7,5.4c-0.7,1.5-1.7,2.8-3.1,3.7c-1.4,0.9-3,1.5-4.8,1.7s-3.5,0-5-0.5
			c-1.5-0.6-2.7-1.5-3.7-2.9c-1-1.3-1.6-3.1-1.8-5.1l-1.4-12.1L708.7,423.5z"/>
		<path class="st5" d="M747.1,440.9l-6.8,0.8l-8.4-10l1.2,10.8l-6.8,0.8l-2.5-21.5l6.8-0.8l8.4,10.2l-1.3-11l6.8-0.8L747.1,440.9z"
			/>
		<path class="st5" d="M754.5,418.2l2.5,21.5l-6.8,0.8l-2.5-21.5L754.5,418.2z"/>
		<path class="st5" d="M774.4,415.9l0.6,5.4l-5.7,0.7l1.9,16.2l-6.8,0.8l-1.9-16.2l-5.7,0.6l-0.6-5.4L774.4,415.9z"/>
	</g>
	<polygon class="st16" points="861,577.6 846.1,526.1 612.8,536.6 627.7,588.1 736.6,583.2 752.4,637.6 767.8,636.9 752.1,582.5 	
		"/>
	<g>
		<g>
			<line class="st17" x1="709.6" y1="473.7" x2="749.7" y2="469.1"/>
			<g>
				<polygon class="st5" points="743.9,480 780.5,465.6 741.6,459.8 				"/>
			</g>
		</g>
	</g>
</g>
</svg>
